<?xml version="1.0" encoding="UTF-8"?>
<svg width="16px" height="16px" viewBox="0 0 16 16" version="1.1" xmlns="http://www.w3.org/2000/svg" xmlns:xlink="http://www.w3.org/1999/xlink">
    <title>16px/线性/通用/icon-add-circle</title>
    <g id="页面-1" stroke="none" stroke-width="1" fill="none" fill-rule="evenodd">
        <g id="Icons" transform="translate(-1373.000000, -671.000000)">
            <g id="Frame" transform="translate(60.000000, 630.999988)">
                <g id="State" transform="translate(1251.000000, 0.000009)">
                    <g id="16px/线性/通用/icon-add-circle" transform="translate(62.000000, 40.000000)">
                        <rect id="矩形" fill="#FFFFFF" opacity="0" x="0" y="0" width="16" height="16"></rect>
                        <g id="16px/线性/通用/icon-refresh" fill="#333333">
                            <path d="M8,0 C12.418278,0 16,3.581722 16,8 C16,12.418278 12.418278,16 8,16 C3.581722,16 0,12.418278 0,8 C0,3.581722 3.581722,0 8,0 Z M8,1.4 C4.35492065,1.4 1.4,4.35492065 1.4,8 C1.4,11.6450793 4.35492065,14.6 8,14.6 C11.6450793,14.6 14.6,11.6450793 14.6,8 C14.6,4.35492065 11.6450793,1.4 8,1.4 Z" id="椭圆形" fill-rule="nonzero"></path>
                            <path d="M8,4 C8.38659932,4 8.7,4.31340068 8.7,4.7 L8.7,7.3 L11.3,7.3 C11.6865993,7.3 12,7.61340068 12,8 C12,8.38659932 11.6865993,8.7 11.3,8.7 L8.699,8.7 L8.7,11.3 C8.7,11.6865993 8.38659932,12 8,12 C7.61340068,12 7.3,11.6865993 7.3,11.3 L7.3,8.7 L4.7,8.7 C4.31340068,8.7 4,8.38659932 4,8 C4,7.61340068 4.31340068,7.3 4.7,7.3 L7.3,7.3 L7.3,4.7 C7.3,4.31340068 7.61340068,4 8,4 Z" id="形状结合"></path>
                        </g>
                    </g>
                </g>
            </g>
        </g>
    </g>
</svg>