<?xml version="1.0" encoding="UTF-8"?>
<svg width="16px" height="16px" viewBox="0 0 16 16" version="1.1" xmlns="http://www.w3.org/2000/svg" xmlns:xlink="http://www.w3.org/1999/xlink">
    <title>16px/线性/通用/icon-add</title>
    <g id="页面-1" stroke="none" stroke-width="1" fill="none" fill-rule="evenodd">
        <g id="Icons" transform="translate(-1234.000000, -671.000000)">
            <g id="Frame" transform="translate(60.000000, 630.999988)">
                <g id="State" transform="translate(1112.000000, 0.000003)">
                    <g id="16px/线性/通用/icon-add" transform="translate(62.000000, 40.000009)">
                        <rect id="矩形" fill="#D8D8D8" opacity="0" x="0" y="0" width="16" height="16"></rect>
                        <g transform="translate(1.686977, 1.700000)" fill="#333333" fill-rule="nonzero" id="直线-3">
                            <path d="M12.6,5.6 C12.9865993,5.6 13.3,5.91340068 13.3,6.3 C13.3,6.65438271 13.0366564,6.94725823 12.6949859,6.99360983 L12.6,7 L0,7 C-0.386599325,7 -0.7,6.68659932 -0.7,6.3 C-0.7,5.94561729 -0.436656377,5.65274177 -0.0949858535,5.60639017 L0,5.6 L12.6,5.6 Z"></path>
                            <path d="M12.6,5.6 C12.9865993,5.6 13.3,5.91340068 13.3,6.3 C13.3,6.65438271 13.0366564,6.94725823 12.6949859,6.99360983 L12.6,7 L0,7 C-0.386599325,7 -0.7,6.68659932 -0.7,6.3 C-0.7,5.94561729 -0.436656377,5.65274177 -0.0949858535,5.60639017 L0,5.6 L12.6,5.6 Z" transform="translate(6.300000, 6.300000) rotate(90.000000) translate(-6.300000, -6.300000) "></path>
                        </g>
                    </g>
                </g>
            </g>
        </g>
    </g>
</svg>