<?xml version="1.0" encoding="UTF-8"?>
<svg width="16px" height="16px" viewBox="0 0 16 16" version="1.1" xmlns="http://www.w3.org/2000/svg" xmlns:xlink="http://www.w3.org/1999/xlink">
    <title>16px/线性/通用/icon-adjustment</title>
    <g id="页面-1" stroke="none" stroke-width="1" fill="none" fill-rule="evenodd">
        <g id="Icons" transform="translate(-1373.000000, -1366.000000)">
            <g id="编组-8" transform="translate(60.000000, 1325.999991)">
                <g id="State" transform="translate(1251.000000, 0.000003)">
                    <g id="16px/线性/通用/icon-adjustment" transform="translate(62.000000, 40.000006)">
                        <rect id="矩形" fill="#D8D8D8" opacity="0" x="0" y="0" width="16" height="16"></rect>
                        <g transform="translate(0.200000, 1.500000)" fill="#333333">
                            <path d="M7.1,4 L8.5,4 L8.5,12.3 C8.5,12.6865993 8.18659932,13 7.8,13 C7.41340068,13 7.1,12.6865993 7.1,12.3 L7.1,4 L7.1,4 Z" id="矩形"></path>
                            <path d="M1.8,9 L3.2,9 L3.2,12.3 C3.2,12.6865993 2.88659932,13 2.5,13 C2.11340068,13 1.8,12.6865993 1.8,12.3 L1.8,9 L1.8,9 Z M2.5,1 C2.88659932,1 3.2,1.31340068 3.2,1.7 L3.2,5 L3.2,5 L1.8,5 L1.8,1.7 C1.8,1.31340068 2.11340068,1 2.5,1 Z" id="形状结合"></path>
                            <path d="M12.4,7 L13.8,7 L13.8,12.3 C13.8,12.6865993 13.4865993,13 13.1,13 C12.7134007,13 12.4,12.6865993 12.4,12.3 L12.4,7 L12.4,7 Z M13.1,1 C13.4865993,1 13.8,1.31340068 13.8,1.7 L13.8,4 L13.8,4 L12.4,4 L12.4,1.7 C12.4,1.31340068 12.7134007,1 13.1,1 Z" id="形状结合" transform="translate(13.100000, 7.000000) rotate(-180.000000) translate(-13.100000, -7.000000) "></path>
                            <path d="M7.8,0 C9.18071187,0 10.3,1.11928813 10.3,2.5 C10.3,3.88071187 9.18071187,5 7.8,5 C6.41928813,5 5.3,3.88071187 5.3,2.5 C5.3,1.11928813 6.41928813,0 7.8,0 Z M7.8,1.4 C7.19248678,1.4 6.7,1.89248678 6.7,2.5 C6.7,3.10751322 7.19248678,3.6 7.8,3.6 C8.40751322,3.6 8.9,3.10751322 8.9,2.5 C8.9,1.89248678 8.40751322,1.4 7.8,1.4 Z" id="椭圆形" fill-rule="nonzero"></path>
                            <path d="M2.5,4.5 C3.88071187,4.5 5,5.61928813 5,7 C5,8.38071187 3.88071187,9.5 2.5,9.5 C1.11928813,9.5 0,8.38071187 0,7 C0,5.61928813 1.11928813,4.5 2.5,4.5 Z M2.5,5.9 C1.89248678,5.9 1.4,6.39248678 1.4,7 C1.4,7.60751322 1.89248678,8.1 2.5,8.1 C3.10751322,8.1 3.6,7.60751322 3.6,7 C3.6,6.39248678 3.10751322,5.9 2.5,5.9 Z" id="椭圆形" fill-rule="nonzero"></path>
                            <path d="M13.1,6 C14.4807119,6 15.6,7.11928813 15.6,8.5 C15.6,9.88071187 14.4807119,11 13.1,11 C11.7192881,11 10.6,9.88071187 10.6,8.5 C10.6,7.11928813 11.7192881,6 13.1,6 Z M13.1,7.4 C12.4924868,7.4 12,7.89248678 12,8.5 C12,9.10751322 12.4924868,9.6 13.1,9.6 C13.7075132,9.6 14.2,9.10751322 14.2,8.5 C14.2,7.89248678 13.7075132,7.4 13.1,7.4 Z" id="椭圆形" fill-rule="nonzero"></path>
                        </g>
                    </g>
                </g>
            </g>
        </g>
    </g>
</svg>