<?xml version="1.0" encoding="UTF-8"?>
<svg width="16px" height="16px" viewBox="0 0 16 16" version="1.1" xmlns="http://www.w3.org/2000/svg" xmlns:xlink="http://www.w3.org/1999/xlink">
    <title>16px/线性/通用/icon-arrow-left</title>
    <g id="页面-1" stroke="none" stroke-width="1" fill="none" fill-rule="evenodd">
        <g id="Icons" transform="translate(-400.000000, -671.000000)">
            <g id="Frame" transform="translate(60.000000, 630.999988)">
                <g id="State" transform="translate(278.000000, 0.000000)">
                    <g id="16px/线性/通用/icon-arrow-left" transform="translate(62.000000, 40.000012)">
                        <rect id="蒙版" fill="#FFFFFF" opacity="0" x="0" y="0" width="16" height="16"></rect>
                        <path d="M13.0007857,4.70562904 C13.2738193,4.43192898 13.7170344,4.43138866 13.9907345,4.7044222 C14.2370645,4.95015239 14.2621352,5.33372968 14.0656446,5.60751518 L13.9919413,5.69437096 L8.40557856,11.294371 C8.15942467,11.5411257 7.77505046,11.5658013 7.50125244,11.3683975 L7.41442313,11.2943711 L2.00442237,5.87116746 C1.73138874,5.59746749 1.7319289,5.15425233 2.00562887,4.8812187 C2.25195884,4.63548842 2.63559611,4.61135293 2.90890179,4.80851041 L2.99557763,4.88242519 L7.909,9.808 L13.0007857,4.70562904 Z" fill="#333333" fill-rule="nonzero" transform="translate(7.998182, 8.000000) rotate(-270.000000) translate(-7.998182, -8.000000) "></path>
                    </g>
                </g>
            </g>
        </g>
    </g>
</svg>