<?xml version="1.0" encoding="UTF-8"?>
<svg width="16px" height="16px" viewBox="0 0 16 16" version="1.1" xmlns="http://www.w3.org/2000/svg" xmlns:xlink="http://www.w3.org/1999/xlink">
    <title>16px/线性/通用/icon-arrow-double-up</title>
    <g id="页面-1" stroke="none" stroke-width="1" fill="none" fill-rule="evenodd">
        <g id="Icons" transform="translate(-817.000000, -671.000000)">
            <g id="Frame" transform="translate(60.000000, 630.999988)">
                <g id="State" transform="translate(695.000000, 0.000009)">
                    <g id="16px/线性/通用/icon-arrow-double-up" transform="translate(62.000000, 40.000003)">
                        <rect id="蒙版" fill="#FFFFFF" opacity="0" x="0" y="0" width="16" height="16"></rect>
                        <g transform="translate(7.998182, 8.000000) scale(1, -1) translate(-7.998182, -8.000000) translate(2.500000, 2.200000)" fill="#333333" fill-rule="nonzero" id="16px/线性/通用/icon-arrow-left">
                            <path d="M10.5007857,5.50562904 C10.7738193,5.23192898 11.2170344,5.23138866 11.4907345,5.5044222 C11.7370645,5.75015239 11.7621352,6.13372968 11.5656446,6.40751518 L11.4919413,6.49437096 L5.90557856,12.094371 C5.65942467,12.3411257 5.27505046,12.3658013 5.00125244,12.1683975 L4.91442313,12.0943711 L-0.495577627,6.67116746 C-0.768611264,6.39746749 -0.768071097,5.95425233 -0.494371131,5.6812187 C-0.248041162,5.43548842 0.135596111,5.41135293 0.408901787,5.60851041 L0.495577627,5.68242519 L5.409,10.608 L10.5007857,5.50562904 Z" transform="translate(5.498182, 8.800000) rotate(-360.000000) translate(-5.498182, -8.800000) "></path>
                            <path d="M10.5007857,-0.494370958 C10.7738193,-0.768071019 11.2170344,-0.768611341 11.4907345,-0.4955778 C11.7370645,-0.249847613 11.7621352,0.133729682 11.5656446,0.407515183 L11.4919413,0.494370958 L5.90557856,6.09437096 C5.65942467,6.34112575 5.27505046,6.36580129 5.00125244,6.16839754 L4.91442313,6.09437113 L-0.495577627,0.671167456 C-0.768611264,0.39746749 -0.768071097,-0.0457476659 -0.494371131,-0.318781303 C-0.248041162,-0.564511576 0.135596111,-0.588647068 0.408901787,-0.391489589 L0.495577627,-0.317574807 L5.409,4.608 L10.5007857,-0.494370958 Z" transform="translate(5.498182, 2.800000) rotate(-360.000000) translate(-5.498182, -2.800000) "></path>
                        </g>
                    </g>
                </g>
            </g>
        </g>
    </g>
</svg>