<?xml version="1.0" encoding="UTF-8"?>
<svg width="16px" height="16px" viewBox="0 0 16 16" version="1.1" xmlns="http://www.w3.org/2000/svg" xmlns:xlink="http://www.w3.org/1999/xlink">
    <title>16px/线性/通用/icon-arrow-double-down</title>
    <g id="页面-1" stroke="none" stroke-width="1" fill="none" fill-rule="evenodd">
        <g id="Icons" transform="translate(-678.000000, -671.000000)">
            <g id="Frame" transform="translate(60.000000, 630.999988)">
                <g id="State" transform="translate(556.000000, 0.000009)">
                    <g id="16px/线性/通用/icon-arrow-double-down" transform="translate(62.000000, 40.000003)">
                        <rect id="蒙版" fill="#FFFFFF" opacity="0" x="0" y="0" width="16" height="16"></rect>
                        <g transform="translate(1.800000, 1.500000)" fill="#333333" fill-rule="nonzero" id="16px/线性/通用/icon-arrow-left">
                            <path d="M11.2007857,6.20562905 C11.4738193,5.93192898 11.9170344,5.93138866 12.1907345,6.2044222 C12.4370645,6.45015239 12.4621352,6.83372968 12.2656446,7.10751519 L12.1919413,7.19437096 L6.60557856,12.794371 C6.35942467,13.0411258 5.97505046,13.0658013 5.70125244,12.8683975 L5.61442313,12.7943711 L0.204422376,7.37116746 C-0.0686112604,7.09746749 -0.0680710939,6.65425234 0.205628872,6.3812187 C0.451958841,6.13548843 0.835596114,6.11135294 1.10890179,6.30851041 L1.19557763,6.3824252 L6.109,11.308 L11.2007857,6.20562905 Z" transform="translate(6.198182, 9.500000) rotate(-360.000000) translate(-6.198182, -9.500000) "></path>
                            <path d="M11.2007857,0.205629045 C11.4738193,-0.068071016 11.9170344,-0.0686113376 12.1907345,0.204422203 C12.4370645,0.45015239 12.4621352,0.833729685 12.2656446,1.10751519 L12.1919413,1.19437096 L6.60557856,6.79437096 C6.35942467,7.04112575 5.97505046,7.06580129 5.70125244,6.86839754 L5.61442313,6.79437113 L0.204422376,1.37116746 C-0.0686112604,1.09746749 -0.0680710939,0.654252337 0.205628872,0.381218701 C0.451958841,0.135488428 0.835596114,0.111352935 1.10890179,0.308510414 L1.19557763,0.382425196 L6.109,5.308 L11.2007857,0.205629045 Z" transform="translate(6.198182, 3.500000) rotate(-360.000000) translate(-6.198182, -3.500000) "></path>
                        </g>
                    </g>
                </g>
            </g>
        </g>
    </g>
</svg>