<?xml version="1.0" encoding="UTF-8"?>
<svg width="16px" height="16px" viewBox="0 0 16 16" version="1.1" xmlns="http://www.w3.org/2000/svg" xmlns:xlink="http://www.w3.org/1999/xlink">
    <title>16px/线性/通用/icon-arrow-double-right</title>
    <g id="页面-1" stroke="none" stroke-width="1" fill="none" fill-rule="evenodd">
        <g id="Icons" transform="translate(-1095.000000, -671.000000)">
            <g id="Frame" transform="translate(60.000000, 630.999988)">
                <g id="State" transform="translate(973.000000, 0.000009)">
                    <g id="16px/线性/通用/icon-arrow-double-right" transform="translate(62.000000, 40.000000)">
                        <rect id="蒙版" fill="#FFFFFF" opacity="0" x="0" y="0" width="16" height="16"></rect>
                        <g transform="translate(7.998182, 8.000000) scale(-1, 1) translate(-7.998182, -8.000000) translate(2.198182, 2.501818)" fill="#333333" fill-rule="nonzero" id="16px/线性/通用/icon-arrow-left">
                            <path d="M7.80260396,2.2038108 C8.0756375,1.93011074 8.51885265,1.92957042 8.79255271,2.20260396 C9.03888277,2.44833414 9.06395344,2.83191144 8.86746282,3.10569694 L8.79375956,3.19255271 L3.2073968,8.79255271 C2.96124291,9.0393075 2.5768687,9.06398305 2.30307068,8.8665793 L2.21624137,8.79255289 L-3.19375938,3.36934921 C-3.46679302,3.09564925 -3.46625285,2.65243409 -3.19255289,2.37940045 C-2.94622292,2.13367018 -2.56258565,2.10953469 -2.28927997,2.30669217 L-2.20260413,2.38060695 L2.712,7.306 L7.80260396,2.2038108 Z" transform="translate(2.800000, 5.498182) rotate(-270.000000) translate(-2.800000, -5.498182) "></path>
                            <path d="M13.802604,2.2038108 C14.0756375,1.93011074 14.5188527,1.92957042 14.7925527,2.20260396 C15.0388828,2.44833414 15.0639534,2.83191144 14.8674628,3.10569694 L14.7937596,3.19255271 L9.2073968,8.79255271 C8.96124291,9.0393075 8.5768687,9.06398305 8.30307068,8.8665793 L8.21624137,8.79255289 L2.80624062,3.36934921 C2.53320698,3.09564925 2.53374715,2.65243409 2.80744711,2.37940045 C3.05377708,2.13367018 3.43741435,2.10953469 3.71072003,2.30669217 L3.79739587,2.38060695 L8.711,7.306 L13.802604,2.2038108 Z" transform="translate(8.800000, 5.498182) rotate(-270.000000) translate(-8.800000, -5.498182) "></path>
                        </g>
                    </g>
                </g>
            </g>
        </g>
    </g>
</svg>