<?xml version="1.0" encoding="UTF-8"?>
<svg width="16px" height="16px" viewBox="0 0 16 16" version="1.1" xmlns="http://www.w3.org/2000/svg" xmlns:xlink="http://www.w3.org/1999/xlink">
    <title>16px/线性/通用/icon-ashbin</title>
    <g id="页面-1" stroke="none" stroke-width="1" fill="none" fill-rule="evenodd">
        <g id="Icons" transform="translate(-956.000000, -810.000000)">
            <g id="编组-5" transform="translate(60.000000, 769.999991)">
                <g id="State" transform="translate(834.000000, 0.000006)">
                    <g id="16px/线性/通用/icon-ashbin" transform="translate(62.000000, 40.000003)">
                        <rect id="矩形" fill="#FFFFFF" opacity="0" x="0" y="0" width="16" height="16"></rect>
                        <g fill="#333333" id="矩形">
                            <rect x="4" y="0" width="8" height="1.4" rx="0.7"></rect>
                            <rect x="4.6" y="6.5" width="1.4" height="6" rx="0.7"></rect>
                            <rect x="10" y="6.5" width="1.4" height="6" rx="0.7"></rect>
                            <rect x="7.3" y="6.5" width="1.4" height="6" rx="0.7"></rect>
                            <rect x="0" y="3" width="16" height="1.4" rx="0.7"></rect>
                            <path d="M14,3 L14,15 C14,15.5522847 13.5522847,16 13,16 L3,16 C2.44771525,16 2,15.5522847 2,15 L2,3 L14,3 Z M12.6,4.4 L3.4,4.4 L3.4,14.6 L12.6,14.6 L12.6,4.4 Z" fill-rule="nonzero"></path>
                        </g>
                    </g>
                </g>
            </g>
        </g>
    </g>
</svg>