<?xml version="1.0" encoding="UTF-8"?>
<svg width="16px" height="16px" viewBox="0 0 16 16" version="1.1" xmlns="http://www.w3.org/2000/svg" xmlns:xlink="http://www.w3.org/1999/xlink">
    <title>16px/线性/通用/icon-attachment</title>
    <g id="页面-1" stroke="none" stroke-width="1" fill="none" fill-rule="evenodd">
        <g id="Icons" transform="translate(-1095.000000, -1088.000000)">
            <g id="编组-7" transform="translate(60.000000, 1047.999988)">
                <g id="State" transform="translate(973.000000, 0.000012)">
                    <g id="16px/线性/通用/icon-attachment" transform="translate(62.000000, 40.000012)">
                        <rect id="Rectangle" x="0" y="0" width="16" height="16"></rect>
                        <path d="M10.384176,2.11254498 C11.6002693,0.895816578 13.5720715,0.895816578 14.7881319,2.112564 C15.9571953,3.28232778 16.0021592,5.15075129 14.9230144,6.37422137 L14.7881213,6.51785601 L7.67618939,13.6337453 C5.98878858,15.322085 3.25279132,15.322085 1.56539672,13.6337467 C-0.0673732401,12.0000775 -0.120043239,9.3842517 1.40738544,7.68721884 L1.56539531,7.52064861 L7.539427,1.54329276 L8.5296518,2.53296687 L2.5556187,8.51032412 C1.41479377,9.65177736 1.41479377,11.5026165 2.55562081,12.6440719 C3.65059652,13.73966 5.39856337,13.7834835 6.54578187,12.7755418 L6.68596459,12.6440712 L13.7978965,5.5281819 C14.4673696,4.85833634 14.4673696,3.77210169 13.7978944,3.10222543 C13.168005,2.4719801 12.1698841,2.43490684 11.4966489,2.99100626 L11.3743938,3.10222614 L4.26250067,10.2181168 C4.06434017,10.4163876 4.06434017,10.737983 4.26252179,10.9362579 C4.43843956,11.1122886 4.71141448,11.1318476 4.9089272,10.99492 L4.97912023,10.9362368 L10.9531157,4.95891719 L11.9433405,5.94859131 L5.96934503,11.9259109 C5.22459556,12.6710748 4.01696178,12.6710748 3.27229699,11.9259321 C2.5691056,11.2224094 2.53003941,10.1061449 3.15507946,9.35672746 L3.27227447,9.22844411 L10.384176,2.11254498 Z" fill="#333333" fill-rule="nonzero"></path>
                    </g>
                </g>
            </g>
        </g>
    </g>
</svg>