<?xml version="1.0" encoding="UTF-8"?>
<svg width="16px" height="16px" viewBox="0 0 16 16" version="1.1" xmlns="http://www.w3.org/2000/svg" xmlns:xlink="http://www.w3.org/1999/xlink">
    <title>16px/线性/通用/icon-calendar</title>
    <g id="页面-1" stroke="none" stroke-width="1" fill="none" fill-rule="evenodd">
        <g id="Icons" transform="translate(-400.000000, -949.000000)">
            <g id="编组-6" transform="translate(60.000000, 908.999994)">
                <g id="State" transform="translate(278.000000, 0.000003)">
                    <g id="16px/线性/通用/icon-calendar" transform="translate(62.000000, 40.000003)">
                        <rect id="矩形" fill="#FFFFFF" opacity="0" x="0" y="0" width="16" height="16"></rect>
                        <g transform="translate(0.000000, 0.100000)" fill="#333333" fill-rule="nonzero">
                            <path d="M15,1.9 C15.5522847,1.9 16,2.34771525 16,2.9 L16,14.9 C16,15.4522847 15.5522847,15.9 15,15.9 L1,15.9 C0.44771525,15.9 0,15.4522847 0,14.9 L0,2.9 C0,2.34771525 0.44771525,1.9 1,1.9 L15,1.9 Z M14.6,3.3 L1.4,3.3 L1.4,14.5 L14.6,14.5 L14.6,3.3 Z" id="矩形"></path>
                            <path d="M10.5,9.7 C10.8865993,9.7 11.2,10.0134007 11.2,10.4 C11.2,10.7543827 10.9366564,11.0472582 10.5949859,11.0936098 L10.5,11.1 L5.5,11.1 C5.11340068,11.1 4.8,10.7865993 4.8,10.4 C4.8,10.0456173 5.06334362,9.75274177 5.40501415,9.70639017 L5.5,9.7 L10.5,9.7 Z" id="直线-4"></path>
                            <path d="M15,5.7 C15.3865993,5.7 15.7,6.01340068 15.7,6.4 C15.7,6.75438271 15.4366564,7.04725823 15.0949859,7.09360983 L15,7.1 L1,7.1 C0.613400675,7.1 0.3,6.78659932 0.3,6.4 C0.3,6.04561729 0.563343623,5.75274177 0.905014146,5.70639017 L1,5.7 L15,5.7 Z" id="直线-4"></path>
                            <path d="M3.5,0 C3.85438271,0 4.14725823,0.263343623 4.19360983,0.605014146 L4.2,0.7 L4.2,1.7 C4.2,2.08659932 3.88659932,2.4 3.5,2.4 C3.14561729,2.4 2.85274177,2.13665638 2.80639017,1.79498585 L2.8,1.7 L2.8,0.7 C2.8,0.313400675 3.11340068,0 3.5,0 Z" id="直线-5"></path>
                            <path d="M12.5,0 C12.8543827,0 13.1472582,0.263343623 13.1936098,0.605014146 L13.2,0.7 L13.2,1.7 C13.2,2.08659932 12.8865993,2.4 12.5,2.4 C12.1456173,2.4 11.8527418,2.13665638 11.8063902,1.79498585 L11.8,1.7 L11.8,0.7 C11.8,0.313400675 12.1134007,0 12.5,0 Z" id="直线-5备份"></path>
                        </g>
                    </g>
                </g>
            </g>
        </g>
    </g>
</svg>