<?xml version="1.0" encoding="UTF-8"?>
<svg width="16px" height="16px" viewBox="0 0 16 16" version="1.1" xmlns="http://www.w3.org/2000/svg" xmlns:xlink="http://www.w3.org/1999/xlink">
    <title>16px/线性/通用/icon-catalog</title>
    <g id="页面-1" stroke="none" stroke-width="1" fill="none" fill-rule="evenodd">
        <g id="Icons" transform="translate(-956.000000, -949.000000)">
            <g id="编组-6" transform="translate(60.000000, 908.999994)">
                <g id="State" transform="translate(834.000000, 0.000006)">
                    <g id="16px/线性/通用/icon-catalog" transform="translate(62.000000, 40.000012)">
                        <rect id="矩形" fill="#FFFFFF" opacity="0" x="0" y="0" width="16" height="16"></rect>
                        <g fill="#333333" fill-rule="nonzero">
                            <path d="M10,0 C10.5522847,0 11,0.44771525 11,1 L11,5 C11,5.55228475 10.5522847,6 10,6 L6,6 C5.44771525,6 5,5.55228475 5,5 L5,1 C5,0.44771525 5.44771525,0 6,0 L10,0 Z M9.6,1.4 L6.4,1.4 L6.4,4.6 L9.6,4.6 L9.6,1.4 Z" id="矩形"></path>
                            <path d="M5,10 C5.55228475,10 6,10.4477153 6,11 L6,15 C6,15.5522847 5.55228475,16 5,16 L1,16 C0.44771525,16 0,15.5522847 0,15 L0,11 C0,10.4477153 0.44771525,10 1,10 L5,10 Z M4.6,11.4 L1.4,11.4 L1.4,14.6 L4.6,14.6 L4.6,11.4 Z" id="矩形"></path>
                            <path d="M15,10 C15.5522847,10 16,10.4477153 16,11 L16,15 C16,15.5522847 15.5522847,16 15,16 L11,16 C10.4477153,16 10,15.5522847 10,15 L10,11 C10,10.4477153 10.4477153,10 11,10 L15,10 Z M14.6,11.4 L11.4,11.4 L11.4,14.6 L14.6,14.6 L14.6,11.4 Z" id="矩形"></path>
                            <path d="M12,7.3 C12.8894691,7.3 13.6193901,7.98310681 13.69376,8.85331749 L13.7,9 L13.7,10 L12.3,10 L12.3,9 C12.3,8.85798392 12.2013199,8.73901581 12.0687872,8.70792321 L12,8.7 L4,8.7 C3.85798392,8.7 3.73901581,8.7986801 3.70792321,8.93121275 L3.7,9 L3.7,10 L2.3,10 L2.3,9 C2.3,8.11053088 2.98310681,7.3806099 3.85331749,7.30624001 L4,7.3 L12,7.3 Z" id="路径"></path>
                            <polygon id="路径-3" points="8.7 6 8.7 8 7.3 8 7.3 6"></polygon>
                        </g>
                    </g>
                </g>
            </g>
        </g>
    </g>
</svg>