<?xml version="1.0" encoding="UTF-8"?>
<svg width="16px" height="16px" viewBox="0 0 16 16" version="1.1" xmlns="http://www.w3.org/2000/svg" xmlns:xlink="http://www.w3.org/1999/xlink">
    <title>16px/线性/通用/icon-close</title>
    <defs>
        <rect id="path-1" x="0" y="0" width="16" height="16"></rect>
    </defs>
    <g id="页面-1" stroke="none" stroke-width="1" fill="none" fill-rule="evenodd">
        <g id="Icons" transform="translate(-817.000000, -949.000000)">
            <g id="编组-6" transform="translate(60.000000, 908.999994)">
                <g id="State" transform="translate(695.000000, 0.000003)">
                    <g id="16px/线性/通用/icon-close" transform="translate(62.000000, 40.000000)">
                        <mask id="mask-2" fill="white">
                            <use xlink:href="#path-1"></use>
                        </mask>
                        <use id="蒙版" fill="#FFFFFF" opacity="0" xlink:href="#path-1"></use>
                        <g mask="url(#mask-2)" fill="#333333" fill-rule="nonzero" id="直线-2">
                            <g transform="translate(2.147326, 2.136073)">
                                <path d="M10.5270399,0.205185103 C10.8003186,-0.0682701553 11.2435341,-0.0684132662 11.5169893,0.204865456 C11.7630991,0.450816305 11.787826,0.834415915 11.5910901,1.10802521 L11.517309,1.1948149 L1.19513454,11.5236574 C0.921855823,11.7971127 0.478640361,11.7972558 0.205185103,11.523977 C-0.0409246295,11.2780262 -0.0656515226,10.8944266 0.131084384,10.6208173 L0.204865456,10.5340276 L10.5270399,0.205185103 Z" transform="translate(5.861087, 5.864421) scale(-1, 1) translate(-5.861087, -5.864421) "></path>
                                <path d="M10.5270399,0.205185103 C10.8003186,-0.0682701553 11.2435341,-0.0684132662 11.5169893,0.204865456 C11.7630991,0.450816305 11.787826,0.834415915 11.5910901,1.10802521 L11.517309,1.1948149 L1.19513454,11.5236574 C0.921855823,11.7971127 0.478640361,11.7972558 0.205185103,11.523977 C-0.0409246295,11.2780262 -0.0656515226,10.8944266 0.131084384,10.6208173 L0.204865456,10.5340276 L10.5270399,0.205185103 Z"></path>
                            </g>
                        </g>
                    </g>
                </g>
            </g>
        </g>
    </g>
</svg>