<?xml version="1.0" encoding="UTF-8"?>
<svg width="16px" height="16px" viewBox="0 0 16 16" version="1.1" xmlns="http://www.w3.org/2000/svg" xmlns:xlink="http://www.w3.org/1999/xlink">
    <title>16px/线性/通用/icon-customer-service</title>
    <g id="页面-1" stroke="none" stroke-width="1" fill="none" fill-rule="evenodd">
        <g id="Icons" transform="translate(-122.000000, -1644.000000)">
            <g id="编组-8" transform="translate(60.000000, 1603.999991)">
                <g id="State" transform="translate(0.000000, 0.000009)">
                    <g id="16px/线性/通用/icon-customer-service" transform="translate(62.000000, 40.000000)">
                        <rect id="矩形" fill="#FFFFFF" opacity="0" x="0" y="0" width="16" height="16"></rect>
                        <g transform="translate(0.500000, 0.300000)" fill="#333333">
                            <path d="M7.5,0 C10.8480729,0 13.5763094,2.65383491 13.695911,5.97270614 L13.7,6.2 L12.3,6.2 C12.3,3.5490332 10.1509668,1.4 7.5,1.4 C4.92068095,1.4 2.8165306,3.43443903 2.70467683,5.98618919 L2.7,6.2 L1.3,6.2 C1.3,2.77583455 4.07583455,0 7.5,0 Z" id="路径" fill-rule="nonzero"></path>
                            <path d="M13.7,10.7 C13.7,13.2236345 11.7110181,15.2827173 9.21513928,15.3951636 L9,15.4 L9,14 C10.7596935,14 12.1976959,12.6226767 12.2947761,10.8872612 L12.3,10.7 L13.7,10.7 Z" id="路径" fill-rule="nonzero"></path>
                            <circle id="椭圆形" cx="8.25" cy="14.45" r="1.25"></circle>
                            <path d="M2,5.7 C3.1045695,5.7 4,6.5954305 4,7.7 L4,9.7 C4,10.8045695 3.1045695,11.7 2,11.7 C0.8954305,11.7 0,10.8045695 0,9.7 L0,7.7 C0,6.5954305 0.8954305,5.7 2,5.7 Z M2,7.1 C1.70176624,7.1 1.45435325,7.31758961 1.40785299,7.60267688 L1.4,7.7 L1.4,9.7 C1.4,10.0313708 1.66862915,10.3 2,10.3 C2.29823376,10.3 2.54564675,10.0824104 2.59214701,9.79732312 L2.6,9.7 L2.6,7.7 C2.6,7.36862915 2.33137085,7.1 2,7.1 Z" id="矩形" fill-rule="nonzero"></path>
                            <path d="M13,5.7 C14.1045695,5.7 15,6.5954305 15,7.7 L15,9.7 C15,10.8045695 14.1045695,11.7 13,11.7 C11.8954305,11.7 11,10.8045695 11,9.7 L11,7.7 C11,6.5954305 11.8954305,5.7 13,5.7 Z M13,7.1 C12.7017662,7.1 12.4543532,7.31758961 12.407853,7.60267688 L12.4,7.7 L12.4,9.7 C12.4,10.0313708 12.6686292,10.3 13,10.3 C13.2982338,10.3 13.5456468,10.0824104 13.592147,9.79732312 L13.6,9.7 L13.6,7.7 C13.6,7.36862915 13.3313708,7.1 13,7.1 Z" id="矩形" fill-rule="nonzero"></path>
                        </g>
                    </g>
                </g>
            </g>
        </g>
    </g>
</svg>