<?xml version="1.0" encoding="UTF-8"?>
<svg width="16px" height="16px" viewBox="0 0 16 16" version="1.1" xmlns="http://www.w3.org/2000/svg" xmlns:xlink="http://www.w3.org/1999/xlink">
    <title>16px/线性/通用/icon-data-view</title>
    <g id="页面-1" stroke="none" stroke-width="1" fill="none" fill-rule="evenodd">
        <g id="Icons" transform="translate(-817.000000, -1644.000000)">
            <g id="编组-8" transform="translate(60.000000, 1603.999991)">
                <g id="State" transform="translate(695.000000, 0.000006)">
                    <g id="16px/线性/通用/icon-data-view" transform="translate(62.000000, 40.000000)">
                        <rect id="矩形" fill="#FFFFFF" opacity="0" x="0" y="0" width="16" height="16"></rect>
                        <g transform="translate(0.741740, 1.000003)" fill="#333333" fill-rule="nonzero">
                            <path d="M0,-0.7 C0.354382714,-0.7 0.64725823,-0.436656377 0.693609825,-0.0949858535 L0.7,0 L0.7,13.3 L14.5,13.3 C14.8543827,13.3 15.1472582,13.5633436 15.1936098,13.9050141 L15.2,14 C15.2,14.3543827 14.9366564,14.6472582 14.5949859,14.6936098 L14.5,14.7 L0,14.7 C-0.354382714,14.7 -0.64725823,14.4366564 -0.693609825,14.0949859 L-0.7,14 L-0.7,0 C-0.7,-0.386599325 -0.386599325,-0.7 0,-0.7 Z" id="路径-14"></path>
                            <g id="编组-14" transform="translate(2.558260, 0.000000)">
                                <path d="M0.7,7.29998685 C1.05438271,7.29998685 1.34725823,7.56333047 1.39360983,7.905001 L1.4,7.99998685 L1.4,11.9999869 C1.4,12.3865862 1.08659932,12.6999869 0.7,12.6999869 C0.345617286,12.6999869 0.0527417698,12.4366432 0.00639017493,12.0949727 L0,11.9999869 L0,7.99998685 C0,7.61338753 0.313400675,7.29998685 0.7,7.29998685 Z" id="直线-19"></path>
                                <path d="M3.7,5.29998685 C4.05438271,5.29998685 4.34725823,5.56333047 4.39360983,5.905001 L4.4,5.99998685 L4.4,11.9999869 C4.4,12.3865862 4.08659932,12.6999869 3.7,12.6999869 C3.34561729,12.6999869 3.05274177,12.4366432 3.00639017,12.0949727 L3,11.9999869 L3,5.99998685 C3,5.61338753 3.31340068,5.29998685 3.7,5.29998685 Z" id="直线-19"></path>
                                <path d="M6.7,7.29998685 C7.05438271,7.29998685 7.34725823,7.56333047 7.39360983,7.905001 L7.4,7.99998685 L7.4,11.9999869 C7.4,12.3865862 7.08659932,12.6999869 6.7,12.6999869 C6.34561729,12.6999869 6.05274177,12.4366432 6.00639017,12.0949727 L6,11.9999869 L6,7.99998685 C6,7.61338753 6.31340068,7.29998685 6.7,7.29998685 Z" id="直线-19"></path>
                                <path d="M9.7,4.29998685 C10.0543827,4.29998685 10.3472582,4.56333047 10.3936098,4.905001 L10.4,4.99998685 L10.4,11.9999869 C10.4,12.3865862 10.0865993,12.6999869 9.7,12.6999869 C9.34561729,12.6999869 9.05274177,12.4366432 9.00639017,12.0949727 L9,11.9999869 L9,4.99998685 C9,4.61338753 9.31340068,4.29998685 9.7,4.29998685 Z" id="直线-19"></path>
                                <path d="M9.13173147,-0.408743045 C9.35747402,-0.722589088 9.794897,-0.794011081 10.108743,-0.568268531 C10.3940576,-0.363048031 10.4790218,0.017114975 10.3225081,0.320336662 L10.2682685,0.408743045 L7.26826853,4.57959223 C7.03199375,4.90808106 6.57447534,4.96338143 6.26786683,4.72175605 L6.1882675,4.64847859 L3.725,2.009 L1.23423817,4.95231579 C1.00941177,5.21786223 0.629155972,5.27412597 0.340260464,5.10061387 L0.247684207,5.03423817 C-0.0178622279,4.80941177 -0.0741259691,4.42915597 0.0993861333,4.14026046 L0.165761829,4.04768421 L3.16576183,0.504331221 C3.41193345,0.213573566 3.83864206,0.177355845 4.12902443,0.403346491 L4.2117325,0.479017604 L6.629,3.07 L9.13173147,-0.408743045 Z" id="路径-15"></path>
                            </g>
                        </g>
                    </g>
                </g>
            </g>
        </g>
    </g>
</svg>