<?xml version="1.0" encoding="UTF-8"?>
<svg width="16px" height="16px" viewBox="0 0 16 16" version="1.1" xmlns="http://www.w3.org/2000/svg" xmlns:xlink="http://www.w3.org/1999/xlink">
    <title>16px/线性/通用/icon-direction-right</title>
    <g id="页面-1" stroke="none" stroke-width="1" fill="none" fill-rule="evenodd">
        <g id="Icons" transform="translate(-539.000000, -810.000000)">
            <g id="编组-5" transform="translate(60.000000, 769.999991)">
                <g id="State" transform="translate(417.000000, 0.000009)">
                    <g id="16px/线性/通用/icon-direction-right" transform="translate(62.000000, 40.000000)">
                        <rect id="矩形" fill="#FFFFFF" opacity="0" x="0" y="0" width="16" height="16"></rect>
                        <g transform="translate(8.000000, 8.000006) rotate(-90.000000) translate(-8.000000, -8.000006) translate(2.000000, 2.000006)" fill="#333333" fill-rule="nonzero" id="Path">
                            <path d="M6.00415,-0.7 C6.35853271,-0.7 6.65140823,-0.436656377 6.69775983,-0.0949858535 L6.70415,0 L6.70415,11.94975 C6.70415,12.3363493 6.39074932,12.64975 6.00415,12.64975 C5.64976729,12.64975 5.35689177,12.3864064 5.31054017,12.0447359 L5.30415,11.94975 L5.30415,0 C5.30415,-0.386599325 5.61755068,-0.7 6.00415,-0.7 Z"></path>
                            <path d="M11.5050253,5.50502525 C11.7783923,5.23165825 12.2216077,5.23165825 12.4949747,5.50502525 C12.7410051,5.75105556 12.7656081,6.13466313 12.5687838,6.40820889 L12.4949747,6.49497475 L6.49497475,12.4949747 C6.24894444,12.7410051 5.86533687,12.7656081 5.59179111,12.5687838 L5.50502525,12.4949747 L-0.494974747,6.49497475 C-0.768341751,6.22160774 -0.768341751,5.77839226 -0.494974747,5.50502525 C-0.248944443,5.25899495 0.13466313,5.23439192 0.408208888,5.43121616 L0.494974747,5.50502525 L6,11.011 L11.5050253,5.50502525 Z"></path>
                        </g>
                    </g>
                </g>
            </g>
        </g>
    </g>
</svg>