<?xml version="1.0" encoding="UTF-8"?>
<svg width="16px" height="16px" viewBox="0 0 16 16" version="1.1" xmlns="http://www.w3.org/2000/svg" xmlns:xlink="http://www.w3.org/1999/xlink">
    <title>16px/线性/通用/icon-discovery</title>
    <g id="页面-1" stroke="none" stroke-width="1" fill="none" fill-rule="evenodd">
        <g id="Icons" transform="translate(-1234.000000, -1644.000000)">
            <g id="编组-8" transform="translate(60.000000, 1603.999991)">
                <g id="State" transform="translate(1112.000000, 0.000003)">
                    <g id="16px/线性/通用/icon-discovery" transform="translate(70.000000, 48.000006) scale(-1, 1) rotate(-90.000000) translate(-70.000000, -48.000006) translate(62.000000, 40.000006)">
                        <rect id="矩形" fill="#FFFFFF" opacity="0" x="0" y="-6.85982179e-14" width="16" height="16"></rect>
                        <g transform="translate(0.000000, -0.000000)" fill="#333333" fill-rule="nonzero">
                            <path d="M8,-6.85982179e-14 C12.4114286,-6.85982179e-14 16,3.57714286 16,8 C16,12.4228571 12.4228571,16 8,16 C3.57714286,16 0,12.4228571 0,8 C0,3.57714286 3.57714286,-6.85982179e-14 8,-6.85982179e-14 Z M8,1.4 C4.35034151,1.4 1.4,4.35034151 1.4,8 C1.4,11.6496585 4.35034151,14.6 8,14.6 C11.6496585,14.6 14.6,11.6496585 14.6,8 C14.6,4.35459567 11.6424876,1.4 8,1.4 Z" id="Path"></path>
                            <path d="M7.68695048,5.37390097 L3.68695048,7.37390097 C3.17101651,7.63186796 3.17101651,8.36813204 3.68695048,8.62609903 L7.68695048,10.626099 C7.88401973,10.7246337 8.11598027,10.7246337 8.31304952,10.626099 L12.3130495,8.62609903 C12.8289835,8.36813204 12.8289835,7.63186796 12.3130495,7.37390097 L8.31304952,5.37390097 C8.11598027,5.27536634 7.88401973,5.27536634 7.68695048,5.37390097 Z M8,6.783 L10.433,8 L8,9.216 L5.566,8 L8,6.783 Z" id="多边形" transform="translate(8.000000, 8.000000) rotate(-45.000000) translate(-8.000000, -8.000000) "></path>
                        </g>
                    </g>
                </g>
            </g>
        </g>
    </g>
</svg>