<?xml version="1.0" encoding="UTF-8"?>
<svg width="16px" height="16px" viewBox="0 0 16 16" version="1.1" xmlns="http://www.w3.org/2000/svg" xmlns:xlink="http://www.w3.org/1999/xlink">
    <title>16px/线性/通用/icon-download</title>
    <g id="页面-1" stroke="none" stroke-width="1" fill="none" fill-rule="evenodd">
        <g id="Icons" transform="translate(-1234.000000, -949.000000)">
            <g id="编组-6" transform="translate(60.000000, 908.999994)">
                <g id="State" transform="translate(1112.000000, 0.000006)">
                    <g id="16px/线性/通用/icon-download" transform="translate(62.000000, 40.000000)">
                        <polygon id="Path" fill="#FFFFFF" opacity="0" points="16 0 0 0 0 16 16 16"></polygon>
                        <g transform="translate(0.300000, 0.300000)" fill="#333333" fill-rule="nonzero" id="Path">
                            <path d="M14.7,7 C15.0543827,7 15.3472582,7.26334362 15.3936098,7.60501415 L15.4,7.7 L15.4,14.7 C15.4,15.0543827 15.1366564,15.3472582 14.7949859,15.3936098 L14.7,15.4 L0.7,15.4 C0.345617286,15.4 0.0527417698,15.1366564 0.00639017493,14.7949859 L0,14.7 L0,7.70322778 C0,7.31662845 0.313400675,7.00322778 0.7,7.00322778 C1.05438271,7.00322778 1.34725823,7.2665714 1.39360983,7.60824192 L1.4,7.70322778 L1.4,14 L14,14 L14,7.7 C14,7.34561729 14.2633436,7.05274177 14.6050141,7.00639017 L14.7,7 Z"></path>
                            <path d="M7.20502525,5.78835859 C7.45105556,5.54232828 7.83466313,5.51772525 8.10820889,5.7145495 L8.19497475,5.78835859 L11.9449747,9.53835859 C12.2183418,9.81172559 12.2183418,10.2549411 11.9449747,10.5283081 C11.6989444,10.7743384 11.3153369,10.7989414 11.0417911,10.6021172 L10.9550253,10.5283081 L7.7,7.273 L4.44497475,10.5283081 C4.19894444,10.7743384 3.81533687,10.7989414 3.54179111,10.6021172 L3.45502525,10.5283081 C3.20899495,10.2822778 3.18439192,9.8986702 3.38121616,9.62512445 L3.45502525,9.53835859 L7.20502525,5.78835859 Z" transform="translate(7.700000, 8.158333) scale(1, -1) translate(-7.700000, -8.158333) "></path>
                            <path d="M7.69654167,0 C8.05092438,0 8.3437999,0.263343623 8.39015149,0.605014146 L8.39654167,0.7 L8.39654167,9.53333333 C8.39654167,9.91993266 8.08314099,10.2333333 7.69654167,10.2333333 C7.34215895,10.2333333 7.04928344,9.96998971 7.00293184,9.62831919 L6.99654167,9.53333333 L6.99654167,0.7 C6.99654167,0.313400675 7.30994234,0 7.69654167,0 Z" transform="translate(7.696542, 5.116667) scale(1, -1) translate(-7.696542, -5.116667) "></path>
                        </g>
                    </g>
                </g>
            </g>
        </g>
    </g>
</svg>