<?xml version="1.0" encoding="UTF-8"?>
<svg width="16px" height="16px" viewBox="0 0 16 16" version="1.1" xmlns="http://www.w3.org/2000/svg" xmlns:xlink="http://www.w3.org/1999/xlink">
    <title>16px/线性/通用/icon-edit</title>
    <g id="页面-1" stroke="none" stroke-width="1" fill="none" fill-rule="evenodd">
        <g id="Icons" transform="translate(-539.000000, -949.000000)">
            <g id="编组-6" transform="translate(60.000000, 908.999994)">
                <g id="State" transform="translate(417.000000, 0.000003)">
                    <g id="16px/线性/通用/icon-edit" transform="translate(62.000000, 40.000003)">
                        <rect id="矩形" fill="#FFFFFF" opacity="0" x="0" y="0" width="16" height="16"></rect>
                        <g transform="translate(0.800000, 0.800000)" fill="#333333" fill-rule="nonzero">
                            <path d="M7.2,0 C7.58659932,0 7.9,0.313400675 7.9,0.7 C7.9,1.05438271 7.63665638,1.34725823 7.29498585,1.39360983 L7.2,1.4 L1.4,1.4 L1.4,13 L13,13 L13,7.2 C13,6.84561729 13.2633436,6.55274177 13.6050141,6.50639017 L13.7,6.5 C14.0543827,6.5 14.3472582,6.76334362 14.3936098,7.10501415 L14.4,7.2 L14.4,13.7 C14.4,14.0543827 14.1366564,14.3472582 13.7949859,14.3936098 L13.7,14.4 L0.7,14.4 C0.345617286,14.4 0.0527417698,14.1366564 0.00639017493,13.7949859 L0,13.7 L0,0.7 C0,0.345617286 0.263343623,0.0527417698 0.605014146,0.00639017493 L0.7,0 L7.2,0 Z" id="路径"></path>
                            <path d="M13.2050253,0.205025253 C13.4783923,-0.0683417511 13.9216077,-0.0683417511 14.1949747,0.205025253 C14.4410051,0.451055557 14.4656081,0.83466313 14.2687838,1.10820889 L14.1949747,1.19497475 L7.69497475,7.69497475 C7.42160774,7.96834175 6.97839226,7.96834175 6.70502525,7.69497475 C6.45899495,7.44894444 6.43439192,7.06533687 6.63121616,6.79179111 L6.70502525,6.70502525 L13.2050253,0.205025253 Z" id="路径-2"></path>
                        </g>
                    </g>
                </g>
            </g>
        </g>
    </g>
</svg>