<?xml version="1.0" encoding="UTF-8"?>
<svg width="16px" height="16px" viewBox="0 0 16 16" version="1.1" xmlns="http://www.w3.org/2000/svg" xmlns:xlink="http://www.w3.org/1999/xlink">
    <title>16px/线性/通用/icon-email</title>
    <g id="页面-1" stroke="none" stroke-width="1" fill="none" fill-rule="evenodd">
        <g id="Icons" transform="translate(-122.000000, -1505.000000)">
            <g id="编组-8" transform="translate(60.000000, 1464.999991)">
                <g id="State" transform="translate(0.000000, 0.000009)">
                    <g id="16px/线性/通用/icon-email" transform="translate(62.000000, 40.000000)">
                        <rect id="矩形" fill="#FFFFFF" opacity="0" x="0" y="0" width="16" height="16"></rect>
                        <g transform="translate(0.000000, 2.000000)" fill="#333333" fill-rule="nonzero">
                            <path d="M15,0 C15.5522847,0 16,0.44771525 16,1 L16,11 C16,11.5522847 15.5522847,12 15,12 L1,12 C0.44771525,12 0,11.5522847 0,11 L0,1 C0,0.44771525 0.44771525,0 1,0 L15,0 Z M14.6,1.4 L1.4,1.4 L1.4,10.6 L14.6,10.6 L14.6,1.4 Z" id="矩形"></path>
                            <path d="M14.6516816,2.39281425 C14.987021,2.2004435 15.4148146,2.31634252 15.6071854,2.65168196 C15.7820679,2.95653599 15.702182,3.33779844 15.4342665,3.54913041 L15.3483177,3.60718575 L8.34831804,7.62280396 C8.16340823,7.72887928 7.94215695,7.74403116 7.74686525,7.66826016 L7.65167113,7.62279775 L0.651960676,3.60717954 C0.316624673,3.41480282 0.200733279,2.98700713 0.393110001,2.65167113 C0.567997931,2.34682022 0.93744699,2.22332849 1.25511709,2.34793035 L1.34861842,2.39282046 L7.999,6.208 L14.6516816,2.39281425 Z" id="路径-7"></path>
                        </g>
                    </g>
                </g>
            </g>
        </g>
    </g>
</svg>