<?xml version="1.0" encoding="UTF-8"?>
<svg width="16px" height="16px" viewBox="0 0 16 16" version="1.1" xmlns="http://www.w3.org/2000/svg" xmlns:xlink="http://www.w3.org/1999/xlink">
    <title>16px/线性/通用/icon-error</title>
    <g id="页面-1" stroke="none" stroke-width="1" fill="none" fill-rule="evenodd">
        <g id="Icons" transform="translate(-678.000000, -1227.000000)">
            <g id="编组-8" transform="translate(60.000000, 1186.999991)">
                <g id="State" transform="translate(556.000000, 0.000003)">
                    <g id="16px/线性/通用/icon-error" transform="translate(62.000000, 40.000006)">
                        <polygon id="Path" fill="#FFFFFF" opacity="0" points="16 0 0 0 0 16 16 16"></polygon>
                        <g fill="#333333" fill-rule="nonzero">
                            <path d="M8,0 C12.4114286,0 16,3.57714286 16,8 C16,12.4228571 12.4228571,16 8,16 C3.57714286,16 0,12.4228571 0,8 C0,3.57714286 3.57714286,0 8,0 Z M8,1.4 C4.35034151,1.4 1.4,4.35034151 1.4,8 C1.4,11.6496585 4.35034151,14.6 8,14.6 C11.6496585,14.6 14.6,11.6496585 14.6,8 C14.6,4.35459567 11.6424876,1.4 8,1.4 Z" id="Path"></path>
                            <path d="M10.6640159,4.66960635 C10.9372947,4.39615109 11.3805101,4.39600798 11.6539654,4.6692867 C11.9000751,4.91523755 11.924802,5.29883716 11.7280661,5.57244646 L11.654285,5.65923615 L5.65815849,11.6592361 C5.38487977,11.9326914 4.94166431,11.9328345 4.66820905,11.6595558 C4.42209932,11.4136049 4.39737243,11.0300053 4.59410833,10.756396 L4.66788941,10.6696064 L10.6640159,4.66960635 Z" id="直线-2" transform="translate(8.161087, 8.164421) scale(-1, 1) translate(-8.161087, -8.164421) "></path>
                            <path d="M10.6640159,4.66960635 C10.9372947,4.39615109 11.3805101,4.39600798 11.6539654,4.6692867 C11.9000751,4.91523755 11.924802,5.29883716 11.7280661,5.57244646 L11.654285,5.65923615 L5.65815849,11.6592361 C5.38487977,11.9326914 4.94166431,11.9328345 4.66820905,11.6595558 C4.42209932,11.4136049 4.39737243,11.0300053 4.59410833,10.756396 L4.66788941,10.6696064 L10.6640159,4.66960635 Z" id="直线-2"></path>
                        </g>
                    </g>
                </g>
            </g>
        </g>
    </g>
</svg>