<?xml version="1.0" encoding="UTF-8"?>
<svg width="16px" height="16px" viewBox="0 0 16 16" version="1.1" xmlns="http://www.w3.org/2000/svg" xmlns:xlink="http://www.w3.org/1999/xlink">
    <title>16px/面性/通用/icon-error-filling</title>
    <g id="页面-1" stroke="none" stroke-width="1" fill="none" fill-rule="evenodd">
        <g id="Icons" transform="translate(-400.000000, -1922.000000)">
            <g id="编组-10" transform="translate(60.000000, 1881.999991)">
                <g id="State" transform="translate(278.000000, 0.000003)">
                    <g id="16px/面性/通用/icon-error-filling" transform="translate(62.000000, 40.000006)">
                        <polygon id="Path" fill="#FFFFFF" opacity="0" points="16 0 0 0 0 16 16 16"></polygon>
                        <g fill="#333333" fill-rule="nonzero" id="形状结合">
                            <path d="M8,0 C12.4114286,0 16,3.57714286 16,8 C16,12.4228571 12.4228571,16 8,16 C3.57714286,16 0,12.4228571 0,8 C0,3.57714286 3.57714286,0 8,0 Z M11.6539654,4.6692867 C11.3805101,4.39600798 10.9372947,4.39615109 10.6640159,4.66960635 L10.6640159,4.66960635 L8.16002395,7.17342125 L5.65815849,4.66960635 L5.57141647,4.59576925 C5.29793428,4.39885669 4.91431878,4.42333585 4.66820905,4.6692867 C4.42209932,4.91523755 4.39737243,5.29883716 4.59410833,5.57244646 L4.59410833,5.57244646 L4.66788941,5.65923615 L7.17102395,8.16342125 L4.66788941,10.6696064 L4.59410833,10.756396 C4.39737243,11.0300053 4.42209932,11.4136049 4.66820905,11.6595558 C4.94166431,11.9328345 5.38487977,11.9326914 5.65815849,11.6592361 L5.65815849,11.6592361 L8.16102395,9.15442125 L10.6640159,11.6592361 L10.750758,11.7330732 C11.0242402,11.9299858 11.4078557,11.9055066 11.6539654,11.6595558 C11.9000751,11.4136049 11.924802,11.0300053 11.7280661,10.756396 L11.7280661,10.756396 L11.654285,10.6696064 L9.15002395,8.16342125 L11.654285,5.65923615 L11.7280661,5.57244646 C11.924802,5.29883716 11.9000751,4.91523755 11.6539654,4.6692867 Z"></path>
                        </g>
                    </g>
                </g>
            </g>
        </g>
    </g>
</svg>