<?xml version="1.0" encoding="UTF-8"?>
<svg width="16px" height="16px" viewBox="0 0 16 16" version="1.1" xmlns="http://www.w3.org/2000/svg" xmlns:xlink="http://www.w3.org/1999/xlink">
    <title>16px/线性/通用/icon-exchange</title>
    <g id="页面-1" stroke="none" stroke-width="1" fill="none" fill-rule="evenodd">
        <g id="Icons" transform="translate(-400.000000, -1644.000000)">
            <g id="编组-8" transform="translate(60.000000, 1603.999991)">
                <g id="State" transform="translate(278.000000, 0.000000)">
                    <g id="16px/线性/通用/icon-exchange" transform="translate(62.000000, 40.000009)">
                        <rect id="矩形" fill="#FFFFFF" opacity="0" x="0" y="0" width="16" height="16"></rect>
                        <g transform="translate(8.000000, 7.997012) rotate(-90.000000) translate(-8.000000, -7.997012) translate(1.612988, 0.997012)" fill="#333333" fill-rule="nonzero" id="Path">
                            <path d="M8.8890873,-0.7 C9.24347001,-0.7 9.53634553,-0.436656377 9.58269712,-0.0949858535 L9.5890873,4.45199433e-14 L9.5890873,14 C9.5890873,14.3865993 9.27568662,14.7 8.8890873,14.7 C8.53470458,14.7 8.24182907,14.4366564 8.19547747,14.0949859 L8.1890873,14 L8.1890873,4.45199433e-14 C8.1890873,-0.386599325 8.50248797,-0.7 8.8890873,-0.7 Z"></path>
                            <path d="M12.2790498,-0.494974747 C12.5524169,-0.768341751 12.9956323,-0.768341751 13.2689993,-0.494974747 C13.5150296,-0.248944443 13.5396327,0.13466313 13.3428084,0.408208888 L13.2689993,0.494974747 L9.37991204,4.38406204 C9.10654504,4.65742905 8.66332955,4.65742905 8.38996255,4.38406204 C8.14393225,4.13803174 8.11932922,3.75442417 8.31615346,3.48087841 L8.38996255,3.39411255 L12.2790498,-0.494974747 Z" transform="translate(10.829481, 1.944544) scale(-1, 1) translate(-10.829481, -1.944544) "></path>
                            <path d="M3.8890873,-0.7 C4.24347001,-0.7 4.53634553,-0.436656377 4.58269712,-0.0949858535 L4.5890873,4.47419879e-14 L4.5890873,14 C4.5890873,14.3865993 4.27568662,14.7 3.8890873,14.7 C3.53470458,14.7 3.24182907,14.4366564 3.19547747,14.0949859 L3.1890873,14 L3.1890873,4.47419879e-14 C3.1890873,-0.386599325 3.50248797,-0.7 3.8890873,-0.7 Z"></path>
                            <path d="M3.39411255,9.61593796 C3.66747955,9.34257095 4.11069504,9.34257095 4.38406204,9.61593796 C4.63009235,9.86196826 4.65469538,10.2455758 4.45787113,10.5191216 L4.38406204,10.6058875 L0.494974747,14.4949747 C0.221607743,14.7683418 -0.221607743,14.7683418 -0.494974747,14.4949747 C-0.741005051,14.2489444 -0.765608081,13.8653369 -0.568783838,13.5917911 L-0.494974747,13.5050253 L3.39411255,9.61593796 Z" transform="translate(1.944544, 12.055456) scale(1, -1) translate(-1.944544, -12.055456) "></path>
                        </g>
                    </g>
                </g>
            </g>
        </g>
    </g>
</svg>