<?xml version="1.0" encoding="UTF-8"?>
<svg width="16px" height="16px" viewBox="0 0 16 16" version="1.1" xmlns="http://www.w3.org/2000/svg" xmlns:xlink="http://www.w3.org/1999/xlink">
    <title>16px/线性/通用/icon-eyes</title>
    <g id="页面-1" stroke="none" stroke-width="1" fill="none" fill-rule="evenodd">
        <g id="Icons" transform="translate(-400.000000, -1088.000000)" fill-rule="nonzero">
            <g id="编组-7" transform="translate(60.000000, 1047.999988)">
                <g id="State" transform="translate(278.000000, 0.000000)">
                    <g id="16px/线性/通用/icon-eyes" transform="translate(62.000000, 40.000012)">
                        <rect id="矩形" fill="#FFFFFF" opacity="0" x="0" y="0" width="16" height="16"></rect>
                        <g transform="translate(0.000000, 3.000000)" fill="#333333">
                            <path d="M8,0 C10.7506258,0 13.1862945,1.84543269 14.6742796,3.29387019 L14.9890861,3.60829887 C15.0388681,3.6593107 15.0872859,3.70955009 15.1343073,3.75890313 L15.3994214,4.04347367 L15.6294786,4.30130315 L15.8229358,4.52692307 C16.0590214,4.8014485 16.0590214,5.1985515 15.8229358,5.47307693 L15.6294786,5.69869685 L15.3994214,5.95652633 L15.1343073,6.24109687 C15.0872859,6.29044991 15.0388681,6.3406893 14.9890861,6.39170113 L14.6742796,6.70612981 C13.1862945,8.15456731 10.7506258,10 8,10 C5.24937417,10 2.81370549,8.15456731 1.3257204,6.70612981 L1.01091395,6.39170113 C0.961131883,6.3406893 0.912714087,6.29044991 0.865692705,6.24109687 L0.600578564,5.95652633 L0.370521382,5.69869685 L0.17706416,5.47307693 C-0.0590213868,5.1985515 -0.0590213868,4.8014485 0.17706416,4.52692307 L0.370521382,4.30130315 L0.600578564,4.04347367 L0.865692705,3.75890313 C0.912714087,3.70955009 0.961131883,3.6593107 1.01091395,3.60829887 L1.3257204,3.29387019 C2.81370549,1.84543269 5.24937417,0 8,0 Z M8,1.4 C5.78187189,1.4 3.51691072,2.90469486 1.659682,4.9568958 L1.621,5 L1.66773217,5.05257076 C3.44578847,7.01673844 5.60825917,8.48345833 7.74388062,8.59337736 L8,8.6 C10.2181281,8.6 12.4830893,7.09530514 14.340318,5.0431042 L14.378,4.999 L14.3322678,4.94742924 C12.5542115,2.98326156 10.3917408,1.51654167 8.25611938,1.40662264 L8,1.4 Z" id="路径"></path>
                            <path d="M8,2.5 C9.38071187,2.5 10.5,3.61928813 10.5,5 C10.5,6.38071187 9.38071187,7.5 8,7.5 C6.61928813,7.5 5.5,6.38071187 5.5,5 C5.5,3.61928813 6.61928813,2.5 8,2.5 Z M8,3.9 C7.39248678,3.9 6.9,4.39248678 6.9,5 C6.9,5.60751322 7.39248678,6.1 8,6.1 C8.60751322,6.1 9.1,5.60751322 9.1,5 C9.1,4.39248678 8.60751322,3.9 8,3.9 Z" id="椭圆形"></path>
                        </g>
                    </g>
                </g>
            </g>
        </g>
    </g>
</svg>