<?xml version="1.0" encoding="UTF-8"?>
<svg width="16px" height="16px" viewBox="0 0 16 16" version="1.1" xmlns="http://www.w3.org/2000/svg" xmlns:xlink="http://www.w3.org/1999/xlink">
    <title>16px/线性/通用/icon-eyes-closed</title>
    <g id="页面-1" stroke="none" stroke-width="1" fill="none" fill-rule="evenodd">
        <g id="Icons" transform="translate(-261.000000, -1366.000000)" fill-rule="nonzero">
            <g id="编组-8" transform="translate(60.000000, 1325.999991)">
                <g id="State" transform="translate(139.000000, 0.000006)">
                    <g id="16px/线性/通用/icon-eyes-closed" transform="translate(62.000000, 40.000003)">
                        <rect id="矩形" fill="#FFFFFF" opacity="0" x="0" y="0" width="16" height="16"></rect>
                        <g transform="translate(0.800000, 1.800000)" fill="#333333">
                            <path d="M5.0635189,2.34159432 C5.21840106,2.69581255 5.05680725,3.10851996 4.70258902,3.26340212 C3.28559368,3.88298429 1.99362009,4.90766083 0.936311116,6.03529435 L0.74,6.25 L0.89506585,6.42111614 C2.61520498,8.27858049 4.73768511,9.68369265 6.92612571,9.79312968 L7.2,9.8 C8.31601141,9.8 9.45550928,9.43932119 10.5923465,8.7818081 C10.9270034,8.58825243 11.3552043,8.70263758 11.54876,9.03729448 C11.7423156,9.37195138 11.6279305,9.80015227 11.2932736,9.99370794 C9.95826733,10.7658361 8.58660709,11.2 7.2,11.2 C4.31148359,11.2 1.70677873,9.44281667 -0.358220681,7.1234036 C-0.81392644,6.62293814 -0.81392644,5.87706186 -0.36345283,5.38240732 C0.855916887,4.01284666 2.3880663,2.74744682 4.1417111,1.98066444 C4.49592933,1.82578228 4.90863674,1.98737609 5.0635189,2.34159432 Z M7.2,1.3 C10.0885164,1.3 12.6932213,3.05718333 14.7582207,5.3765964 C15.2139264,5.87706186 15.2139264,6.62293814 14.7634528,7.11759268 C14.4129459,7.51127193 14.0039528,7.92674095 13.5427837,8.34074289 C13.2551011,8.59900201 12.8125279,8.57514958 12.5542688,8.287467 C12.2960097,7.99978442 12.3198621,7.55721123 12.6075447,7.29895212 C12.9226426,7.01608159 13.2110915,6.73236962 13.4717335,6.45534452 L13.659,6.249 L13.5049342,6.07888386 C11.784795,4.22141951 9.66231489,2.81630735 7.47387429,2.70687032 L7.2,2.7 C6.81340068,2.7 6.5,2.38659932 6.5,2 C6.5,1.61340068 6.81340068,1.3 7.2,1.3 Z" id="形状"></path>
                            <path d="M5.80845547,3.57219572 C6.1551822,3.40119978 6.57487935,3.54365773 6.7458753,3.89038446 C6.90132615,4.20559057 6.79772421,4.58110283 6.51710185,4.77524455 L6.42768656,4.82780428 C5.98556386,5.04584685 5.7,5.49573193 5.7,5.99725625 C5.7,6.71674176 6.28325824,7.3 7.00274375,7.3 C7.48573147,7.3 7.9197935,7.03489431 8.14544058,6.62379046 L8.20169355,6.50814093 C8.35349626,6.15259209 8.76478595,5.98742322 9.12033479,6.13922593 C9.47588362,6.29102864 9.64105249,6.70231833 9.48924978,7.05786717 C9.06757621,8.04550138 8.09532205,8.7 7.00274375,8.7 C5.51005959,8.7 4.3,7.48994041 4.3,5.99725625 C4.3,4.95758259 4.89270568,4.02381795 5.80845547,3.57219572 Z" id="路径"></path>
                            <path d="M2.20502525,0.205025253 C2.45105556,-0.0410050506 2.83466313,-0.065608081 3.10820889,0.131216162 L3.19497475,0.205025253 L13.8015765,10.811627 C14.0749435,11.084994 14.0749435,11.5282095 13.8015765,11.8015765 C13.5555462,12.0476068 13.1719386,12.0722098 12.8983928,11.8753856 L12.811627,11.8015765 L2.20502525,1.19497475 C1.93165825,0.921607743 1.93165825,0.478392257 2.20502525,0.205025253 Z" id="直线-8" transform="translate(8.003301, 6.003301) rotate(0.000000) translate(-8.003301, -6.003301) "></path>
                        </g>
                    </g>
                </g>
            </g>
        </g>
    </g>
</svg>