<?xml version="1.0" encoding="UTF-8"?>
<svg width="16px" height="16px" viewBox="0 0 16 16" version="1.1" xmlns="http://www.w3.org/2000/svg" xmlns:xlink="http://www.w3.org/1999/xlink">
    <title>16px/面性/通用/icon-favorite-filling</title>
    <g id="页面-1" stroke="none" stroke-width="1" fill="none" fill-rule="evenodd">
        <g id="Icons" transform="translate(-1234.000000, -1922.000000)">
            <g id="编组-10" transform="translate(60.000000, 1881.999991)">
                <g id="State" transform="translate(1112.000000, 0.000006)">
                    <g id="16px/面性/通用/icon-favorite-filling" transform="translate(62.000000, 40.000000)">
                        <rect id="矩形" fill="#FFFFFF" opacity="0" x="0" y="0" width="16" height="16"></rect>
                        <path d="M7.7687786,12.1401991 L4.18863524,14.0074671 C3.94379385,14.1351671 3.64178934,14.0402053 3.51408928,13.7953639 C3.46375635,13.6988597 3.44628775,13.5885673 3.46433579,13.4812327 L4.13388803,9.49929649 C4.16098442,9.33814984 4.10762641,9.17393078 3.99098534,9.05948726 L1.10878283,6.23158612 C0.911672709,6.03818961 0.90866224,5.72162143 1.10205876,5.52451131 C1.17828593,5.44682043 1.27778215,5.39612457 1.3854406,5.38012105 L5.37939,4.78641711 C5.54102282,4.76239026 5.68071589,4.6608973 5.75351408,4.51460006 L7.55235832,0.899593061 C7.67537896,0.652367389 7.9755229,0.551679317 8.22274857,0.674699958 C8.32019249,0.723188501 8.39915314,0.802149148 8.44764168,0.899593061 L10.2464859,4.51460006 C10.3192841,4.6608973 10.4589772,4.76239026 10.62061,4.78641711 L14.6145594,5.38012105 C14.8877005,5.4207237 15.0762101,5.67506323 15.0356074,5.94820428 C15.0196039,6.05586273 14.9689081,6.15535895 14.8912172,6.23158612 L12.0090147,9.05948726 C11.8923736,9.17393078 11.8390156,9.33814984 11.866112,9.49929649 L12.5356642,13.4812327 C12.581454,13.7535522 12.3978154,14.0114307 12.125496,14.0572206 C12.0181613,14.0752686 11.9078689,14.0578 11.8113648,14.0074671 L8.2312214,12.1401991 C8.08633507,12.0646318 7.91366493,12.0646318 7.7687786,12.1401991 Z" fill="#333333"></path>
                    </g>
                </g>
            </g>
        </g>
    </g>
</svg>