<?xml version="1.0" encoding="UTF-8"?>
<svg width="16px" height="16px" viewBox="0 0 16 16" version="1.1" xmlns="http://www.w3.org/2000/svg" xmlns:xlink="http://www.w3.org/1999/xlink">
    <title>16px/线性/通用/icon-file</title>
    <g id="页面-1" stroke="none" stroke-width="1" fill="none" fill-rule="evenodd">
        <g id="Icons" transform="translate(-1095.000000, -1366.000000)">
            <g id="编组-8" transform="translate(60.000000, 1325.999991)">
                <g id="State" transform="translate(973.000000, 0.000000)">
                    <g id="16px/线性/通用/icon-file" transform="translate(62.000000, 40.000002)">
                        <rect id="Rectangle" fill="#000000" opacity="0" transform="translate(8.000000, 7.999999) scale(1, -1) translate(-8.000000, -7.999999) " x="0" y="0" width="16" height="15.9999984"></rect>
                        <g transform="translate(1.300000, 0.700007)" fill="#333333" fill-rule="nonzero">
                            <path d="M12,-0.7 L3.70751723,-0.7 C3.34166843,-0.7 2.99580336,-0.533106344 2.76814868,-0.246717297 L-0.0393685527,3.28513258 C-0.208130613,3.49743484 -0.3,3.76064353 -0.3,4.03184988 L-0.3,13.6 C-0.3,14.5388841 0.461115925,15.3 1.4,15.3 L12,15.3 C12.9388841,15.3 13.7,14.5388841 13.7,13.6 L13.7,1 C13.7,0.0611159253 12.9388841,-0.7 12,-0.7 Z M1.1,4.101 L3.804,0.7 L12,0.7 C12.1656854,0.7 12.3,0.834314575 12.3,1 L12.3,13.6 C12.3,13.7656854 12.1656854,13.9 12,13.9 L1.4,13.9 C1.23431458,13.9 1.1,13.7656854 1.1,13.6 L1.1,4.101 Z" id="矩形"></path>
                            <path d="M5.19846891,4.54747351e-13 C5.55285163,4.54747351e-13 5.84572714,0.263343623 5.89207874,0.605014146 L5.89846891,0.7 L5.89846891,4.85397129 C5.89846891,5.208354 5.63512529,5.50122952 5.29345477,5.54758111 L5.19846891,5.55397129 L0.7,5.55397129 C0.313400675,5.55397129 0,5.24057061 0,4.85397129 C0,4.49958857 0.263343623,4.20671306 0.605014146,4.16036146 L0.7,4.15397129 L4.498,4.153 L4.49846891,0.7 C4.49846891,0.345617286 4.76181253,0.0527417698 5.10348306,0.00639017493 L5.19846891,4.54747351e-13 Z" id="路径-8"></path>
                        </g>
                    </g>
                </g>
            </g>
        </g>
    </g>
</svg>