<?xml version="1.0" encoding="UTF-8"?>
<svg width="16px" height="16px" viewBox="0 0 16 16" version="1.1" xmlns="http://www.w3.org/2000/svg" xmlns:xlink="http://www.w3.org/1999/xlink">
    <title>16px/线性/通用/icon-filter</title>
    <g id="页面-1" stroke="none" stroke-width="1" fill="none" fill-rule="evenodd">
        <g id="Icons" transform="translate(-122.000000, -1088.000000)">
            <g id="编组-7" transform="translate(60.000000, 1047.999988)">
                <g id="16px/线性/通用/icon-filter" transform="translate(62.000000, 40.000012)">
                    <rect id="矩形" x="0" y="0" width="16" height="16"></rect>
                    <path d="M13.0769231,0.0220679667 L2.92307692,0.0220679667 C1.95597864,0.0220679667 1.59888852,0.721437689 1.59888852,1.72124107 L1.59888852,3.09405414 L1.60834067,3.20870582 C1.62712068,3.32181402 1.67351135,3.42919583 1.74415663,3.52098801 L5.301,8.143 L5.30133679,13.0070241 C5.30133679,13.2559649 5.4335471,13.4861758 5.64856375,13.6116324 L9.54770065,15.8866763 L9.63642687,15.9306929 C10.0853347,16.1160884 10.6004737,15.7885863 10.6004737,15.282068 L10.6,8.148 L14.2453852,3.52762212 C14.3428274,3.4041107 14.3958228,3.25137566 14.3958228,3.09405414 L14.3958228,1.72124107 C14.3958228,0.717360893 14.0458984,0.0220679667 13.0769231,0.0220679667 Z M3.018,1.422 L12.976,1.422 C12.9884328,1.49526879 12.9958228,1.59451457 12.9958228,1.72124107 L12.995,2.851 L9.35091132,7.47122211 L9.29784798,7.5486387 C9.23439073,7.656011 9.20047369,7.77893287 9.20047369,7.90479009 L9.2,14.063 L6.701,12.604 L6.70133679,7.90479009 L6.69188464,7.7901384 C6.67310463,7.6770302 6.62671396,7.5696484 6.55606868,7.47785622 L2.998,2.855 L2.99888852,1.72124107 L3.0012566,1.60528842 C3.00431505,1.53406911 3.01013502,1.47516613 3.018,1.422 Z" fill="#333333" fill-rule="nonzero"></path>
                </g>
            </g>
        </g>
    </g>
</svg>