<?xml version="1.0" encoding="UTF-8"?>
<svg width="16px" height="17px" viewBox="0 0 16 17" version="1.1" xmlns="http://www.w3.org/2000/svg" xmlns:xlink="http://www.w3.org/1999/xlink">
    <title>16px/线性/通用/icon-finger</title>
    <g id="页面-1" stroke="none" stroke-width="1" fill="none" fill-rule="evenodd">
        <g id="Icons" transform="translate(-1373.000000, -1644.000000)">
            <g id="编组-8" transform="translate(60.000000, 1603.999991)">
                <g id="State" transform="translate(1251.000000, 0.000003)">
                    <g id="16px/线性/通用/icon-finger" transform="translate(62.000000, 40.000000)">
                        <rect id="矩形" fill="#FFFFFF" opacity="0" x="0" y="0" width="16" height="16"></rect>
                        <g transform="translate(1.008709, 0.746995)" fill="#333333" fill-rule="nonzero">
                            <path d="M4.29129143,-0.7 C5.37082337,-0.7 6.21503145,0.21992912 6.28640014,1.34532979 L6.29129143,1.5 L6.29129143,6.75300495 C6.29129143,7.13960428 5.97789076,7.45300495 5.59129143,7.45300495 C5.23690872,7.45300495 4.9440332,7.18966133 4.89768161,6.8479908 L4.89129143,6.75300495 L4.89129143,1.5 C4.89129143,1.03768603 4.5986302,0.7 4.29129143,0.7 C4.00956422,0.7 3.74017023,0.983750068 3.69722767,1.38714122 L3.69129143,1.5 L3.69129143,7.53152396 C3.69129143,7.91812328 3.37789076,8.23152396 2.99129143,8.23152396 C2.63690872,8.23152396 2.3440332,7.96818033 2.29768161,7.62650981 L2.29129143,7.53152396 L2.29129143,1.5 C2.29129143,0.305459719 3.16268986,-0.7 4.29129143,-0.7 Z" id="路径"></path>
                            <path d="M6.89129145,3.55300495 C7.9708234,3.55300495 8.81503147,4.47293407 8.88640017,5.59833474 L8.89129145,5.75300495 L8.89129145,6.75300495 C8.89129145,7.13960428 8.57789078,7.45300495 8.19129145,7.45300495 C7.83690874,7.45300495 7.54403322,7.18966133 7.49768163,6.8479908 L7.49129145,6.75300495 L7.49129145,5.75300495 C7.49129145,5.29069098 7.19863023,4.95300495 6.89129145,4.95300495 C6.60956425,4.95300495 6.34017025,5.23675502 6.29722769,5.64014617 L6.29129145,5.75300495 L6.29129145,6.75300495 C6.29129145,7.13960428 5.97789078,7.45300495 5.59129145,7.45300495 C5.23690874,7.45300495 4.94403322,7.18966133 4.89768163,6.8479908 L4.89129145,6.75300495 L4.89129145,5.75300495 C4.89129145,4.55846467 5.76268988,3.55300495 6.89129145,3.55300495 Z" id="路径"></path>
                            <path d="M9.49129145,3.55300495 C10.5708234,3.55300495 11.4150315,4.47293407 11.4864002,5.59833474 L11.4912915,5.75300495 L11.4912915,6.75300495 C11.4912915,7.13960428 11.1778908,7.45300495 10.7912915,7.45300495 C10.4369087,7.45300495 10.1440332,7.18966133 10.0976816,6.8479908 L10.0912915,6.75300495 L10.0912915,5.75300495 C10.0912915,5.29069098 9.79863023,4.95300495 9.49129145,4.95300495 C9.20956425,4.95300495 8.94017025,5.23675502 8.89722769,5.64014617 L8.89129145,5.75300495 L8.89129145,6.75300495 C8.89129145,7.13960428 8.57789078,7.45300495 8.19129145,7.45300495 C7.83690874,7.45300495 7.54403322,7.18966133 7.49768163,6.8479908 L7.49129145,6.75300495 L7.49129145,5.75300495 C7.49129145,4.55846467 8.36268988,3.55300495 9.49129145,3.55300495 Z" id="路径"></path>
                            <path d="M2.84057405,5.65292659 C3.96917563,5.65292659 4.84057405,6.65838631 4.84057405,7.85292659 C4.84057405,8.23952591 4.52717338,8.55292659 4.14057405,8.55292659 C3.78619134,8.55292659 3.49331582,8.28958296 3.44696423,7.94791244 L3.44057405,7.85292659 C3.44057405,7.39061262 3.14791283,7.05292659 2.84057405,7.05292659 C2.53323528,7.05292659 2.24057405,7.39061262 2.24057405,7.85292659 L2.26621819,13.8207025 L2.26697196,14.2199502 C2.26697196,14.6065496 1.95357129,14.9199502 1.56697196,14.9199502 C1.21258925,14.9199502 0.919713734,14.6566066 0.873362139,14.3149361 L0.866971964,14.2199502 L0.840774908,8.20864086 C0.840641488,8.08702704 0.840574053,7.96851643 0.840574053,7.85292659 C0.840574053,6.65838631 1.71197248,5.65292659 2.84057405,5.65292659 Z" id="路径" transform="translate(2.840574, 10.286438) rotate(-25.000000) translate(-2.840574, -10.286438) "></path>
                            <path d="M11.3458286,4.58168795 C12.4744302,4.58168795 13.3458286,5.58714767 13.3458286,6.78168795 L13.3443884,7.20092922 L13.3330668,8.08891641 L13.3000961,9.42639435 L13.1515488,13.5564736 L13.139667,14.1695068 C13.1393392,14.2122685 13.1391758,14.2531294 13.1391758,14.2922244 C13.1391758,14.6788237 12.8257752,14.9922244 12.4391758,14.9922244 C12.0525765,14.9922244 11.7391758,14.6788237 11.7391758,14.2922244 L11.7437453,13.8684445 L11.7718985,12.8964825 L11.8912627,9.68644639 L11.9236913,8.52719624 L11.940211,7.61966375 C11.9439283,7.32912872 11.9458286,7.05018647 11.9458286,6.78168795 C11.9458286,6.31937398 11.6531674,5.98168795 11.3458286,5.98168795 C11.2027985,5.98168795 11.0604353,6.05338592 10.9476248,6.18854411 L10.8837159,6.27718836 C10.6792591,6.6052988 10.2475281,6.70553989 9.91941762,6.50108311 C9.59130718,6.29662632 9.49106608,5.86489529 9.69552287,5.53678485 C10.0612908,4.94980367 10.6698278,4.58168795 11.3458286,4.58168795 Z" id="路径" transform="translate(11.467677, 9.786956) rotate(10.000000) translate(-11.467677, -9.786956) "></path>
                            <path d="M11.5894506,13.8182743 C11.97605,13.8182743 12.2894506,14.131675 12.2894506,14.5182743 C12.2894506,14.872657 12.026107,15.1655325 11.6844365,15.2118841 L11.5894506,15.2182743 L3.41497359,15.2182743 C3.02837426,15.2182743 2.71497359,14.9048736 2.71497359,14.5182743 C2.71497359,14.1638916 2.97831721,13.8710161 3.31998774,13.8246645 L3.41497359,13.8182743 L11.5894506,13.8182743 Z" id="路径-16"></path>
                        </g>
                    </g>
                </g>
            </g>
        </g>
    </g>
</svg>