<?xml version="1.0" encoding="UTF-8"?>
<svg width="14px" height="16px" viewBox="0 0 14 16" version="1.1" xmlns="http://www.w3.org/2000/svg" xmlns:xlink="http://www.w3.org/1999/xlink">
    <!-- <title>路径</title> -->
    <g id="页面-1" stroke="none" stroke-width="1" fill="none" fill-rule="evenodd">
        <g id="教育专题_风险预警_教育舆情预警" transform="translate(-605.000000, -169.000000)" fill="#D54C4C" fill-rule="nonzero">
            <g id="舆情信息" transform="translate(60.000000, 160.000000)">
                <g id="2" transform="translate(283.000000, 0.000000)">
                    <g id="热度" transform="translate(261.000000, 9.000000)">
                        <path d="M5.65196598,16 C5.65196598,16 3.22243677,13.8883897 6.53544309,9.35714666 C6.53544309,9.35714666 7.27167402,10.0550617 7.4189202,10.6703842 C7.4189202,10.6703842 8.89136017,9.57142401 8.59686779,6.7142933 C8.59686779,6.7142933 13.6031943,10 11.1736432,16 C11.1736432,16 18.7567451,13.8883897 12.572471,4.71429329 C12.572471,4.71429329 12.4252248,6 11.9834862,6.42857597 C11.9834862,6.42857597 11.5417477,2.14285865 5.43110762,0 C5.43110762,0 7.73793533,4.40476266 4.10591386,7.64286396 C4.10591386,7.64286396 3.68871999,6.66666665 3.09973524,5.80953593 C3.09973524,5.80953593 2.91559541,7.86047647 1.60257545,8.9632816 C0.793411151,9.64286399 -0.139637011,15.1428693 5.65196598,16 Z" id="路径"></path>
                    </g>
                </g>
            </g>
        </g>
    </g>
</svg>