<?xml version="1.0" encoding="UTF-8"?>
<svg width="16px" height="16px" viewBox="0 0 16 16" version="1.1" xmlns="http://www.w3.org/2000/svg" xmlns:xlink="http://www.w3.org/1999/xlink">
    <title>16px/线性/通用/icon-folder</title>
    <g id="页面-1" stroke="none" stroke-width="1" fill="none" fill-rule="evenodd">
        <g id="Icons" transform="translate(-539.000000, -1644.000000)">
            <g id="编组-8" transform="translate(60.000000, 1603.999991)">
                <g id="State" transform="translate(417.000000, 0.000000)">
                    <g id="16px/线性/通用/icon-folder" transform="translate(62.000000, 40.000000)">
                        <rect id="矩形" fill="#FFFFFF" opacity="0" x="0" y="0" width="16" height="16"></rect>
                        <g transform="translate(0.080000, 0.300009)" fill="#333333" fill-rule="nonzero">
                            <path d="M5.67950284,0 C5.88758087,0 6.08292557,0.0924056329 6.2147822,0.248898795 L6.27518487,0.332354901 L7.304,2 L13.7,2 C14.5894691,2 15.3193901,2.68310681 15.39376,3.55331749 L15.4,3.7 L15.4,6.47977164 L14,6.47977164 L14,3.7 C14,3.55798392 13.9013199,3.43901581 13.7687872,3.40792321 L13.7,3.4 L6.91386977,3.4 C6.70579175,3.4 6.51044705,3.30759437 6.37859041,3.15110121 L6.31818774,3.0676451 L5.289,1.4 L1.7,1.4 C1.55798392,1.4 1.43901581,1.4986801 1.40792321,1.63121275 L1.4,1.7 L1.4,13.3862843 C1.4,13.5283003 1.4986801,13.6472684 1.63121275,13.678361 L1.7,13.6862843 L12.2124226,13.6862843 L12.2124226,15.0862843 L1.7,15.0862843 C0.810530877,15.0862843 0.0806098984,14.4031774 0.00624001457,13.5329668 L0,13.3862843 L0,1.7 C0,0.810530877 0.683106814,0.0806098984 1.55331749,0.00624001457 L1.7,0 L5.67950284,0 Z" id="路径"></path>
                            <path d="M14.1498614,5.125 L4.01557895,5.125 C3.21299712,5.125 2.51974939,5.68630271 2.35277623,6.47132344 L0.957197279,13.0326077 C0.932467292,13.1488752 0.92,13.2674158 0.92,13.3862843 C0.92,14.3251683 1.68111593,15.0862843 2.62,15.0862843 L12.7542825,15.0862843 C13.5568643,15.0862843 14.250112,14.5249816 14.4170852,13.7399608 L15.8126642,7.17867656 C15.8373941,7.06240906 15.8498614,6.94386843 15.8498614,6.825 C15.8498614,5.88611593 15.0887455,5.125 14.1498614,5.125 Z M4.01557895,6.525 L14.1498614,6.525 C14.3155469,6.525 14.4498614,6.65931458 14.4498614,6.825 C14.4498614,6.84597678 14.4476613,6.86689572 14.4432972,6.88741351 L13.0477183,13.4486978 C13.0182524,13.5872308 12.8959146,13.6862843 12.7542825,13.6862843 L2.62,13.6862843 C2.45431458,13.6862843 2.32,13.5519697 2.32,13.3862843 C2.32,13.3653075 2.32220011,13.3443885 2.32656423,13.3238707 L3.72214317,6.76258649 C3.75160902,6.62405342 3.87394686,6.525 4.01557895,6.525 Z" id="矩形"></path>
                        </g>
                    </g>
                </g>
            </g>
        </g>
    </g>
</svg>