<?xml version="1.0" encoding="UTF-8"?>
<svg width="16px" height="16px" viewBox="0 0 16 16" version="1.1" xmlns="http://www.w3.org/2000/svg" xmlns:xlink="http://www.w3.org/1999/xlink">
    <title>16px/线性/通用/icon-fullscreen</title>
    <g id="页面-1" stroke="none" stroke-width="1" fill="none" fill-rule="evenodd">
        <g id="Icons" transform="translate(-1373.000000, -1227.000000)">
            <g id="编组-8" transform="translate(60.000000, 1186.999991)">
                <g id="State" transform="translate(1251.000000, 0.000003)">
                    <g id="16px/线性/通用/icon-fullscreen" transform="translate(62.000000, 40.000000)">
                        <rect id="矩形" fill="#FFFFFF" opacity="0" x="0" y="0" width="16" height="16"></rect>
                        <g id="16px/线性/通用/icon-fullscreen-expand" transform="translate(0.300000, 0.300006)" fill="#333333" fill-rule="nonzero">
                            <path d="M13.8919094,0 C14.6722023,0 15.319595,0.586750907 15.3930589,1.34433688 L15.4,1.48828468 L15.4,4.7 C15.4,5.08659932 15.0865993,5.4 14.7,5.4 C14.3456173,5.4 14.0527418,5.13665638 14.0063902,4.79498585 L14,4.7 L14,1.48828468 C14,1.4546717 13.9749353,1.42181806 13.9356008,1.40749205 L13.8919094,1.4 L10.7,1.4 C10.3134007,1.4 10,1.08659932 10,0.7 C10,0.345617286 10.2633436,0.0527417698 10.6050141,0.00639017493 L10.7,0 L13.8919094,0 Z M14.7,10 C15.0543827,10 15.3472582,10.2633436 15.3936098,10.6050141 L15.4,10.7 L15.4,13.8945211 C15.4,14.679403 14.7999694,15.3245802 14.0334871,15.3938441 L13.8965859,15.4 L10.7,15.4 C10.3134007,15.4 10,15.0865993 10,14.7 C10,14.3456173 10.2633436,14.0527418 10.6050141,14.0063902 L10.7,14 L13.8965859,14 C13.9391193,14 13.976023,13.9736621 13.9918166,13.9357477 L14,13.8945211 L14,10.7 C14,10.3134007 14.3134007,10 14.7,10 Z M0.7,10 C1.05438271,10 1.34725823,10.2633436 1.39360983,10.6050141 L1.4,10.7 L1.4,13.8937764 C1.4,13.9385733 1.4259755,13.9759256 1.46198527,13.991802 L1.50074938,14 L4.7,14 C5.08659932,14 5.4,14.3134007 5.4,14.7 C5.4,15.0543827 5.13665638,15.3472582 4.79498585,15.3936098 L4.7,15.4 L1.50074938,15.4 C0.716943017,15.4 0.0750283927,14.7975395 0.00612370099,14.0307153 L0,13.8937764 L0,10.7 C0,10.3134007 0.313400675,10 0.7,10 Z M4.7,0 C5.08659932,0 5.4,0.313400675 5.4,0.7 C5.4,1.05438271 5.13665638,1.34725823 4.79498585,1.39360983 L4.7,1.4 L1.50219963,1.4 C1.45854176,1.4 1.4228834,1.42446465 1.40778284,1.45764476 L1.4,1.49314672 L1.4,4.7 C1.4,5.08659932 1.08659932,5.4 0.7,5.4 C0.345617286,5.4 0.0527417698,5.13665638 0.00639017493,4.79498585 L0,4.7 L0,1.49314672 C0,0.715328671 0.59732584,0.0789897166 1.35780403,0.00681772213 L1.50219963,0 L4.7,0 Z" id="形状"></path>
                            <path d="M11.7,3.69999395 C12.2522847,3.69999395 12.7,4.1477092 12.7,4.69999395 L12.7,10.6999939 C12.7,11.2522787 12.2522847,11.6999939 11.7,11.6999939 L3.69999998,11.6999939 C3.14771523,11.6999939 2.69999998,11.2522787 2.69999998,10.6999939 L2.69999998,4.69999395 C2.69999998,4.1477092 3.14771523,3.69999395 3.69999998,3.69999395 L11.7,3.69999395 Z M11.299,5.099 L4.099,5.099 L4.099,10.299 L11.299,10.299 L11.299,5.099 Z" id="矩形"></path>
                        </g>
                    </g>
                </g>
            </g>
        </g>
    </g>
</svg>