<?xml version="1.0" encoding="UTF-8"?>
<svg width="18px" height="18px" viewBox="0 0 18 18" version="1.1" xmlns="http://www.w3.org/2000/svg" xmlns:xlink="http://www.w3.org/1999/xlink">
    <title>icon-全屏</title>
    <g id="页面-1" stroke="none" stroke-width="1" fill="none" fill-rule="evenodd">
        <g id="监测预警-加油站详情页（三级页面）" transform="translate(-333.000000, -192.000000)">
            <g id="编组-14" transform="translate(0.000000, 148.000000)">
                <g id="icon-全屏" transform="translate(333.000000, 44.000000)">
                    <rect id="矩形" fill-opacity="0.5" fill="#000000" x="0" y="0" width="18" height="18" rx="1.125"></rect>
                    <g id="编组" transform="translate(3.937500, 3.937500)" fill="#FFFFFF" fill-rule="nonzero">
                        <path d="M0.168750003,0.0281249956 C0.112500002,0.0281249956 0.0843749967,0.0562500011 0.0562500011,0.0843749967 C0.0281249956,0.112500002 0,0.140624998 0,0.196874999 L0,3.796875 C0,3.825 0,3.853125 0.0281249956,3.853125 L0.0843749967,3.853125 L1.29375,2.64375 L2.925,4.275 C2.95312499,4.303125 3.00937499,4.33125 3.0375,4.33125 C3.09375,4.33125 3.121875,4.303125 3.15,4.275 L4.246875,3.178125 C4.27499999,3.15 4.303125,3.09375 4.303125,3.065625 C4.303125,3.00937499 4.275,2.98125 4.246875,2.953125 L2.671875,1.265625 L3.853125,0.0843749967 C3.88125,0.0562500011 3.88125,0.0562500011 3.853125,0.0281249956 C3.853125,0 3.82500001,0 3.825,0 L0.168750003,0.0281249956 Z M0.168750003,10.125 C0.112500002,10.125 0.0843750066,10.096875 0.0562500011,10.06875 C0.0281250055,10.040625 0,9.984375 0,9.95625 L0,6.328125 C0,6.3 0,6.271875 0.0281249956,6.271875 L0.0843749967,6.271875 L1.29375,7.48125 L2.925,5.85 C2.95312499,5.821875 3.00937499,5.79375 3.0375,5.79375 C3.09375,5.79375 3.121875,5.821875 3.15,5.85 L4.246875,6.946875 C4.27499999,6.975 4.303125,7.03125 4.303125,7.059375 C4.303125,7.08750001 4.275,7.14375 4.246875,7.171875 L2.615625,8.803125 L3.796875,9.984375 C3.825,10.0125 3.825,10.0125 3.796875,10.040625 C3.796875,10.06875 3.76875,10.06875 3.740625,10.06875 L0.168750003,10.125 Z M10.06875,0.0843749967 C10.096875,0.112499992 10.125,0.140624998 10.125,0.196874999 L10.125,3.796875 C10.125,3.825 10.125,3.853125 10.096875,3.853125 L10.040625,3.853125 L8.83125,2.64375 L7.2,4.275 C7.17187501,4.303125 7.11562501,4.33125 7.0875,4.33125 C7.03125,4.33125 7.003125,4.303125 6.975,4.275 L5.878125,3.178125 C5.85000001,3.15 5.821875,3.09375 5.821875,3.065625 C5.821875,3.00937499 5.85,2.98125 5.878125,2.953125 L7.509375,1.321875 L6.328125,0.140624998 C6.3,0.112500002 6.3,0.112500002 6.328125,0.0843749967 C6.271875,0 6.3,0 6.3,0 L9.95625,0.0281249956 C10.0125,0.0281249956 10.040625,0.0562499912 10.06875,0.0843749967 Z M10.06875,10.06875 C10.096875,10.040625 10.125,9.984375 10.125,9.95625 L10.125,6.328125 C10.125,6.3 10.125,6.271875 10.096875,6.271875 L10.040625,6.271875 L8.83125,7.48125 L7.2,5.85 C7.17187501,5.821875 7.11562501,5.79375 7.0875,5.79375 C7.03125,5.79375 7.003125,5.821875 6.975,5.85 L5.878125,6.946875 C5.85000001,6.975 5.821875,7.03125 5.821875,7.059375 C5.821875,7.08750001 5.85,7.14375 5.878125,7.171875 L7.509375,8.803125 L6.328125,9.984375 C6.3,10.0125 6.3,10.0125 6.328125,10.040625 C6.328125,10.06875 6.35625,10.06875 6.384375,10.06875 L9.95625,10.125 C10.0125,10.125 10.040625,10.096875 10.06875,10.06875 Z" id="形状"></path>
                    </g>
                </g>
            </g>
        </g>
    </g>
</svg>