<?xml version="1.0" encoding="UTF-8"?>
<svg width="16px" height="16px" viewBox="0 0 16 16" version="1.1" xmlns="http://www.w3.org/2000/svg" xmlns:xlink="http://www.w3.org/1999/xlink">
    <title>16px/线性/通用/icon-help</title>
    <g id="页面-1" stroke="none" stroke-width="1" fill="none" fill-rule="evenodd">
        <g id="Icons" transform="translate(-817.000000, -1227.000000)">
            <g id="编组-8" transform="translate(60.000000, 1186.999991)">
                <g id="State" transform="translate(695.000000, 0.000006)">
                    <g id="16px/线性/通用/icon-help" transform="translate(62.000000, 40.000000)">
                        <rect id="矩形" fill="#FFFFFF" opacity="0" x="0" y="0" width="16" height="16"></rect>
                        <g fill="#333333">
                            <path d="M8,0 C12.4114286,0 16,3.57714286 16,8 C16,12.339407 12.5565702,15.8647124 8.24942884,15.996198 L8,16 C3.57714286,16 0,12.4228571 0,8 C0,3.66059299 3.44342979,0.135287596 7.75057116,0.00380202641 L8,0 Z M8,1.14285714 C4.21714286,1.14285714 1.14285714,4.21714286 1.14285714,8 C1.14285714,11.7828571 4.21714286,14.8571429 8,14.8571429 C11.7828571,14.8571429 14.8571429,11.7828571 14.8571429,8 C14.8571429,4.21714286 11.7828571,1.14285714 8,1.14285714 Z" id="Shape" fill-rule="nonzero"></path>
                            <path d="M8.17406649,3.30000306 C9.32135856,3.30000306 10.0823367,3.87345243 10.4185995,4.78198559 C10.6158552,5.31494164 10.6442318,5.90681014 10.5850136,6.29435921 C10.4766414,7.00359322 9.98930108,7.53927725 9.28641843,7.95964804 C9.13836661,8.04819293 8.98674139,8.12747104 8.83478659,8.19807829 L8.78,8.222 L8.78079161,8.68378953 C8.78079161,9.03817225 8.51744799,9.33104776 8.17577747,9.37739936 L8.08079161,9.38378953 C7.7264089,9.38378953 7.43353338,9.12044591 7.38718179,8.77877539 L7.38079161,8.68378953 L7.38079161,7.74699583 L7.38802955,7.64590144 C7.42146703,7.4150818 7.56837038,7.21550496 7.77882488,7.11498297 L8.07605525,7.00215162 C8.24245004,6.93395033 8.41091979,6.85197901 8.56783299,6.75813443 C8.94778157,6.53089978 9.16993263,6.28671157 9.20107671,6.0828913 C9.22730804,5.9112222 9.20998204,5.54984208 9.10564263,5.26793224 C8.96584046,4.89020717 8.71343601,4.70000306 8.17406649,4.70000306 C7.28606998,4.70000306 7,5.09271318 7,5.54705409 C7,5.93365342 6.68659932,6.24705409 6.3,6.24705409 C5.91340068,6.24705409 5.6,5.93365342 5.6,5.54705409 C5.6,4.39792741 6.39978381,3.30000306 8.17406649,3.30000306 Z" id="路径-5" fill-rule="nonzero"></path>
                            <circle id="椭圆形" cx="8" cy="11.5000031" r="1"></circle>
                        </g>
                    </g>
                </g>
            </g>
        </g>
    </g>
</svg>