<?xml version="1.0" encoding="UTF-8"?>
<svg width="16px" height="16px" viewBox="0 0 16 16" version="1.1" xmlns="http://www.w3.org/2000/svg" xmlns:xlink="http://www.w3.org/1999/xlink">
    <title>16px/线性/通用/icon-hidden</title>
    <g id="页面-1" stroke="none" stroke-width="1" fill="none" fill-rule="evenodd">
        <g id="Icons" transform="translate(-400.000000, -1366.000000)">
            <g id="编组-8" transform="translate(60.000000, 1325.999991)">
                <g id="State" transform="translate(278.000000, 0.000000)">
                    <g id="16px/线性/通用/icon-hidden" transform="translate(62.000000, 40.000000)">
                        <rect id="矩形" fill="#FFFFFF" opacity="0" x="0" y="0" width="16" height="16"></rect>
                        <g transform="translate(0.959358, 5.800009)" fill="#333333" fill-rule="nonzero">
                            <path d="M13.5584739,-0.465477286 C13.8155499,-0.754217593 14.2580215,-0.77988658 14.5467618,-0.522810574 C14.8355021,-0.265734568 14.8611711,0.176736979 14.6040951,0.465477286 C12.5338635,2.79070128 9.92915867,4.54788461 7.04064226,4.54788461 C4.15212584,4.54788461 1.54742099,2.79070128 -0.522810574,0.465477286 C-0.77988658,0.176736979 -0.754217593,-0.265734568 -0.465477286,-0.522810574 C-0.176736979,-0.77988658 0.265734568,-0.754217593 0.522810574,-0.465477286 C2.34933951,1.58602699 4.6645095,3.14788461 7.04064226,3.14788461 C9.41677501,3.14788461 11.731945,1.58602699 13.5584739,-0.465477286 Z" id="路径"></path>
                            <path d="M11.7478309,1.70501739 C11.9938606,1.45898647 12.3774681,1.43438249 12.6510144,1.63120606 L12.7377804,1.70501494 L14.576258,3.54348348 C14.8496257,3.8168498 14.8496268,4.26006529 14.5762605,4.53343297 C14.3302308,4.77946388 13.9466233,4.80406786 13.673077,4.60724429 L13.586311,4.53343542 L11.7478334,2.69496688 C11.4744657,2.42160055 11.4744646,1.97838507 11.7478309,1.70501739 Z" id="直线-9"></path>
                            <path d="M-0.454333734,1.70501738 C-0.208304037,1.45898647 0.175303476,1.43438249 0.448849719,1.63120606 L0.53561576,1.70501494 L2.37409337,3.54348348 C2.64746105,3.81684981 2.64746214,4.26006529 2.37409581,4.53343297 C2.12806611,4.77946388 1.7444586,4.80406786 1.47091236,4.60724429 L1.38414632,4.53343541 L-0.454331292,2.69496688 C-0.727698971,2.42160055 -0.727700064,1.97838506 -0.454333734,1.70501738 Z" id="直线-9" transform="translate(0.959881, 3.119225) rotate(270.000000) translate(-0.959881, -3.119225) "></path>
                            <path d="M8.15598479,4.17545095 C8.40201509,3.92942065 8.78562267,3.90481762 9.05916842,4.10164186 L9.14593428,4.17545095 L10.9844119,6.01392858 C11.2577789,6.28729559 11.2577789,6.73051107 10.9844119,7.00387808 C10.7383816,7.24990838 10.354774,7.27451141 10.0812283,7.07768717 L9.99446242,7.00387808 L8.15598479,5.16540044 C7.88261779,4.89203344 7.88261779,4.44881796 8.15598479,4.17545095 Z" id="直线-9" transform="translate(9.570198, 5.589665) rotate(30.000000) translate(-9.570198, -5.589665) "></path>
                            <path d="M3.15599204,4.175459 C3.40202173,3.92942809 3.78562925,3.90482411 4.05917549,4.10164768 L4.14594153,4.17545656 L5.98441914,6.0139251 C6.25778682,6.28729143 6.25778791,6.73050691 5.98442158,7.00387459 C5.73839189,7.2499055 5.35478437,7.27450948 5.08123813,7.07768591 L4.99447209,7.00387703 L3.15599448,5.16540849 C2.8826268,4.89204216 2.88262571,4.44882668 3.15599204,4.175459 Z" id="直线-9" transform="translate(4.570207, 5.589667) rotate(240.000000) translate(-4.570207, -5.589667) "></path>
                        </g>
                    </g>
                </g>
            </g>
        </g>
    </g>
</svg>