<?xml version="1.0" encoding="UTF-8"?>
<svg width="16px" height="16px" viewBox="0 0 16 16" version="1.1" xmlns="http://www.w3.org/2000/svg" xmlns:xlink="http://www.w3.org/1999/xlink">
    <title>16px/面性/通用/icon-history-filling</title>
    <g id="页面-1" stroke="none" stroke-width="1" fill="none" fill-rule="evenodd">
        <g id="Icons" transform="translate(-1095.000000, -1783.000000)" fill-rule="nonzero">
            <g id="编组-9" transform="translate(60.000000, 1742.999988)">
                <g id="State" transform="translate(973.000000, 0.000000)">
                    <g id="16px/面性/通用/icon-history-filling" transform="translate(62.000000, 40.000012)">
                        <rect id="矩形" fill="#000000" opacity="0" x="0" y="0" width="16" height="16"></rect>
                        <g transform="translate(1.000000, 0.000000)" fill="#333333" id="形状">
                            <path d="M11.5822785,0 C12.3037975,0 12.8734177,0.578313253 12.9113924,1.27228916 L12.9113924,6.59277109 C12.1898734,6.20722892 11.3164557,5.97590362 10.443038,5.9759036 C7.51898734,5.9759036 5.12658228,8.40481927 5.12658228,11.373494 C5.12658228,13.2240964 6.03797468,14.8433735 7.40506329,15.8072289 L1.32911393,15.8072289 C0.607594948,15.8072289 0.0379746954,15.2289157 0,14.5349398 L0,1.34939758 C0,0.616867464 0.569620253,0.0385542109 1.25316456,0 L11.5822785,0 Z M4.36708862,6.55421686 L2.43037976,6.55421686 C2.12658228,6.59277107 1.89873418,6.82409637 1.89873418,7.13253011 C1.89873418,7.44096385 2.12658228,7.67228915 2.43037976,7.71084336 L4.4050633,7.71084336 C4.70886077,7.67228915 4.93670887,7.44096385 4.93670887,7.13253011 C4.93670887,6.82409637 4.67088609,6.55421686 4.36708862,6.55421686 Z M10.0632911,3.46987952 L2.43037976,3.46987952 C2.12658228,3.50843373 1.89873418,3.73975903 1.89873418,4.04819277 C1.89873418,4.35662651 2.12658228,4.58795181 2.43037976,4.62650603 L10.1012658,4.62650603 C10.4050633,4.58795181 10.6329114,4.35662651 10.6329114,4.04819277 C10.6329114,3.73975903 10.3670886,3.46987952 10.0632911,3.46987952 Z"></path>
                            <path d="M10.6329114,7.13253011 C13.0632911,7.13253011 15,9.09879517 15,11.5662651 C15,14.033735 13.0632911,16 10.6329114,16 C8.20253166,16 6.26582278,14.0337349 6.26582278,11.5662651 C6.26582278,9.09879519 8.20253164,7.13253011 10.6329114,7.13253011 Z M10.6329114,9.06024096 C10.3291139,9.06024096 10.0632911,9.33012047 10.0632911,9.63855421 L10.0632911,11.6819277 C10.1012658,11.8746988 10.2151899,12.0674699 10.4050633,12.1445783 L11.9240506,12.8385542 L11.9620253,12.8771084 C12.2278481,12.9542169 12.5316456,12.8385542 12.6455696,12.5686747 L12.6835443,12.5301205 C12.7594937,12.260241 12.6455696,11.9518072 12.3797468,11.8361446 L11.2025317,11.2963855 L11.2025317,9.6 C11.164557,9.29156626 10.9367089,9.06024096 10.6329114,9.06024096 Z"></path>
                        </g>
                    </g>
                </g>
            </g>
        </g>
    </g>
</svg>