<?xml version="1.0" encoding="UTF-8"?>
<svg width="16px" height="16px" viewBox="0 0 16 16" version="1.1" xmlns="http://www.w3.org/2000/svg" xmlns:xlink="http://www.w3.org/1999/xlink">
    <title>16px/线性/通用/icon-home</title>
    <g id="页面-1" stroke="none" stroke-width="1" fill="none" fill-rule="evenodd">
        <g id="Icons" transform="translate(-539.000000, -1366.000000)">
            <g id="编组-8" transform="translate(60.000000, 1325.999991)">
                <g id="State" transform="translate(417.000000, 0.000000)">
                    <g id="16px/线性/通用/icon-home" transform="translate(62.000000, 40.000009)">
                        <rect id="矩形" fill="#FFFFFF" opacity="0" x="0" y="0" width="16" height="16"></rect>
                        <g transform="translate(0.000000, 0.600009)" fill="#333333" fill-rule="nonzero" id="三角形">
                            <path d="M7.20979447,-0.23870792 L0.540519171,5.59690797 C0.280101219,5.82477367 0.130724701,6.1539649 0.130724701,6.5 L0.136920166,6.62269303 C0.198372158,7.22780032 0.709404357,7.7 1.3307247,7.7 L2.146,7.7 L2.14618639,14.6966097 C2.14618639,15.083209 2.45958707,15.3966097 2.84618639,15.3966097 L6.32789952,15.3966097 L6.42288537,15.3902195 C6.76455589,15.3438679 7.02789952,15.0509924 7.02789952,14.6966097 L7.027,10.799 L8.97,10.799 L8.97,14.6966097 C8.97,15.083209 9.28340068,15.3966097 9.67,15.3966097 L13.15,15.3966097 L13.2449859,15.3902195 C13.5866564,15.3438679 13.85,15.0509924 13.85,14.6966097 L13.85,7.7 L14.6692753,7.7 C15.0153104,7.7 15.3445016,7.55062348 15.5723673,7.29020553 C16.0087858,6.79144157 15.9582448,6.03332643 15.4594808,5.59690797 L8.79020553,-0.23870792 C8.33777434,-0.634585209 7.66222566,-0.634585209 7.20979447,-0.23870792 Z M8,0.929 L14.137,6.3 L13.15,6.3 L13.0550141,6.30639017 C12.7133436,6.35274177 12.45,6.64561729 12.45,7 L12.45,13.996 L10.37,13.996 L10.37,10.1 C10.37,9.71340068 10.0565993,9.4 9.67,9.4 L6.32789952,9.4 L6.23291366,9.40639017 C5.89124314,9.45274177 5.62789952,9.74561729 5.62789952,10.1 L5.627,13.996 L3.546,13.996 L3.54618639,7 L3.53979622,6.90501415 C3.49344462,6.56334362 3.20056911,6.3 2.84618639,6.3 L1.862,6.3 L8,0.929 Z"></path>
                        </g>
                    </g>
                </g>
            </g>
        </g>
    </g>
</svg>