<?xml version="1.0" encoding="UTF-8"?>
<svg width="16px" height="16px" viewBox="0 0 16 16" version="1.1" xmlns="http://www.w3.org/2000/svg" xmlns:xlink="http://www.w3.org/1999/xlink">
    <title>16px/面性/通用/icon-home-filling</title>
    <g id="页面-1" stroke="none" stroke-width="1" fill="none" fill-rule="evenodd">
        <g id="Icons" transform="translate(-956.000000, -1922.000000)">
            <g id="编组-10" transform="translate(60.000000, 1881.999991)">
                <g id="State" transform="translate(834.000000, 0.000006)">
                    <g id="16px/面性/通用/icon-home-filling" transform="translate(62.000000, 40.000003)">
                        <rect id="矩形" fill="#FFFFFF" opacity="0" x="0" y="0" width="16" height="16"></rect>
                        <g transform="translate(0.130725, 0.030000)" fill="#333333" fill-rule="nonzero" id="路径">
                            <path d="M7.07906977,0.296907966 L0.409794471,6.13252385 C0.149376519,6.36038956 0,6.68958079 0,7.03561589 L0.00619546472,7.15830892 C0.0676474571,7.76341621 0.578679656,8.23561589 1.2,8.23561589 L2.0152753,8.23561589 L2.01546169,15.2322256 C2.01546169,15.6188249 2.32886237,15.9322256 2.71546169,15.9322256 L6.19717481,15.9322256 L6.29216067,15.9258354 C6.63383119,15.8794838 6.89717481,15.5866083 6.89717481,15.2322256 L6.8962753,11.3346159 L8.8392753,11.3346159 L8.8392753,15.2322256 C8.8392753,15.6188249 9.15267597,15.9322256 9.5392753,15.9322256 L13.0192753,15.9322256 L13.1142612,15.9258354 C13.4559317,15.8794838 13.7192753,15.5866083 13.7192753,15.2322256 L13.7192753,8.23561589 L14.5385506,8.23561589 C14.8845857,8.23561589 15.2137769,8.08623937 15.4416426,7.82582142 C15.8780611,7.32705746 15.8275201,6.56894232 15.3287561,6.13252385 L8.65948083,0.296907966 C8.20704964,-0.0989693221 7.53150096,-0.0989693221 7.07906977,0.296907966 Z"></path>
                        </g>
                    </g>
                </g>
            </g>
        </g>
    </g>
</svg>