<?xml version="1.0" encoding="UTF-8"?>
<svg width="16px" height="16px" viewBox="0 0 16 16" version="1.1" xmlns="http://www.w3.org/2000/svg" xmlns:xlink="http://www.w3.org/1999/xlink">
    <title>icon_xianchangshipin</title>
    <g id="12.6-12.10新增加修改页面" stroke="none" stroke-width="1" fill="none" fill-rule="evenodd">
        <g id="2-1-1-监测预警-安全生产监测-火灾2" transform="translate(-1168.000000, -443.000000)" fill-rule="nonzero">
            <g id="编组-26" transform="translate(1096.000000, 168.000000)">
                <g id="编组-13" transform="translate(24.000000, 68.000000)">
                    <g id="icon_xianchangshipin" transform="translate(48.000000, 207.000000)">
                        <rect id="矩形" fill="#000000" opacity="0" x="0" y="0" width="16" height="16"></rect>
                        <path d="M4.13930014,8.42418118 L4.14230254,8.41918296 L1.86398613,5.98554685 C1.52367882,5.62197451 1.50298691,5.06372358 1.81544741,4.67601172 L2.35037391,4.01224733 L11.3570546,13.193988 L10.3062168,13.8352604 C9.98804648,14.029652 9.58805164,14.0311931 9.26838941,13.8392589 L4.13930014,8.42418118 L4.13930014,8.42418118 Z M3.8760903,8.87002293 L5.32574607,10.4004796 L4.39350283,11.97692 C4.25205144,12.2169468 4.01654223,12.3869415 3.74398498,12.4457536 C3.67292834,12.4622477 3.59886928,12.4707447 3.52280865,12.4707447 L2.00159582,12.4707447 L2.00159582,14.0002018 C2.00165057,14.3573771 1.81091154,14.687444 1.50124111,14.8660474 C1.19157068,15.0446509 0.810025169,15.0446509 0.500354739,14.8660474 C0.190684308,14.687444 -5.4720571e-05,14.3573771 1.17761374e-08,14.0002018 L1.17761374e-08,10.0016212 C-5.4720571e-05,9.64444595 0.190684308,9.31437901 0.500354739,9.13577559 C0.810025169,8.95717217 1.19157068,8.95717217 1.50124111,9.13577559 C1.81091154,9.31437901 2.00165057,9.64444595 2.00159582,10.0016212 L2.00159582,10.4959457 L2.91482392,10.4959457 L3.87558991,8.87002293 L3.8760903,8.87002293 Z M2.97887498,3.23202431 L5.28171095,0.373039181 C5.45904136,0.152869809 5.72137721,0.0179499626 6.00380709,0.00166371011 C6.28623696,-0.0146225423 6.56237429,0.0892463754 6.76389266,0.287569521 L15.7015183,9.08594628 C15.9209482,9.30184801 16.0286252,9.60664726 15.9934422,9.91228949 C15.9582591,10.2179317 15.7841356,10.4903671 15.5213747,10.6508907 L12.2287496,12.6611771 L2.97887498,3.23202431 L2.97887498,3.23202431 Z" id="形状" fill="#6AE6E7"></path>
                    </g>
                </g>
            </g>
        </g>
    </g>
</svg>