<?xml version="1.0" encoding="UTF-8"?>
<svg width="16px" height="16px" viewBox="0 0 16 16" version="1.1" xmlns="http://www.w3.org/2000/svg" xmlns:xlink="http://www.w3.org/1999/xlink">
    <title>icon_wurenji</title>
    <g id="12.6-12.10新增加修改页面" stroke="none" stroke-width="1" fill="none" fill-rule="evenodd">
        <g id="2-1-1-监测预警-安全生产监测-火灾2" transform="translate(-1168.000000, -409.000000)" fill-rule="nonzero">
            <g id="编组-26" transform="translate(1096.000000, 168.000000)">
                <g id="编组-13" transform="translate(24.000000, 68.000000)">
                    <g id="icon_wurenji" transform="translate(48.000000, 173.000000)">
                        <rect id="矩形" fill="#000000" opacity="0" x="0" y="0" width="16" height="16"></rect>
                        <g id="编组-20" fill="#629EF6">
                            <path d="M5.5716946,11.2982021 L3.46617008,13.4011159 C3.22780881,13.6391816 2.83054004,13.6391816 2.59217877,13.4011159 C2.3538175,13.1630502 2.3538175,12.766274 2.59217877,12.5282083 L4.69770329,10.4252945 C4.22098076,10.1078735 3.64494103,9.92932424 3.03910615,9.92932424 C1.36064556,9.92932424 0,11.2882827 0,12.9646621 C0,14.6410415 1.36064556,16 3.03910615,16 C4.71756673,16 6.07821229,14.6410415 6.07821229,12.9646621 C6.06828057,12.3397396 5.8795779,11.7743335 5.5716946,11.2982021 Z M2.59217877,3.45195288 C2.3538175,3.21388717 2.3538175,2.81711097 2.59217877,2.57904526 C2.83054004,2.34097954 3.22780881,2.34097954 3.46617008,2.57904526 L5.55183116,4.66212027 C5.85971446,4.18598884 6.03848541,3.62058277 6.03848541,3.01549907 C6.03848541,1.34903906 4.68777157,0 3.01924271,0 C1.35071384,0 0,1.34903906 0,3.01549907 C0,4.68195908 1.35071384,6.03099814 3.01924271,6.03099814 C3.62507759,6.03099814 4.1911856,5.85244885 4.66790813,5.5449473 L2.59217877,3.45195288 Z M12.9807573,9.94916305 C12.3749224,9.94916305 11.8088144,10.1277123 11.3420236,10.4352139 L13.4276847,12.5182889 C13.6660459,12.7563546 13.6660459,13.1531308 13.4276847,13.3911965 C13.1893234,13.6292622 12.7920546,13.6292622 12.5536934,13.3911965 L10.4680323,11.3081215 C10.160149,11.7842529 9.98137803,12.3397396 9.98137803,12.9448233 C9.98137803,14.6013639 11.3320919,15.950403 12.990689,15.950403 C14.6492862,15.950403 16,14.6013639 16,12.9448233 C16,11.2882827 14.6393544,9.94916305 12.9807573,9.94916305 L12.9807573,9.94916305 Z M12.9807573,0 C11.3122284,0 9.96151459,1.34903906 9.96151459,3.01549907 C9.96151459,3.62058277 10.1402855,4.18598884 10.4481688,4.66212027 L12.5338299,2.57904526 C12.7721912,2.34097954 13.16946,2.34097954 13.4078212,2.57904526 C13.6461825,2.81711097 13.6461825,3.21388717 13.4078212,3.45195288 L11.3221601,5.5350279 C11.7988827,5.84252945 12.3649907,6.02107874 12.9708256,6.02107874 C14.6393544,6.02107874 15.9901227,4.67203968 15.9901227,3.00557967 C16,1.34903906 14.6492862,0 12.9807573,0 Z" id="形状"></path>
                            <path d="M4.67783985,10.4054557 C5.85971446,9.00681959 5.84978274,6.93366398 4.66790813,5.5350279 C5.03538175,5.19776813 5.20422098,5.02913825 5.56176288,4.64228146 C6.96213532,5.83261004 9.0477964,5.83261004 10.4481688,4.64228146 C10.7461204,4.95970242 11.0043451,5.22752635 11.3420236,5.5350279 C10.1502173,6.94358338 10.1502173,9.016739 11.3519553,10.4252945 C11.113594,10.6732796 10.795779,10.9510229 10.4581006,11.3180409 C9.05772812,10.1277123 6.98199876,10.1177929 5.58162632,11.2982021 C5.19428926,10.9113453 4.955928,10.6435214 4.67783985,10.4054557 Z" id="路径"></path>
                        </g>
                    </g>
                </g>
            </g>
        </g>
    </g>
</svg>