<?xml version="1.0" encoding="UTF-8"?>
<svg width="16px" height="16px" viewBox="0 0 16 16" version="1.1" xmlns="http://www.w3.org/2000/svg" xmlns:xlink="http://www.w3.org/1999/xlink">
    <title>icon_jiayouzhan</title>
    <g id="12.6-12.10新增加修改页面" stroke="none" stroke-width="1" fill="none" fill-rule="evenodd">
        <g id="2-1-1-监测预警-安全生产监测-火灾2" transform="translate(-1168.000000, -613.000000)" fill-rule="nonzero">
            <g id="编组-26" transform="translate(1096.000000, 168.000000)">
                <g id="编组-13" transform="translate(24.000000, 68.000000)">
                    <g id="icon_jiayouzhan" transform="translate(48.000000, 377.000000)">
                        <rect id="矩形" fill="#000000" opacity="0" x="0" y="0" width="16" height="16"></rect>
                        <path d="M14.559787,2.74709501 L13.0135732,1.21052631 C12.8727598,1.06971975 12.6895656,1 12.5077385,1 C12.3245443,1 12.1413501,1.06971975 12.0019037,1.21052631 C11.7216439,1.49077238 11.7216439,1.94326725 12.0019037,2.22351333 L13.0040034,3.22829802 L12.2630238,4.00068353 C12.0210434,4.24948736 12.0210434,4.64866713 12.2630238,4.8961039 C12.3805962,5.02187287 12.5391823,5.08339029 12.6964012,5.08339029 L12.7032368,5.08339029 L13.5412819,5.08202324 L13.5412819,11.6370472 C13.5412819,11.8803828 13.3444165,12.0840738 13.1024361,12.0840738 L13.0942334,12.0840738 C12.8563543,12.0799727 12.6649574,11.885851 12.6649574,11.6466165 L12.6649574,7.5618592 C12.6649574,6.51469584 11.8159753,5.66712236 10.7701277,5.66712235 C10.5281473,5.66712235 10.332649,5.47026657 10.332649,5.22966507 L10.332649,2.16746412 C10.332649,1.52358168 9.81040882,1.00136705 9.16649485,1.00136705 L3.04179293,1.00136705 C2.39787897,1.00136705 1.87563876,1.52358168 1.87563876,2.16746412 L1.87563876,13.4087491 C1.87563876,13.4825701 1.81548544,13.5440875 1.7416609,13.5440875 C1.5461626,13.5440875 1.36570264,13.6206425 1.23172478,13.7464115 C1.0963798,13.8694463 1.01025119,14.0444293 1.00068134,14.239918 C0.982908765,14.6568694 1.31511916,15 1.7293568,15 L10.4693611,15 C10.8699276,15 11.2048722,14.6801094 11.2089736,14.2795625 C11.2130749,13.8721805 10.886333,13.5427204 10.4802981,13.5427204 C10.3982708,13.5427204 10.332649,13.4771018 10.332649,13.3950786 L10.332649,7.5645933 C10.332649,7.32262474 10.5281473,7.12713603 10.7701277,7.12713603 C10.8904344,7.12713603 11.0011712,7.17634996 11.0804642,7.2556391 C11.1597572,7.33492824 11.2089736,7.44429254 11.2089736,7.56596035 L11.2089736,11.6479836 C11.2089736,12.695147 12.0579557,13.5440875 13.1038032,13.5440875 C14.1510179,13.5440875 15,12.6937799 15,11.6479836 L15,3.79425837 C15,3.38277512 14.830477,3.01230348 14.559787,2.74709501 Z M3.40681423,3.40601504 C3.40681423,2.92207792 3.79917795,2.53110048 4.28177165,2.53110048 L8.00034067,2.53110048 C8.48293437,2.53110048 8.87529808,2.92207792 8.87529808,3.40601504 L8.87529808,5.81203007 C8.87529808,6.29460013 8.48293435,6.68694463 8.00034067,6.68694463 L4.28177165,6.68694463 C3.79917795,6.68694463 3.40681423,6.29460013 3.40681423,5.81203007 L3.40681423,3.40601504 Z M14.1250426,4.20574163 L13.5385477,4.20710868 L13.2774276,4.20710868 L13.6356133,3.83390294 L14.0102044,3.44429255 C14.0853961,3.54682161 14.1250426,3.66712235 14.1250426,3.79425837 L14.1250426,4.20574163 L14.1250426,4.20574163 Z" id="形状" fill="#F09650"></path>
                    </g>
                </g>
            </g>
        </g>
    </g>
</svg>