<?xml version="1.0" encoding="UTF-8"?>
<svg width="16px" height="16px" viewBox="0 0 16 16" version="1.1" xmlns="http://www.w3.org/2000/svg" xmlns:xlink="http://www.w3.org/1999/xlink">
    <title>icon_weixianyuan</title>
    <g id="12.6-12.10新增加修改页面" stroke="none" stroke-width="1" fill="none" fill-rule="evenodd">
        <g id="2-1-1-监测预警-安全生产监测-火灾2" transform="translate(-1168.000000, -647.000000)" fill-rule="nonzero">
            <g id="编组-26" transform="translate(1096.000000, 168.000000)">
                <g id="编组-13" transform="translate(24.000000, 68.000000)">
                    <g id="icon_weixianyuan" transform="translate(48.000000, 411.000000)">
                        <rect id="矩形" fill="#000000" opacity="0" x="0" y="0" width="16" height="16"></rect>
                        <path d="M16,14.0187941 C16,14.2789802 15.8961142,14.5285551 15.7108402,14.7125812 C15.5255663,14.8966074 15.2742245,15 15.0121411,15 C15.0071215,15 15.0026038,14.998505 14.9975842,14.998505 L14.9965803,15 L0.950211751,15 L0.938666657,14.9800669 C0.414757517,14.9592246 0.000656176552,14.5318527 0,14.0113191 C0,13.840393 0.0481882408,13.6824233 0.125992146,13.5428917 L0.0602352877,13.4272798 L6.99833719,1.74499892 C7.12956654,1.30400066 7.5370596,1.00099862 8.0002509,1 C8.47560776,1 8.87265873,1.31544101 9.00266659,1.74549726 L15.8845489,13.3335944 L15.8197959,13.4561828 C15.9327371,13.6156475 16,13.8089984 16,14.0187941 Z M7.21568622,4.53513206 L7.49829013,10.0167296 L8.50221169,10.0167296 L8.78481561,4.53513206 L7.21568622,4.53513206 Z M8.0002509,11.5117107 C7.63632543,11.5035405 7.29645744,11.6915829 7.11202512,12.0031488 C6.92759281,12.3147148 6.92749551,12.700984 7.11177085,13.0126414 C7.29604619,13.3242989 7.63581941,13.51251 7.99974895,13.5045205 C8.54531995,13.4925434 8.98133922,13.0501132 8.98147571,12.5083593 C8.98161214,11.9666053 8.5458158,11.5239587 8.0002509,11.5117107 Z" id="形状" fill="#6AE6E7"></path>
                    </g>
                </g>
            </g>
        </g>
    </g>
</svg>