<?xml version="1.0" encoding="UTF-8"?>
<svg width="16px" height="16px" viewBox="0 0 16 16" version="1.1" xmlns="http://www.w3.org/2000/svg" xmlns:xlink="http://www.w3.org/1999/xlink">
    <title>icon_gonganxiaofang</title>
    <g id="12.6-12.10新增加修改页面" stroke="none" stroke-width="1" fill="none" fill-rule="evenodd">
        <g id="2-1-1-监测预警-安全生产监测-火灾2" transform="translate(-1168.000000, -273.000000)" fill-rule="nonzero">
            <g id="编组-26" transform="translate(1096.000000, 168.000000)">
                <g id="编组-13" transform="translate(24.000000, 68.000000)">
                    <g id="icon_gonganxiaofang" transform="translate(48.000000, 37.000000)">
                        <rect id="矩形" fill="#000000" opacity="0" x="0" y="0" width="16" height="16"></rect>
                        <g id="编组-23" transform="translate(1.214895, 0.224359)" fill="#F09650">
                            <path d="M7.9041999,15.5512971 L3.68134345,15.5512971 C3.24930123,15.5512971 2.89573365,15.1977455 2.89573365,14.7657033 L2.89573365,7.22350402 C2.89573365,5.62996363 4.19931121,4.32621017 5.79285162,4.32621017 C7.38621613,4.32621017 8.68996957,5.62996363 8.68996957,7.22350402 L8.68996957,14.7657033 C8.68996957,15.1977455 8.33641799,15.5512971 7.9041999,15.5512971 Z M4.35090413,0 C5.28367785,0 6.03983567,0.756157813 6.03983567,1.68894752 C6.03983567,2.62172123 5.28367785,3.37787905 4.35090413,3.37787905 C3.41813042,3.37787905 2.66195662,2.62172123 2.66195662,1.68894752 C2.66195662,0.756157813 3.41811443,0 4.35090413,0 Z M4.35090413,1.10430508 C4.02779585,1.10430508 3.76627768,1.36599912 3.76627768,1.68893153 C3.76627768,2.01170405 4.02779585,2.27355798 4.35090413,2.27355798 C4.67367665,2.27355798 4.93553059,2.01168806 4.93553059,1.68893153 C4.93553059,1.36599912 4.67366067,1.10430508 4.35090413,1.10430508 Z" id="形状"></path>
                            <polygon id="路径" points="2.84364109 2.27830675 8.73715349 2.27830675 8.73715349 3.65327577 2.84364109 3.65327577"></polygon>
                            <path d="M5.1053671,3.35183275 L6.48033613,3.35183275 L6.48033613,5.36556741 L5.1053671,5.36556741 L5.1053671,3.35183275 Z M2.84364109,2.27830675 C2.84364109,2.27830675 0.457743493,2.7188072 0.00945632154,5.37368989 C-0.117753178,6.126474 1.07789777,6.30273814 1.22913895,5.58090898 C1.3353867,5.07274253 1.71295395,3.79132591 2.84365707,3.65327577 C4.36443095,3.46753008 2.84364109,2.27830675 2.84364109,2.27830675 L2.84364109,2.27830675 Z M13.570203,0.805228437 L7.88458124,2.27830675 L7.88458124,3.65327577 L13.570203,5.04060439 L13.570203,0.805228437 Z" id="形状"></path>
                        </g>
                    </g>
                </g>
            </g>
        </g>
    </g>
</svg>