<?xml version="1.0" encoding="UTF-8"?>
<svg width="16px" height="16px" viewBox="0 0 16 16" version="1.1" xmlns="http://www.w3.org/2000/svg" xmlns:xlink="http://www.w3.org/1999/xlink">
    <title>icon_xiaofangche</title>
    <g id="12.6-12.10新增加修改页面" stroke="none" stroke-width="1" fill="none" fill-rule="evenodd">
        <g id="2-1-1-监测预警-安全生产监测-火灾2" transform="translate(-1168.000000, -375.000000)" fill-rule="nonzero">
            <g id="编组-26" transform="translate(1096.000000, 168.000000)">
                <g id="编组-13" transform="translate(24.000000, 68.000000)">
                    <g id="icon_xiaofangche" transform="translate(48.000000, 139.000000)">
                        <rect id="矩形" fill="#000000" opacity="0" x="0" y="0" width="16" height="16"></rect>
                        <g id="编组-25" transform="translate(0.000000, 2.000000)">
                            <path d="M14.2181687,1.57414019 C14.1912877,1.4755147 14.0856834,1.3942937 13.9839194,1.3942937 L12.8933157,1.3942937 C12.7915517,1.3942937 12.6859474,1.4755147 12.6590664,1.57414019 L12.4152166,2.46370344 C12.3883355,2.56232893 12.449778,2.64354992 12.5515421,2.64354992 L14.3276131,2.64354992 C14.4293772,2.64354992 14.4908196,2.56232893 14.4639386,2.46370344 L14.2181687,1.57414019 Z" id="路径" fill="#FF8189"></path>
                            <polygon id="路径" fill="#A4A9AD" points="1.87207488 1.19124122 2.80523221 1.19124122 2.80523221 2.1291503 1.87207488 2.1291503"></polygon>
                            <polygon id="路径" fill="#A4A9AD" points="4.12816513 1.19124122 5.06132245 1.19124122 5.06132245 2.1291503 4.12816513 2.1291503"></polygon>
                            <polygon id="路径" fill="#A4A9AD" points="6.38233529 1.19124122 7.31549262 1.19124122 7.31549262 2.1291503 6.38233529 2.1291503"></polygon>
                            <path d="M0,3.06125788 C0,2.5487921 0.416656666,2.13108414 0.923556942,2.13108414 L15.0764431,2.13108414 C15.5852634,2.13108414 16,2.55072593 16,3.06125788 L16,11.122248 L0,11.122248 L0,3.06125788 Z" id="路径" fill="#FF5959"></path>
                            <path d="M6.05784231,11.1241818 C6.05784231,9.87299179 5.04980199,8.85772938 3.8075123,8.85772938 C2.56522261,8.85772938 1.55718229,9.87299179 1.55718229,11.1241818 L6.05784231,11.1241818 L6.05784231,11.1241818 Z" id="路径" fill="#000000"></path>
                            <path d="M1.94311772,11.1241818 C1.94311772,12.1601676 2.77697596,13 3.80559222,13 C4.83420849,13 5.66806672,12.1601676 5.66806672,11.1241818 C5.66806672,10.0881961 4.83420849,9.24836368 3.80559222,9.24836368 C2.77697596,9.24836368 1.94311772,10.0881961 1.94311772,11.1241818 Z" id="路径" fill="#333E48"></path>
                            <path d="M2.86091444,11.1241818 C2.86091444,11.6496509 3.28386109,12.0756278 3.80559222,12.0756278 C4.32732336,12.0756278 4.75027001,11.6496509 4.75027001,11.1241818 C4.75027001,10.5987128 4.32732336,10.1727359 3.80559222,10.1727359 C3.28386109,10.1727359 2.86091444,10.5987128 2.86091444,11.1241818 L2.86091444,11.1241818 Z" id="路径" fill="#A4A9AD"></path>
                            <path d="M14.4447378,11.1241818 C14.4447378,9.87299179 13.4366975,8.85772938 12.1944078,8.85772938 C10.9521181,8.85772938 9.94407776,9.87299179 9.94407776,11.1241818 L14.4447378,11.1241818 L14.4447378,11.1241818 Z" id="路径" fill="#000000"></path>
                            <path d="M10.3319333,11.1241818 C10.3319333,12.1601676 11.1657915,13 12.1944078,13 C13.223024,13 14.0568823,12.1601676 14.0568823,11.1241818 C14.0568823,10.0881961 13.223024,9.24836368 12.1944078,9.24836368 C11.1657915,9.24836368 10.3319333,10.0881961 10.3319333,11.1241818 Z" id="路径" fill="#333E48"></path>
                            <path d="M11.24973,11.1241818 C11.24973,11.4641007 11.4297845,11.7781988 11.7220689,11.9481582 C12.0143532,12.1181177 12.3744624,12.1181177 12.6667467,11.9481582 C12.959031,11.7781988 13.1390856,11.4641007 13.1390856,11.1241818 C13.1390856,10.7842629 12.959031,10.4701649 12.6667467,10.3002055 C12.3744624,10.130246 12.0143532,10.130246 11.7220689,10.3002055 C11.4297845,10.4701649 11.24973,10.7842629 11.24973,11.1241818 Z" id="路径" fill="#A4A9AD"></path>
                            <path d="M12.1944078,0.373229799 C12.1944078,0.168243484 12.0273611,0 11.823833,0 L1.23460938,0 C1.03108124,0 0.864034561,0.168243484 0.864034561,0.373229799 L0.864034561,0.819945258 C0.864034561,1.02493157 1.03108124,1.19317506 1.23460938,1.19317506 L11.825753,1.19317506 C12.0292812,1.19317506 12.1963279,1.02493157 12.1963279,0.819945258 L12.1944078,0.373229799 L12.1944078,0.373229799 Z" id="路径" fill="#D1D3D3"></path>
                            <path d="M12.3787351,5.56982625 C12.3787351,5.73420207 12.5112204,5.86763656 12.674427,5.86763656 L14.8268331,5.86763656 C14.9900396,5.86763656 15.1225249,5.73420207 15.1225249,5.56982625 L15.1225249,4.27802571 C15.1225249,4.11364989 14.9900396,3.9802154 14.8268331,3.9802154 L12.674427,3.9802154 C12.5112204,3.9802154 12.3787351,4.11364989 12.3787351,4.27802571 L12.3787351,5.56982625 Z" id="路径" fill="#333E48"></path>
                            <path d="M9.68486739,5.56982625 C9.68486739,5.73420207 9.81735269,5.86763656 9.98055922,5.86763656 L11.2458898,5.86763656 C11.4090964,5.86763656 11.5415817,5.73420207 11.5415817,5.56982625 L11.5415817,4.27802571 C11.5415817,4.11364989 11.4090964,3.9802154 11.2458898,3.9802154 L9.98055922,3.9802154 C9.81735269,3.9802154 9.68486739,4.11364989 9.68486739,4.27802571 L9.68486739,5.56982625 Z" id="路径" fill="#333E48"></path>
                        </g>
                    </g>
                </g>
            </g>
        </g>
    </g>
</svg>