<?xml version="1.0" encoding="UTF-8"?>
<svg width="65px" height="59px" viewBox="0 0 65 59" version="1.1" xmlns="http://www.w3.org/2000/svg" xmlns:xlink="http://www.w3.org/1999/xlink">
    <title>icon-siwanglv</title>
    <defs>
        <linearGradient x1="50%" y1="0%" x2="50%" y2="100%" id="linearGradient-1">
            <stop stop-color="#0B8EE3" stop-opacity="0.304933348" offset="0%"></stop>
            <stop stop-color="#0AE4FF" offset="100%"></stop>
        </linearGradient>
        <linearGradient x1="88.3410397%" y1="47.1812775%" x2="47.6690531%" y2="53.8805136%" id="linearGradient-2">
            <stop stop-color="#00E3FF" offset="0%"></stop>
            <stop stop-color="#003CFF" stop-opacity="0.198369565" offset="39.3773916%"></stop>
            <stop stop-color="#00B5FF" offset="100%"></stop>
        </linearGradient>
        <linearGradient x1="50%" y1="0%" x2="50%" y2="100%" id="linearGradient-3">
            <stop stop-color="#00A1FF" stop-opacity="0" offset="0%"></stop>
            <stop stop-color="#00CFFF" stop-opacity="0.699464598" offset="100%"></stop>
        </linearGradient>
        <linearGradient x1="50%" y1="0%" x2="50%" y2="100%" id="linearGradient-4">
            <stop stop-color="#000000" stop-opacity="0" offset="0%"></stop>
            <stop stop-color="#FFFFFF" stop-opacity="0.5" offset="100%"></stop>
        </linearGradient>
        <path d="M65,0 L55,32 L54.9506638,32.0006546 C54.1778249,35.909361 44.4216986,39 32.5,39 C20.5783014,39 10.8221751,35.909361 10.0493362,32.0006546 L10,32 L0,0 L65,0 Z" id="path-5"></path>
        <ellipse id="path-6" cx="32" cy="31" rx="15" ry="5"></ellipse>
        <filter x="-16.7%" y="-50.0%" width="133.3%" height="200.0%" filterUnits="objectBoundingBox" id="filter-7">
            <feGaussianBlur stdDeviation="5" in="SourceAlpha" result="shadowBlurInner1"></feGaussianBlur>
            <feOffset dx="0" dy="0" in="shadowBlurInner1" result="shadowOffsetInner1"></feOffset>
            <feComposite in="shadowOffsetInner1" in2="SourceAlpha" operator="arithmetic" k2="-1" k3="1" result="shadowInnerInner1"></feComposite>
            <feColorMatrix values="0 0 0 0 0   0 0 0 0 0.816576087   0 0 0 0 1  0 0 0 0.5 0" type="matrix" in="shadowInnerInner1"></feColorMatrix>
        </filter>
        <linearGradient x1="50%" y1="0%" x2="50%" y2="100%" id="linearGradient-8">
            <stop stop-color="#0CA1FF" offset="0%"></stop>
            <stop stop-color="#50CEFF" offset="100%"></stop>
        </linearGradient>
    </defs>
    <g id="页面-1" stroke="none" stroke-width="1" fill="none" fill-rule="evenodd">
        <g id="01-01卫生总览" transform="translate(-1687.000000, -632.000000)">
            <g id="icon-siwanglv" transform="translate(1687.000000, 632.000000)">
                <g id="编组-7备份-2" transform="translate(0.000000, 15.000000)">
                    <ellipse id="椭圆形" stroke="url(#linearGradient-1)" opacity="0.58984375" cx="32" cy="33" rx="30" ry="10"></ellipse>
                    <ellipse id="椭圆形" stroke="url(#linearGradient-2)" opacity="0.58984375" cx="32.5" cy="31.5" rx="22" ry="7"></ellipse>
                    <g id="形状结合" opacity="0.58984375">
                        <use fill="url(#linearGradient-3)" xlink:href="#path-5"></use>
                        <use fill="url(#linearGradient-4)" style="mix-blend-mode: soft-light;" xlink:href="#path-5"></use>
                    </g>
                    <g id="椭圆形" fill="black" fill-opacity="1">
                        <use filter="url(#filter-7)" xlink:href="#path-6"></use>
                    </g>
                </g>
                <g id="死亡" transform="translate(13.000000, 0.000000)" fill="url(#linearGradient-8)" fill-rule="nonzero">
                    <path d="M8.41142857,9.61875457 C8.64117216,9.29289375 8.75604395,9.17802196 9.25538462,9.178022 C9.25538462,4.29245425 12.0334066,0.0187546074 17.8191941,0.0187545673 L17.8191941,0 C23.5862271,0 26.364249,4.27252748 26.3642491,9.15809523 C26.8823443,9.15809523 26.9772894,9.27413918 27.2082051,9.59882784 C27.4379487,9.92468866 27.3230769,12.8761905 25.847326,13.8150916 C25.483956,14.0061538 25.061978,13.9487179 24.9846154,13.9299634 C24.8697436,14.1409524 24.7173626,14.7340659 24.4489377,15.5194139 C21.5667634,16.5414234 19.0751011,18.4369061 17.3210256,20.9418315 C11.9947253,20.5784615 10.9983883,14.67663 10.6150915,13.9299634 C10.3224363,13.9729349 10.0235955,13.9331436 9.75238093,13.8150916 C8.29655677,12.8949451 8.18168498,9.94461538 8.41142857,9.61875457 L8.41142857,9.61875457 Z M14.6965568,29.1422711 L10.6338462,22.4386813 C5.09655677,24.1043224 1.74417584,26.0020513 1.07252744,26.9397802 C0.172307652,27.8798535 0,29.8912821 0,29.8912821 L0,38.1878388 C0,38.5136996 0.287179487,39.854652 1.82036627,39.854652 L19.1214652,39.854652 C16.2906573,37.0946422 14.6949473,33.308054 14.6965568,29.3544323 L14.6965568,29.1434432 L14.6965568,29.1422711 Z M39.8534798,30.1010989 C39.8534798,32.9178022 38.1679121,34.7194139 34.7194139,35.5809524 C34.5198572,35.6359641 34.3795707,35.8147699 34.3736264,36.021685 L34.3736264,38.7610256 C34.3736264,38.8958242 33.8942125,39.2591942 33.0139194,39.2591942 C32.6880586,39.2591942 32.3621978,39.2017583 32.0750183,39.0868865 C31.919054,39.0247443 31.7414675,39.054568 31.614359,39.1642491 C30.9658746,39.6339831 30.1715316,39.8579113 29.3731868,39.796044 C28.5707838,39.8378326 27.7786033,39.6009652 27.1308425,39.1255677 C27.0476766,39.0489599 26.9379424,39.007757 26.8249084,39.010696 C26.7690624,38.9915841 26.7084467,38.9915841 26.6526007,39.010696 C26.3523076,39.1232813 26.0344012,39.1816237 25.7136996,39.1830036 C24.8123077,39.1830036 24.3528205,38.8196337 24.3528205,38.6848352 L24.3528205,35.9443224 C24.3528205,35.7333333 24.2191942,35.5422711 24.0082051,35.5035897 C20.6358974,34.6994872 18.9679121,32.9553113 18.8917216,30.2159707 L18.8917216,30.0237363 C18.8917216,29.5454945 18.9304029,29.047326 19.0065934,28.5292308 C19.0065934,28.4917216 19.0065934,28.4342857 19.0265201,28.3956044 C19.1027106,27.8974359 19.2175824,27.3805128 19.3523809,26.8624176 C19.3711355,26.8249084 19.3711355,26.7674725 19.3898901,26.7287912 C19.5246886,26.2880586 19.6594872,25.847326 19.8505494,25.3878388 C19.869304,25.3292308 19.9079853,25.272967 19.9267399,25.2155311 C20.0603663,24.9084249 20.1951648,24.6013187 20.3487179,24.3141392 C20.4061538,24.1992674 20.4635897,24.0843956 20.5210256,23.9882784 C20.6933333,23.7010989 20.865641,23.3951649 21.0567033,23.1267399 C21.1153113,23.0493773 21.1528205,22.9731868 21.2102564,22.9157509 C21.4628603,22.5659845 21.7381273,22.2331582 22.0342857,21.9194139 L22.2640293,21.6896703 C22.4937729,21.44 22.7621978,21.2301831 23.0118681,20.9992674 C23.1079853,20.9230769 23.2228571,20.8269597 23.3178022,20.7507692 C23.6249084,20.5210256 23.9507692,20.3100366 24.3141392,20.0990476 C24.3727472,20.0603663 24.4102564,20.0228572 24.4676923,20.0029304 C24.8697436,19.7919414 25.3116484,19.6008791 25.7512088,19.447326 C25.8660806,19.4098168 26.0008791,19.3711355 26.1345055,19.3324542 C26.4978754,19.2175824 26.8624176,19.1214652 27.2457143,19.0640293 C27.3992674,19.0452747 27.5328937,19.0065934 27.6864469,18.9878388 C28.231871,18.9037177 28.7826538,18.8590596 29.3345055,18.8542125 L29.4681319,18.8542125 C37.6310623,18.9491575 39.8347252,25.9434432 39.8534798,30.1010989 L39.8534798,30.1010989 Z M27.8974359,26.9972161 C27.8974359,25.5027106 26.7287912,24.2953846 25.2717949,24.2953846 C23.8159707,24.2953846 22.647326,25.5027106 22.647326,26.9972161 C22.647326,28.4917216 23.8159707,29.6990476 25.272967,29.6990476 C26.7287912,29.6990476 27.8986081,28.4917216 27.8986081,26.9972161 L27.8974359,26.9972161 Z M31.2123077,34.24 C31.1736264,33.1663004 30.3882784,32.2848352 29.3720146,32.1312821 C28.3381685,32.2848352 27.5715751,33.1862271 27.5328937,34.24 C27.5328937,35.3125275 28.5679121,35.3125275 29.3731868,35.3125275 C30.1585348,35.3125275 31.2123077,35.3125275 31.2123077,34.24 Z M35.9255677,26.996044 C35.9255677,25.5027106 34.7569231,24.2953846 33.2999267,24.2953846 C31.8441026,24.2953846 30.6754579,25.5027106 30.6754579,26.9972161 C30.6754579,28.4917216 31.8441025,29.6990476 33.3010989,29.6990476 C34.756923,29.6990476 35.9267399,28.4917216 35.9267399,26.9972161 L35.9255677,26.996044 Z" id="形状"></path>
                </g>
            </g>
        </g>
    </g>
</svg>