<?xml version="1.0" encoding="UTF-8"?>
<svg width="16px" height="16px" viewBox="0 0 16 16" version="1.1" xmlns="http://www.w3.org/2000/svg" xmlns:xlink="http://www.w3.org/1999/xlink">
    <title>icon_yiliao</title>
    <g id="12.6-12.10新增加修改页面" stroke="none" stroke-width="1" fill="none" fill-rule="evenodd">
        <g id="2-1-1-监测预警-安全生产监测-火灾2" transform="translate(-1168.000000, -545.000000)" fill-rule="nonzero">
            <g id="编组-26" transform="translate(1096.000000, 168.000000)">
                <g id="编组-13" transform="translate(24.000000, 68.000000)">
                    <g id="icon_yiliao" transform="translate(48.000000, 309.000000)">
                        <rect id="矩形" fill="#000000" opacity="0" x="0" y="0" width="16" height="16"></rect>
                        <g id="医院" transform="translate(0.000000, 1.000000)">
                            <rect id="矩形" fill="#000000" opacity="0" x="0" y="0" width="14.3283582" height="14.3283582"></rect>
                            <path d="M14.5671642,12.8955224 L16,12.8955224 L16,14.3283582 L0.238805975,14.3283582 L0.238805975,12.8955224 L1.6716418,12.8955224 L1.6716418,0.71641791 C1.6716418,0.320751224 1.99239302,0 2.38805971,0 L13.8507463,0 C14.246413,0 14.5671642,0.320751224 14.5671642,0.71641791 L14.5671642,12.8955224 Z M7.40298508,4.29850746 L5.97014926,4.29850746 L5.97014926,5.73134328 L7.40298508,5.73134328 L7.40298508,7.1641791 L8.8358209,7.1641791 L8.8358209,5.73134328 L10.2686567,5.73134328 L10.2686567,4.29850746 L8.8358209,4.29850746 L8.8358209,2.86567164 L7.40298508,2.86567164 L7.40298508,4.29850746 Z M9.55223881,12.8955224 L10.9850746,12.8955224 L10.9850746,8.59701492 L5.25373135,8.59701492 L5.25373135,12.8955224 L6.68656717,12.8955224 L6.68656717,10.0298507 L9.55223881,10.0298507 L9.55223881,12.8955224 L9.55223881,12.8955224 Z" id="形状" fill="#6BE5A3"></path>
                        </g>
                    </g>
                </g>
            </g>
        </g>
    </g>
</svg>