<?xml version="1.0" encoding="UTF-8"?>
<svg width="16px" height="16px" viewBox="0 0 16 16" version="1.1" xmlns="http://www.w3.org/2000/svg" xmlns:xlink="http://www.w3.org/1999/xlink">
    <title>icon_jingbeidui</title>
    <g id="12.6-12.10新增加修改页面" stroke="none" stroke-width="1" fill="none" fill-rule="evenodd">
        <g id="2-1-1-监测预警-安全生产监测-火灾2" transform="translate(-1168.000000, -307.000000)" fill-rule="nonzero">
            <g id="编组-26" transform="translate(1096.000000, 168.000000)">
                <g id="编组-13" transform="translate(24.000000, 68.000000)">
                    <g id="icon_jingbeidui" transform="translate(48.000000, 71.000000)">
                        <rect id="矩形" fill="#000000" opacity="0" x="0" y="0" width="16" height="16"></rect>
                        <path d="M15.9001503,3.07884466 L15.898589,3.07884466 C12.6558099,3.07884466 11.0445687,1.8423107 9.86580209,0.939890703 C9.18196134,0.413739266 8.64175838,0 8.00943988,0 C7.40210186,0 6.93996291,0.391881344 6.35604408,0.886807187 C5.26470919,1.81420766 3.77056398,3.08040594 0.120290766,3.08040594 C0.04222675,3.08040594 0.0141237031,3.09601873 0.0110011563,3.10382514 C0.00475603125,3.11475411 -0.0155406094,3.17876659 0.120290766,3.42076503 C0.221773984,3.60187355 0.382585844,3.83138173 0.549642828,4.07338017 C0.952453141,4.65105386 2.00475603,7.00702577 2.00475603,7.00702577 C2.01880755,7.02732241 2.08594261,7.07103825 2.14995509,7.10850898 C2.23270295,7.15846995 2.28422519,7.2490242 2.28422519,7.34582358 L2.27173495,7.3676815 C2.19367094,7.52537081 2.19367094,7.68930523 2.19367094,7.86260734 L2.19367094,7.90632319 L2.16400661,7.93911006 C2.0781362,8.02654175 2.01568498,8.08899297 2.01568498,8.22638564 L2.01568498,8.39344263 L1.94386609,8.41842311 C1.94230481,8.41842311 1.94230481,8.41842311 1.94074353,8.41998439 C1.17103238,8.68071819 0.671422688,9.45823575 0.671422688,10.3996878 C0.671422688,10.991413 1.03676227,11.4660422 1.34589577,11.7595628 C1.73465455,12.1311475 2.24519319,12.4215457 2.74792542,12.5620609 L2.79944767,12.5761124 L2.81818303,12.6260734 C3.30061864,13.9391101 4.41537273,14.7556596 5.26783175,15.2084309 C6.28890903,15.7517564 7.35682472,16 7.91888561,16 C8.47938522,16 9.54886219,15.7517564 10.5699395,15.2084309 C11.4208372,14.7556596 12.5387139,13.9391101 13.0195882,12.6291959 L13.0383235,12.579235 L13.0898458,12.5651835 C13.5691588,12.4324746 14.093749,12.1202186 14.4903142,11.7314598 C14.9243501,11.3052303 15.163226,10.8321624 15.163226,10.4043716 L15.163226,10.3965652 C15.24129,9.43637783 14.8041315,8.64324747 14.0422268,8.35441061 C14.0219301,8.3466042 14.0016335,8.33879781 13.9797755,8.33255269 L13.9079567,8.30913348 L13.9079567,8.1420765 C13.9079567,8.00468384 13.8455055,7.94223263 13.759635,7.85480094 L13.7299707,7.82513661 L13.7299707,7.78142077 C13.7299707,7.69086652 13.7018677,7.59562842 13.6784485,7.51131928 C13.6597131,7.45199063 13.6472228,7.40202966 13.6409777,7.35675253 C13.6394165,7.34894613 13.6378552,7.33957845 13.6362939,7.33177205 L13.6050683,7.23809523 C13.5894555,7.19125683 13.6050683,7.13973458 13.6441003,7.10850898 C13.6846936,7.07572209 13.7299707,7.03981266 13.7487061,7.01483216 C13.7487061,7.01483216 14.7088934,4.50897736 15.2974961,3.91725214 C15.49734,3.71740827 15.6846936,3.52693208 15.8158411,3.37392663 C15.88766,3.28961748 15.9313759,3.22872756 15.9579176,3.1850117 C15.9797755,3.13505073 15.9501112,3.07884464 15.9001503,3.07884466 L15.9001503,3.07884466 Z M6.50124314,2.59484778 L9.48953355,2.59484778 L9.49890123,3.96409055 C9.49890123,4.26385636 9.24909639,4.58704136 8.75260927,4.92115534 C8.39975992,5.16003122 8.05159444,5.31772053 8.03754291,5.32396566 L8.00007219,5.33957845 L7.96260147,5.32396566 C7.94854995,5.31772053 7.60038445,5.16159252 7.24753511,4.92115534 C6.75260927,4.58704137 6.50124314,4.26541764 6.50124314,3.96409055 L6.50124314,2.59484778 L6.50124314,2.59484778 Z M3.37087625,7.53473848 C3.37087625,7.53473848 6.10936181,7.14129586 8.00007219,7.14129586 C9.8892213,7.14129586 12.6292681,7.53473848 12.6292681,7.53473848 L12.6292681,8.21233411 C12.6292681,8.21233411 10.8384797,9.15378609 8.76353823,9.35519125 C8.51217211,9.38017173 8.25768344,9.39422327 8.00163347,9.39422327 C6.17025173,9.39422327 4.41693402,8.69476972 3.7065515,8.3715847 C3.49265611,8.27478533 3.37399881,8.21233413 3.37399881,8.21233411 L3.37399881,7.53473848 L3.37087625,7.53473848 Z" id="形状" fill="#6AE6E7"></path>
                    </g>
                </g>
            </g>
        </g>
    </g>
</svg>