<?xml version="1.0" encoding="UTF-8"?>
<svg width="14px" height="14px" viewBox="0 0 14 14" version="1.1" xmlns="http://www.w3.org/2000/svg" xmlns:xlink="http://www.w3.org/1999/xlink">
    <title>icon-数据链路</title>
    <g id="0930" stroke="none" stroke-width="1" fill="none" fill-rule="evenodd">
        <g id="1-1-1-用户中心-用户管理-用户管理列表2" transform="translate(-1028.000000, -846.000000)">
            <g id="icon-数据链路" transform="translate(1028.000000, 846.000000)">
                <rect id="矩形" fill="#D8D8D8" opacity="0" x="0" y="0" width="14" height="14"></rect>
                <path d="M7,0 C10.8659932,0 14,3.13400675 14,7 C14,10.8659932 10.8659932,14 7,14 C3.13400675,14 0,10.8659932 0,7 C0,3.13400675 3.13400675,0 7,0 Z M7,1.4 C3.9072054,1.4 1.4,3.9072054 1.4,7 C1.4,10.0927946 3.9072054,12.6 7,12.6 C10.0927946,12.6 12.6,10.0927946 12.6,7 C12.6,3.9072054 10.0927946,1.4 7,1.4 Z" id="椭圆形" fill="#333333" fill-rule="nonzero"></path>
                <circle id="椭圆形" fill="#333333" cx="3.6" cy="7" r="1"></circle>
                <circle id="椭圆形" fill="#333333" cx="7" cy="7" r="1"></circle>
                <circle id="椭圆形" fill="#333333" cx="10.4" cy="7" r="1"></circle>
            </g>
        </g>
    </g>
</svg>