<?xml version="1.0" encoding="UTF-8"?>
<svg width="10px" height="10px" viewBox="0 0 10 10" version="1.1" xmlns="http://www.w3.org/2000/svg" xmlns:xlink="http://www.w3.org/1999/xlink">
    <title>icon-时间</title>
    <g id="规范预览" stroke="none" stroke-width="1" fill="none" fill-rule="evenodd">
        <g id="icon-时间" fill="#FFFFFF" fill-rule="nonzero">
            <path d="M5,0 C7.76142375,0 10,2.23857625 10,5 C10,7.76142375 7.76142375,10 5,10 C2.23857625,10 0,7.76142375 0,5 C0,2.23857625 2.23857625,0 5,0 Z M5,1 C2.790861,1 1,2.790861 1,5 C1,7.209139 2.790861,9 5,9 C7.209139,9 9,7.209139 9,5 C9,2.790861 7.209139,1 5,1 Z" id="椭圆形"></path>
            <path d="M5,2.5 C5.24545989,2.5 5.44960837,2.67687516 5.49194433,2.91012437 L5.5,3 L5.5,4.779 L6.85547357,6.01205324 C7.0370403,6.17723217 7.06902321,6.44544574 6.94337721,6.64646964 L6.8888554,6.71837162 C6.72367646,6.89993835 6.4554629,6.93192126 6.25443899,6.80627527 L6.18253702,6.75175345 L4.66353172,5.3698501 C4.58020573,5.29404492 4.52554102,5.19294263 4.50700818,5.08343899 L4.5,5 L4.5,3 C4.5,2.72385763 4.72385763,2.5 5,2.5 Z" id="路径-13"></path>
        </g>
    </g>
</svg>