<?xml version="1.0" encoding="UTF-8"?>
<svg width="16px" height="16px" viewBox="0 0 16 16" version="1.1" xmlns="http://www.w3.org/2000/svg" xmlns:xlink="http://www.w3.org/1999/xlink">
    <title>icon_binanchangsuo</title>
    <g id="12.6-12.10新增加修改页面" stroke="none" stroke-width="1" fill="none" fill-rule="evenodd">
        <g id="2-1-1-监测预警-安全生产监测-火灾2" transform="translate(-1168.000000, -511.000000)" fill-rule="nonzero">
            <g id="编组-26" transform="translate(1096.000000, 168.000000)">
                <g id="编组-13" transform="translate(24.000000, 68.000000)">
                    <g id="icon_binanchangsuo" transform="translate(48.000000, 275.000000)">
                        <rect id="矩形" fill="#000000" opacity="0" x="0" y="0" width="16" height="16"></rect>
                        <g id="编组-24" fill="#F09650">
                            <path d="M15.2598673,5.59282773 L12.9479974,5.59282773 L12.7745898,3.70027706 L10.404455,1.9505539 L6.99422146,2.00802908 L4.2776183,4.87593684 L4.2935718,4.88522924 C4.20757526,5.00899028 4.16160544,5.15580896 4.16178202,5.3061402 C4.161782,5.50390718 4.24097384,5.69356911 4.38192649,5.8333792 C4.52287915,5.97318929 4.71403934,6.05168791 4.91333048,6.0515966 C5.28823767,6.0515966 5.59620953,5.77798726 5.65326064,5.4214347 L7.57236234,3.35611435 L8.69951163,3.38467986 L4.16178202,8.57568584 L3.78618122,8.6617265 L0.881604223,8.6617265 C0.647760058,8.66163516 0.423467106,8.75377848 0.258114298,8.91786666 C0.0927614895,9.08195484 0,9.30453238 0,9.53658809 C0,9.88367617 0.205488042,10.1805165 0.500280938,10.3219674 L0.520222813,10.4114497 L0.790738635,10.4019852 C0.82091155,10.4052547 0.850737669,10.4111055 0.881604223,10.4111055 C0.942990513,10.4111055 1.00316293,10.4047385 1.06142789,10.3928649 L5.52025702,10.2393683 L7.34103663,8.11691695 L9.5086314,10.0098118 L8.71477148,13.777705 C8.59614853,14.047963 8.62289131,14.359364 8.78588782,14.6058054 C8.94888434,14.8522467 9.22614424,15.0004803 9.52319764,15 C9.85926155,15 10.1481586,14.8110535 10.2967689,14.5364117 L10.3177512,14.5415741 L10.3383867,14.4558776 C10.3681129,14.3800933 10.3870802,14.3005766 10.3947441,14.2196099 L11.5607367,9.35022397 C11.5607367,9.35022397 11.7341443,8.94893026 11.2139216,8.48981725 L9.78174835,7.06911363 L11.3873291,5.1917061 L11.3873291,6.28166937 C11.3873291,6.28166937 11.3581967,6.96965061 12.485346,6.99856026 C13.3012286,7.0193821 14.3867601,7.00974556 14.925364,7.00320647 C15.0289659,7.05575091 15.1435211,7.08350768 15.2598673,7.08425678 C15.6704373,7.07806737 16,6.74601927 16,6.33854225 C16,5.93106524 15.6704373,5.59901714 15.2598673,5.59282773 Z" id="路径"></path>
                            <path d="M11.1847891,1.41985502 C11.1847229,1.92709846 11.4573816,2.39583884 11.9000419,2.64947953 C12.3427021,2.90312022 12.8881012,2.90312022 13.3307614,2.64947953 C13.7734217,2.39583884 14.0460804,1.92709846 14.0460142,1.41985502 C14.0460804,0.912611583 13.7734217,0.443871204 13.3307614,0.190230516 C12.8881012,-0.063410172 12.3427021,-0.063410172 11.9000419,0.190230516 C11.4573816,0.443871204 11.1847229,0.912611583 11.1847891,1.41985502 L11.1847891,1.41985502 Z" id="路径"></path>
                        </g>
                    </g>
                </g>
            </g>
        </g>
    </g>
</svg>