<?xml version="1.0" encoding="UTF-8"?>
<svg width="16px" height="16px" viewBox="0 0 16 16" version="1.1" xmlns="http://www.w3.org/2000/svg" xmlns:xlink="http://www.w3.org/1999/xlink">
    <title>16px/面性/通用/icon-image-loading-error</title>
    <g id="页面-1" stroke="none" stroke-width="1" fill="none" fill-rule="evenodd">
        <g id="Icons" transform="translate(-1373.000000, -1783.000000)" fill-rule="nonzero">
            <g id="编组-9" transform="translate(60.000000, 1742.999988)">
                <g id="State" transform="translate(1251.000000, 0.000000)">
                    <g id="16px/面性/通用/icon-image-loading-error" transform="translate(62.000000, 40.000012)">
                        <rect id="矩形" fill="#000000" opacity="0" x="0" y="0" width="16" height="16"></rect>
                        <g transform="translate(0.300000, 1.299332)" fill="#333333" id="形状结合">
                            <path d="M7.419,0 L6.015,1.4 L1.7,1.40066831 C1.55798392,1.40066831 1.43901581,1.4993484 1.40792321,1.63188106 L1.4,1.70066831 L1.39995923,9.23149351 C2.33104764,7.9250967 2.87640129,6.93693775 3.72120509,6.93693775 C4.757346,6.93693775 5.68528672,8.61174841 6.10907557,8.61174841 C6.28285461,8.61174841 6.6972924,7.95410405 7.2226554,7.1781632 L9.824,9.746 L6.87439354,13.3690297 L6.852,13.4 L1.7,13.4006683 C0.810530877,13.4006683 0.0806098984,12.7175615 0.00624001457,11.8473508 L0,11.7006683 L0,1.70066831 C0,0.811199185 0.683106814,0.081278207 1.55331749,0.00690832318 L1.7,0.000668308609 L7.419,0 Z M13.7,0.000668308609 C14.5894691,0.000668308609 15.3193901,0.683775122 15.39376,1.5539858 L15.4,1.70066831 L15.4,11.7006683 C15.4,12.5901374 14.7168932,13.3200584 13.8466825,13.3944283 L13.7,13.4006683 L8.656,13.4 L11.3111536,10.1484867 L11.3733594,10.06101 C11.5373297,9.78846461 11.4978536,9.43263046 11.2651139,9.20269434 L11.2651139,9.20269434 L8.05061745,6.02711712 C8.62512381,5.29873564 9.24327957,4.70068044 9.79257825,4.70068044 C11.0721686,4.70068044 11.767518,6.4612942 13.9992927,9.29564273 L14,1.70066831 C14,1.53498288 13.8656854,1.40066831 13.7,1.40066831 L7.997,1.4 L9.20261183,0.198631286 L9.27653602,0.111963469 C9.30217035,0.0764365134 9.32406502,0.0390445477 9.34221933,0.0003316347 L13.7,0.000668308609 Z M3.7,2.70066831 C3.97902888,2.70066831 4.231366,2.81494933 4.41275894,2.99925895 L4.20568266,3.20503703 L4.13142019,3.29217005 C3.93348731,3.56694673 3.95922318,3.95281996 4.20803356,4.19863319 L4.20803356,4.19863319 L4.41377752,4.40104122 C4.23231123,4.58595876 3.97955154,4.70066831 3.7,4.70066831 C3.14771525,4.70066831 2.7,4.25295306 2.7,3.70066831 C2.7,3.14838356 3.14771525,2.70066831 3.7,2.70066831 Z"></path>
                        </g>
                    </g>
                </g>
            </g>
        </g>
    </g>
</svg>