<?xml version="1.0" encoding="UTF-8"?>
<svg width="16px" height="16px" viewBox="0 0 16 16" version="1.1" xmlns="http://www.w3.org/2000/svg" xmlns:xlink="http://www.w3.org/1999/xlink">
    <title>16px/面性/通用/icon-image-loading</title>
    <g id="页面-1" stroke="none" stroke-width="1" fill="none" fill-rule="evenodd">
        <g id="Icons" transform="translate(-1234.000000, -1783.000000)">
            <g id="编组-9" transform="translate(60.000000, 1742.999988)">
                <g id="State" transform="translate(1112.000000, 0.000000)">
                    <g id="16px/面性/通用/icon-image-loading" transform="translate(62.000000, 40.000000)">
                        <rect id="矩形" fill="#000000" fill-rule="nonzero" opacity="0" x="0" y="0" width="16" height="16"></rect>
                        <g transform="translate(0.300000, 1.300000)" fill="#333333">
                            <path d="M13.7,0 L1.7,0 C0.761115925,0 0,0.761115925 0,1.7 L0,11.7 C0,12.6388841 0.761115925,13.4 1.7,13.4 L13.7,13.4 C14.6388841,13.4 15.4,12.6388841 15.4,11.7 L15.4,1.7 C15.4,0.761115925 14.6388841,0 13.7,0 Z M1.7,1.4 L13.7,1.4 C13.8656854,1.4 14,1.53431458 14,1.7 L14,11.7 C14,11.8656854 13.8656854,12 13.7,12 L1.7,12 C1.53431458,12 1.4,11.8656854 1.4,11.7 L1.4,1.7 C1.4,1.53431458 1.53431458,1.4 1.7,1.4 Z" id="矩形" fill-rule="nonzero"></path>
                            <circle id="椭圆形" cx="3.7" cy="3.7" r="1"></circle>
                            <path d="M0.700000022,10.1596613 C2.09937729,8.42272775 2.68506418,6.93626944 3.72120509,6.93626944 C4.757346,6.93626944 5.68528672,8.6110801 6.10907557,8.6110801 C6.53286442,8.6110801 8.38787171,4.70001213 9.79257825,4.70001213 C11.1972848,4.70001213 11.8979124,6.82175807 14.7,10.1565423 C14.7,10.7502778 14.7,11.4132449 14.7,12.1454434 L0.700000022,12.1454434 C0.700000022,11.3807271 0.700000022,10.7187997 0.700000022,10.1596613 Z" id="路径-13"></path>
                        </g>
                    </g>
                </g>
            </g>
        </g>
    </g>
</svg>