<?xml version="1.0" encoding="UTF-8"?>
<svg width="16px" height="16px" viewBox="0 0 16 16" version="1.1" xmlns="http://www.w3.org/2000/svg" xmlns:xlink="http://www.w3.org/1999/xlink">
    <title>16px/线性/通用/icon-import</title>
    <g id="页面-1" stroke="none" stroke-width="1" fill="none" fill-rule="evenodd">
        <g id="Icons" transform="translate(-678.000000, -1505.000000)">
            <g id="编组-8" transform="translate(60.000000, 1464.999991)">
                <g id="State" transform="translate(556.000000, 0.000003)">
                    <g id="16px/线性/通用/icon-import" transform="translate(62.000000, 40.000006)">
                        <rect id="Rectangle" fill="#000000" opacity="0" transform="translate(8.000000, 7.999999) scale(1, -1) translate(-8.000000, -7.999999) " x="0" y="0" width="16" height="15.9999984"></rect>
                        <g transform="translate(8.200000, 8.000007) scale(-1, 1) translate(-8.200000, -8.000007) translate(0.600000, 0.000007)" fill="#333333" fill-rule="nonzero">
                            <path d="M2.599,4.802 L2.59999998,7 C2.59999998,7.38659185 2.2865993,7.69999252 1.89999998,7.69999252 C1.54561726,7.69999252 1.25274175,7.4366489 1.20639015,7.09497837 L1.19999998,7 L1.19999998,4.73184988 C1.19999998,4.50584459 1.26379816,4.28539323 1.38272745,4.09532726 L1.46063143,3.98513258 L4.26814865,0.453282703 C4.46734651,0.202692287 4.75704918,0.0435905294 5.07145249,0.00773056538 L5.20751721,0 L13.5,0 C14.3894691,0 15.1193901,0.683106814 15.19376,1.55331749 L15.2,1.7 L15.2,14.3 C15.2,15.1894691 14.5168932,15.9193901 13.6466825,15.99376 L13.5,16 L6.19999998,16 C5.81340068,16 5.5,15.6865993 5.5,15.3 C5.5,14.9456173 5.76334362,14.6527418 6.10501415,14.6063902 L6.19999998,14.6 L13.5,14.6 C13.6420161,14.6 13.7609842,14.5013199 13.7920768,14.3687872 L13.8,14.3 L13.8,1.7 C13.8,1.55798392 13.7013199,1.43901581 13.5687872,1.40792321 L13.5,1.4 L5.304,1.4 L2.599,4.802 Z" id="路径"></path>
                            <path d="M6.69846889,0.7 C7.0528516,0.7 7.34572712,0.963343623 7.39207872,1.30501415 L7.39846889,1.4 L7.39846889,5.55397129 C7.39846889,5.908354 7.13512527,6.20122952 6.79345474,6.24758111 L6.69846889,6.25397129 L2.19999998,6.25397129 C1.81340065,6.25397129 1.49999998,5.94057061 1.49999998,5.55397129 C1.49999998,5.19958857 1.7633436,4.90671306 2.10501412,4.86036146 L2.19999998,4.85397129 L5.998,4.853 L5.99846889,1.4 C5.99846889,1.04561729 6.26181251,0.75274177 6.60348304,0.706390175 L6.69846889,0.7 Z" id="路径-8"></path>
                            <g id="编组-13" transform="translate(3.450006, 11.499980) scale(-1, 1) translate(-3.450006, -11.499980) translate(0.000000, 8.299954)">
                                <path d="M3.70001289,0.100031185 C4.0543956,0.100031185 4.34727112,0.363374808 4.39362271,0.705045331 L4.40001289,0.800031185 L4.40001289,5.80003118 C4.40001289,6.18663051 4.08661221,6.50003118 3.70001289,6.50003118 C3.34563017,6.50003118 3.05275466,6.23668756 3.00640306,5.89501704 L3.00001289,5.80003118 L3.00001289,0.800031185 C3.00001289,0.41343186 3.31341356,0.100031185 3.70001289,0.100031185 Z" id="Path" transform="translate(3.700013, 3.300031) rotate(90.000000) translate(-3.700013, -3.300031) "></path>
                                <path d="M3.76272635,1.6534305 C4.06460971,1.41192381 4.50511437,1.46086878 4.74662105,1.76275213 C4.96617259,2.03719154 4.94568143,2.42619402 4.71333186,2.6761012 L4.63729942,2.74664683 L2.13729942,4.74664683 C1.91005226,4.92844456 1.59777683,4.94864431 1.3516345,4.80724607 L1.26272635,4.74664683 L-1.23727365,2.74664683 C-1.539157,2.50514015 -1.58810196,2.06463549 -1.34659528,1.76275213 C-1.12704375,1.48831272 -0.743031079,1.4229133 -0.448215636,1.59473813 L-0.362700579,1.6534305 L1.70001289,3.30303866 L3.76272635,1.6534305 Z" id="Path" transform="translate(1.700013, 3.200026) rotate(-270.000000) translate(-1.700013, -3.200026) "></path>
                            </g>
                        </g>
                    </g>
                </g>
            </g>
        </g>
    </g>
</svg>