<?xml version="1.0" encoding="UTF-8"?>
<svg width="16px" height="16px" viewBox="0 0 16 16" version="1.1" xmlns="http://www.w3.org/2000/svg" xmlns:xlink="http://www.w3.org/1999/xlink">
    <title>16px/线性/通用/icon-layout</title>
    <g id="页面-1" stroke="none" stroke-width="1" fill="none" fill-rule="evenodd">
        <g id="Icons" transform="translate(-956.000000, -1644.000000)">
            <g id="编组-8" transform="translate(60.000000, 1603.999991)">
                <g id="State" transform="translate(834.000000, 0.000000)">
                    <g id="16px/线性/通用/icon-layout" transform="translate(62.000000, 40.000000)">
                        <rect id="矩形" fill="#FFFFFF" opacity="0" x="0" y="0" width="16" height="16"></rect>
                        <g transform="translate(0.300000, 0.300000)" fill="#333333" fill-rule="nonzero">
                            <path d="M13.7,0 L1.7,0 C0.761115925,0 0,0.761115925 0,1.7 L0,13.7 C0,14.6388841 0.761115925,15.4 1.7,15.4 L13.7,15.4 C14.6388841,15.4 15.4,14.6388841 15.4,13.7 L15.4,1.7 C15.4,0.761115925 14.6388841,0 13.7,0 Z M1.7,1.4 L13.7,1.4 C13.8656854,1.4 14,1.53431458 14,1.7 L14,13.7 C14,13.8656854 13.8656854,14 13.7,14 L1.7,14 C1.53431458,14 1.4,13.8656854 1.4,13.7 L1.4,1.7 C1.4,1.53431458 1.53431458,1.4 1.7,1.4 Z" id="矩形"></path>
                            <path d="M14.2,4.5 C14.5865993,4.5 14.9,4.81340068 14.9,5.2 C14.9,5.55438271 14.6366564,5.84725823 14.2949859,5.89360983 L14.2,5.9 L1.2,5.9 C0.813400675,5.9 0.5,5.58659932 0.5,5.2 C0.5,4.84561729 0.763343623,4.55274177 1.10501415,4.50639017 L1.2,4.5 L14.2,4.5 Z" id="直线-15"></path>
                            <path d="M5.2,4.5 C5.55438271,4.5 5.84725823,4.76334362 5.89360983,5.10501415 L5.9,5.2 L5.9,14.2 C5.9,14.5865993 5.58659932,14.9 5.2,14.9 C4.84561729,14.9 4.55274177,14.6366564 4.50639017,14.2949859 L4.5,14.2 L4.5,5.2 C4.5,4.81340068 4.81340068,4.5 5.2,4.5 Z" id="直线-16"></path>
                        </g>
                    </g>
                </g>
            </g>
        </g>
    </g>
</svg>