<?xml version="1.0" encoding="UTF-8"?>
<svg width="16px" height="16px" viewBox="0 0 16 16" version="1.1" xmlns="http://www.w3.org/2000/svg" xmlns:xlink="http://www.w3.org/1999/xlink">
    <title>16px/线性/通用/icon-link</title>
    <defs>
        <rect id="path-1" x="0" y="0" width="16" height="16"></rect>
    </defs>
    <g id="页面-1" stroke="none" stroke-width="1" fill="none" fill-rule="evenodd">
        <g id="Icons" transform="translate(-400.000000, -1505.000000)">
            <g id="编组-8" transform="translate(60.000000, 1464.999991)">
                <g id="State" transform="translate(278.000000, 0.000000)">
                    <g id="16px/线性/通用/icon-link" transform="translate(62.000000, 40.000000)">
                        <mask id="mask-2" fill="white">
                            <use xlink:href="#path-1"></use>
                        </mask>
                        <use id="蒙版" fill="#FFFFFF" opacity="0" xlink:href="#path-1"></use>
                        <g mask="url(#mask-2)" fill="#333333" fill-rule="nonzero" id="路径">
                            <g transform="translate(8.038835, 8.038844) rotate(45.000000) translate(-8.038835, -8.038844) translate(4.038835, -0.461156)">
                                <path d="M4,-0.7 C6.52363448,-0.7 8.58271735,1.28898191 8.69516359,3.78486072 L8.7,4 L8.7,6 C8.7,8.59573832 6.59573832,10.7 4,10.7 C3.61340068,10.7 3.3,10.3865993 3.3,10 C3.3,9.61340068 3.61340068,9.3 4,9.3 C5.75969348,9.3 7.19769586,7.9226767 7.29477606,6.1872612 L7.3,6 L7.3,4 C7.3,2.17746033 5.82253967,0.7 4,0.7 C2.24030652,0.7 0.802304136,2.0773233 0.70522394,3.8127388 L0.7,4 L0.7,6 C0.7,6.38659932 0.386599325,6.7 0,6.7 C-0.354382714,6.7 -0.64725823,6.43665638 -0.693609825,6.09498585 L-0.7,6 L-0.7,4 C-0.7,1.40426168 1.40426168,-0.7 4,-0.7 Z"></path>
                                <path d="M4,6.3 C6.52363448,6.3 8.58271735,8.28898191 8.69516359,10.7848607 L8.7,11 L8.7,13 C8.7,15.5957383 6.59573832,17.7 4,17.7 C3.61340068,17.7 3.3,17.3865993 3.3,17 C3.3,16.6134007 3.61340068,16.3 4,16.3 C5.75969348,16.3 7.19769586,14.9226767 7.29477606,13.1872612 L7.3,13 L7.3,11 C7.3,9.17746033 5.82253967,7.7 4,7.7 C2.24030652,7.7 0.802304136,9.0773233 0.70522394,10.8127388 L0.7,11 L0.7,13 C0.7,13.3865993 0.386599325,13.7 0,13.7 C-0.354382714,13.7 -0.64725823,13.4366564 -0.693609825,13.0949859 L-0.7,13 L-0.7,11 C-0.7,8.40426168 1.40426168,6.3 4,6.3 Z" transform="translate(4.000000, 12.000000) scale(-1, -1) translate(-4.000000, -12.000000) "></path>
                            </g>
                        </g>
                    </g>
                </g>
            </g>
        </g>
    </g>
</svg>