<?xml version="1.0" encoding="UTF-8"?>
<svg width="16px" height="16px" viewBox="0 0 16 16" version="1.1" xmlns="http://www.w3.org/2000/svg" xmlns:xlink="http://www.w3.org/1999/xlink">
    <title>16px/线性/通用/icon-lists</title>
    <g id="页面-1" stroke="none" stroke-width="1" fill="none" fill-rule="evenodd">
        <g id="Icons" transform="translate(-1373.000000, -949.000000)">
            <g id="编组-6" transform="translate(60.000000, 908.999994)">
                <g id="State" transform="translate(1251.000000, 0.000003)">
                    <g id="16px/线性/通用/icon-lists" transform="translate(62.000000, 40.000003)">
                        <rect id="矩形" fill="#D8D8D8" opacity="0" x="0" y="0" width="16" height="16"></rect>
                        <g fill="#333333" id="矩形">
                            <path d="M6,0 C6.55228475,0 7,0.44771525 7,1 L7,6 C7,6.55228475 6.55228475,7 6,7 L1,7 C0.44771525,7 0,6.55228475 0,6 L0,1 C0,0.44771525 0.44771525,0 1,0 L6,0 Z M5.6,1.4 L1.4,1.4 L1.4,5.6 L5.6,5.6 L5.6,1.4 Z" fill-rule="nonzero"></path>
                            <rect x="9" y="1" width="7" height="1.4" rx="0.7"></rect>
                            <rect x="9" y="4.6" width="7" height="1.4" rx="0.7"></rect>
                            <rect x="9" y="10" width="7" height="1.4" rx="0.7"></rect>
                            <rect x="9" y="13.6" width="7" height="1.4" rx="0.7"></rect>
                            <path d="M6,9 C6.55228475,9 7,9.44771525 7,10 L7,15 C7,15.5522847 6.55228475,16 6,16 L1,16 C0.44771525,16 0,15.5522847 0,15 L0,10 C0,9.44771525 0.44771525,9 1,9 L6,9 Z M5.6,10.4 L1.4,10.4 L1.4,14.6 L5.6,14.6 L5.6,10.4 Z" fill-rule="nonzero"></path>
                        </g>
                    </g>
                </g>
            </g>
        </g>
    </g>
</svg>