<?xml version="1.0" encoding="UTF-8"?>
<svg width="16px" height="16px" viewBox="0 0 16 16" version="1.1" xmlns="http://www.w3.org/2000/svg" xmlns:xlink="http://www.w3.org/1999/xlink">
    <title>16px/线性/通用/icon-loading</title>
    <defs>
        <linearGradient x1="70.5505371%" y1="73.2910156%" x2="29.119873%" y2="10.925293%" id="linearGradient-1">
            <stop stop-color="#333333" stop-opacity="0" offset="0%"></stop>
            <stop stop-color="#333333" offset="100%"></stop>
        </linearGradient>
    </defs>
    <g id="页面-1" stroke="none" stroke-width="1" fill="none" fill-rule="evenodd">
        <g id="Icons" transform="translate(-261.000000, -1227.000000)">
            <g id="编组-8" transform="translate(60.000000, 1186.999991)">
                <g id="State" transform="translate(139.000000, 0.000006)">
                    <g id="16px/线性/通用/icon-loading" transform="translate(62.000000, 40.000000)">
                        <rect id="矩形" fill="#FFFFFF" opacity="0" x="6.82121026e-13" y="0" width="16" height="16"></rect>
                        <g transform="translate(0.000000, 0.000003)" fill="url(#linearGradient-1)" fill-rule="nonzero" id="椭圆形">
                            <path d="M8,0 C12.418278,0 16,3.581722 16,8 C16,12.418278 12.418278,16 8,16 C3.581722,16 0,12.418278 0,8 C0,3.581722 3.581722,0 8,0 Z M8,2 C4.6862915,2 2,4.6862915 2,8 C2,11.3137085 4.6862915,14 8,14 C11.3137085,14 14,11.3137085 14,8 C14,4.6862915 11.3137085,2 8,2 Z" transform="translate(8.000000, 8.000000) rotate(-270.000000) translate(-8.000000, -8.000000) "></path>
                        </g>
                    </g>
                </g>
            </g>
        </g>
    </g>
</svg>