<?xml version="1.0" encoding="UTF-8"?>
<svg width="16px" height="16px" viewBox="0 0 16 16" version="1.1" xmlns="http://www.w3.org/2000/svg" xmlns:xlink="http://www.w3.org/1999/xlink">
    <title>16px/面性/通用/icon-location-filling</title>
    <g id="页面-1" stroke="none" stroke-width="1" fill="none" fill-rule="evenodd">
        <g id="Icons" transform="translate(-1095.000000, -1922.000000)">
            <g id="编组-10" transform="translate(60.000000, 1881.999991)">
                <g id="State" transform="translate(973.000000, 0.000006)">
                    <g id="16px/面性/通用/icon-location-filling" transform="translate(62.000000, 40.000000)">
                        <rect id="矩形" fill="#FFFFFF" opacity="0" x="0" y="0" width="16" height="16"></rect>
                        <g transform="translate(1.500000, 0.000000)" fill="#333333" id="形状结合">
                            <path d="M6.5,0 C10.0898509,0 13,2.91014913 13,6.5 C13,8.82954678 10.9471147,11.8919099 6.84134421,15.6870893 L6.84134421,15.6870893 C6.65253801,15.8662551 6.35784837,15.8674098 6.16573451,15.6918182 L6.16573451,15.6918182 C2.05494536,11.8949824 0,8.83071535 0,6.5 C0,2.91014913 2.91014913,0 6.5,0 Z M6.5,4 C5.11928813,4 4,5.11928813 4,6.5 C4,7.88071187 5.11928813,9 6.5,9 C7.88071187,9 9,7.88071187 9,6.5 C9,5.11928813 7.88071187,4 6.5,4 Z"></path>
                        </g>
                    </g>
                </g>
            </g>
        </g>
    </g>
</svg>