<?xml version="1.0" encoding="UTF-8"?>
<svg width="16px" height="16px" viewBox="0 0 16 16" version="1.1" xmlns="http://www.w3.org/2000/svg" xmlns:xlink="http://www.w3.org/1999/xlink">
    <title>16px/线性/通用/icon-lock</title>
    <g id="页面-1" stroke="none" stroke-width="1" fill="none" fill-rule="evenodd">
        <g id="Icons" transform="translate(-956.000000, -1505.000000)">
            <g id="编组-8" transform="translate(60.000000, 1464.999991)">
                <g id="State" transform="translate(834.000000, 0.000000)">
                    <g id="16px/线性/通用/icon-lock" transform="translate(62.000000, 40.000000)">
                        <rect id="矩形" fill="#FFFFFF" opacity="0" x="0" y="0" width="16" height="16"></rect>
                        <g transform="translate(2.000000, 0.300009)" fill="#333333" fill-rule="nonzero">
                            <path d="M11,5.69999091 C11.5522847,5.69999091 12,6.14770616 12,6.69999091 L12,14.6999909 C12,15.2522757 11.5522847,15.6999909 11,15.6999909 L1,15.6999909 C0.44771525,15.6999909 0,15.2522757 0,14.6999909 L0,6.69999091 C0,6.14770616 0.44771525,5.69999091 1,5.69999091 L11,5.69999091 Z M10.6,7.099 L1.4,7.099 L1.4,14.299 L10.6,14.299 L10.6,7.099 Z" id="矩形"></path>
                            <path d="M7,10 C7.38659932,10 7.7,10.3134007 7.7,10.7 C7.7,11.0543827 7.43665638,11.3472582 7.09498585,11.3936098 L7,11.4 L5,11.4 C4.61340068,11.4 4.3,11.0865993 4.3,10.7 C4.3,10.3456173 4.56334362,10.0527418 4.90501415,10.0063902 L5,10 L7,10 Z" id="直线-14" transform="translate(6.000000, 10.700000) rotate(90.000000) translate(-6.000000, -10.700000) "></path>
                            <path d="M6.00000002,0 C8.24930518,0 10.0856328,1.76816689 10.1948599,3.99037764 L10.2,4.2 L10.2,6.2 L8.80000002,6.2 L8.80000002,4.2 C8.80000002,2.6536027 7.54639732,1.4 6.00000002,1.4 C4.5108767,1.4 3.29326112,2.56246286 3.20511007,4.02943181 L3.20000002,4.2 L3.20000002,6.2 L1.80000002,6.2 L1.80000002,4.2 C1.80000002,1.88040405 3.68040407,0 6.00000002,0 Z" id="路径"></path>
                        </g>
                    </g>
                </g>
            </g>
        </g>
    </g>
</svg>