<?xml version="1.0" encoding="UTF-8"?>
<svg width="16px" height="16px" viewBox="0 0 16 16" version="1.1" xmlns="http://www.w3.org/2000/svg" xmlns:xlink="http://www.w3.org/1999/xlink">
    <title>16px/面性/通用/icon-messages-filling</title>
    <g id="页面-1" stroke="none" stroke-width="1" fill="none" fill-rule="evenodd">
        <g id="Icons" transform="translate(-956.000000, -1783.000000)" fill-rule="nonzero">
            <g id="编组-9" transform="translate(60.000000, 1742.999988)">
                <g id="State" transform="translate(834.000000, 0.000000)">
                    <g id="16px/面性/通用/icon-messages-filling" transform="translate(62.000000, 40.000012)">
                        <rect id="矩形" fill="#000000" opacity="0" x="0" y="0" width="16" height="16"></rect>
                        <g transform="translate(0.000000, 0.500000)" fill="#2C2C2C" id="形状结合">
                            <path d="M8.01326691,0 C12.4259297,0 16.0265338,3.05380853 15.9998527,6.84486373 C15.9998527,10.6097135 12.4259297,13.663522 7.9846481,13.663522 C7.39796249,13.663522 6.83989568,13.6355695 6.28182888,13.5272537 L6.28182888,13.5272537 L3.99029927,14.5806806 C3.93485032,14.6068861 3.85078257,14.6348386 3.76671481,14.6348386 C3.51451155,14.6348386 3.3195459,14.4444123 3.3195459,14.1718756 L3.3195459,14.1718756 L3.43425725,12.4371069 C1.36833687,11.1827393 0,9.13696716 0,6.81865828 C0,3.05380853 3.57377395,0 8.01326691,0 Z M3.99939373,6 C3.47052436,6 3,6.44067797 3,7 C3,7.52919021 3.4404108,8 3.99939373,8 C4.55837667,8 5.02701893,7.52919021 4.99878747,7 C4.99878747,6.47080979 4.55837667,6 3.99939373,6 Z M8,6 C7.47080979,6 7,6.44067797 7,7 C7,7.52919021 7.44067797,8 8,8 C8.52919021,8 9,7.52919021 9,7 C9,6.47080979 8.55932203,6 8,6 Z M12,6 C11.4708098,6 11,6.44067797 11,7 C11,7.52919021 11.440678,8 12,8 C12.559322,8 13,7.52919021 13,7 C13,6.47080979 12.559322,6 12,6 Z"></path>
                        </g>
                    </g>
                </g>
            </g>
        </g>
    </g>
</svg>