<?xml version="1.0" encoding="UTF-8"?>
<svg width="16px" height="16px" viewBox="0 0 16 16" version="1.1" xmlns="http://www.w3.org/2000/svg" xmlns:xlink="http://www.w3.org/1999/xlink">
    <title>16px/线性/通用/icon-move</title>
    <g id="页面-1" stroke="none" stroke-width="1" fill="none" fill-rule="evenodd">
        <g id="Icons" transform="translate(-1095.000000, -1644.000000)">
            <g id="编组-8" transform="translate(60.000000, 1603.999991)">
                <g id="State" transform="translate(973.000000, 0.000000)">
                    <g id="16px/线性/通用/icon-move" transform="translate(62.000000, 40.000000)">
                        <rect id="矩形" fill="#FFFFFF" opacity="0" x="0" y="0" width="16" height="16"></rect>
                        <g transform="translate(0.000000, 0.000009)" fill="#333333" fill-rule="nonzero" id="Path">
                            <path d="M8,1.24975 C8.35438271,1.24975 8.64725823,1.51309362 8.69360983,1.85476415 L8.7,1.94975 L8.7,13.94975 C8.7,14.3363493 8.38659932,14.64975 8,14.64975 C7.64561729,14.64975 7.35274177,14.3864064 7.30639017,14.0447359 L7.3,13.94975 L7.3,1.94975 C7.3,1.56315068 7.61340068,1.24975 8,1.24975 Z"></path>
                            <path d="M10.0518709,12.0099071 C10.2581166,11.7624122 10.625946,11.7289732 10.8734409,11.9352189 C11.0934363,12.1185484 11.1443012,12.429549 11.0080356,12.6702205 L10.9481291,12.7567889 L8.44812908,15.7567889 C8.23823665,16.0086598 7.86908467,16.0338469 7.62734033,15.8323501 L7.55187092,15.7567889 L5.05187092,12.7567889 C4.84562521,12.509294 4.87906424,12.1414646 5.1265591,11.9352189 C5.34655453,11.7518894 5.66162911,11.7579404 5.87378265,11.9353719 L5.94812908,12.0099071 L7.999,14.471348 L10.0518709,12.0099071 Z"></path>
                            <path d="M10.0518709,0.20990706 C10.2581166,-0.0375877964 10.625946,-0.0710268336 10.8734409,0.13521888 C11.0934363,0.318548404 11.1443012,0.629548995 11.0080356,0.870220458 L10.9481291,0.95678886 L8.44812908,3.95678886 C8.23823665,4.20865978 7.86908467,4.23384687 7.62734033,4.03235014 L7.55187092,3.95678886 L5.05187092,0.95678886 C4.84562521,0.709294003 4.87906424,0.341464594 5.1265591,0.13521888 C5.34655453,-0.0481106431 5.66162911,-0.0420596225 5.87378265,0.135371924 L5.94812908,0.20990706 L8,2.67134796 L10.0518709,0.20990706 Z" transform="translate(8.000000, 2.083341) scale(1, -1) translate(-8.000000, -2.083341) "></path>
                            <path d="M7.94975907,1.29999089 C8.30414178,1.29999089 8.5970173,1.56333451 8.6433689,1.90500503 L8.64975907,1.99999089 L8.64975907,13.9999909 C8.64975907,14.3865902 8.33635839,14.6999909 7.94975907,14.6999909 C7.59537636,14.6999909 7.30250084,14.4366473 7.25614925,14.0949767 L7.24975907,13.9999909 L7.24975907,1.99999089 C7.24975907,1.61339156 7.56315975,1.29999089 7.94975907,1.29999089 Z" transform="translate(7.949759, 7.999991) rotate(-90.000000) translate(-7.949759, -7.999991) "></path>
                            <path d="M15.9352116,6.1265591 C16.1414573,5.87906424 16.5092867,5.84562521 16.7567815,6.05187092 C16.976777,6.23520044 17.0276419,6.54620103 16.8913762,6.7868725 L16.8314697,6.8734409 L14.3314697,9.8734409 C14.1215773,10.1253118 13.7524253,10.1504989 13.510681,9.94900218 L13.4352116,9.8734409 L10.9352116,6.8734409 C10.7289659,6.62594604 10.7624049,6.25811663 11.0098997,6.05187092 C11.2298952,5.8685414 11.5449698,5.87459242 11.7571233,6.05202396 L11.8314697,6.1265591 L13.8823406,8.588 L15.9352116,6.1265591 Z" transform="translate(13.883341, 7.999993) rotate(-90.000000) translate(-13.883341, -7.999993) "></path>
                            <path d="M4.13521157,6.1265591 C4.34145728,5.87906424 4.70928669,5.84562521 4.95678155,6.05187092 C5.17677697,6.23520044 5.22764188,6.54620103 5.09137624,6.7868725 L5.03146973,6.8734409 L2.53146973,9.8734409 C2.32157729,10.1253118 1.95242532,10.1504989 1.71068098,9.94900218 L1.63521157,9.8734409 L-0.864788433,6.8734409 C-1.07103415,6.62594604 -1.03759511,6.25811663 -0.790100253,6.05187092 C-0.570104825,5.8685414 -0.255030244,5.87459242 -0.042876707,6.05202396 L0.0314697265,6.1265591 L2.08334065,8.588 L4.13521157,6.1265591 Z" transform="translate(2.083341, 7.999993) scale(1, -1) rotate(90.000000) translate(-2.083341, -7.999993) "></path>
                        </g>
                    </g>
                </g>
            </g>
        </g>
    </g>
</svg>