<?xml version="1.0" encoding="UTF-8"?>
<svg width="16px" height="16px" viewBox="0 0 16 16" version="1.1" xmlns="http://www.w3.org/2000/svg" xmlns:xlink="http://www.w3.org/1999/xlink">
    <title>16px/面性/通用/icon-news-filling</title>
    <g id="页面-1" stroke="none" stroke-width="1" fill="none" fill-rule="evenodd">
        <g id="Icons" transform="translate(-122.000000, -1783.000000)">
            <g id="编组-9" transform="translate(60.000000, 1742.999988)">
                <g id="16px/面性/通用/icon-news-filling" transform="translate(62.000000, 40.000000)">
                    <rect id="矩形" fill="#FFFFFF" opacity="0" x="0" y="0" width="16" height="16"></rect>
                    <g transform="translate(2.000000, 0.000000)">
                        <circle id="椭圆形" fill="#FA5555" cx="12.5" cy="1.5" r="1.5"></circle>
                        <path d="M7.33329671,2.24441413 C7.33329671,1.55856666 6.73635914,1.00001213 6,1.00001213 C5.26515238,1.00001213 4.66668721,1.55717317 4.66668721,2.24441413 C4.66668721,2.31444873 4.67289409,2.38313681 4.6848576,2.45003998 C2.84373061,3.04899005 1.33330475,4.88833388 1.33330475,7.06449514 L1.33330475,8.77775163 C1.33330475,8.77775163 1.33330475,11.2451679 0.683849925,11.2666809 C0.296611544,11.2666809 0,11.5452536 0,11.8888975 C0,12.2349214 0.298396423,12.5110829 0.666547853,12.5110829 L11.3334682,12.5110829 C11.7033885,12.5110829 12,12.2325258 12,11.8889132 C12,11.5428267 11.7016036,11.2666809 11.3334843,11.2666809 C10.6667113,11.2666809 10.6667113,8.79513111 10.6667113,8.79513111 L10.6667113,7.06469868 C10.6667113,4.88575044 9.25443774,3.04565507 7.31549615,2.44852123 C7.32736852,2.3811008 7.33332355,2.31281845 7.33329671,2.24441413 Z M7.9333227,13.1322662 C7.9313454,14.1641531 7.05173255,15.0000121 5.94999203,15.0000121 C4.85582585,15.0000121 3.96862271,14.1676134 3.96664541,13.1322662 L7.9333227,13.1322662 L7.9333227,13.1322662 Z" id="形状" fill="#333333" fill-rule="nonzero"></path>
                    </g>
                </g>
            </g>
        </g>
    </g>
</svg>