<?xml version="1.0" encoding="UTF-8"?>
<svg width="16px" height="16px" viewBox="0 0 16 16" version="1.1" xmlns="http://www.w3.org/2000/svg" xmlns:xlink="http://www.w3.org/1999/xlink">
    <title>16px/线性/通用/icon-notification</title>
    <g id="页面-1" stroke="none" stroke-width="1" fill="none" fill-rule="evenodd">
        <g id="Icons" transform="translate(-1234.000000, -1366.000000)">
            <g id="编组-8" transform="translate(60.000000, 1325.999991)">
                <g id="State" transform="translate(1112.000000, 0.000003)">
                    <g id="16px/线性/通用/icon-notification" transform="translate(62.000000, 40.000006)">
                        <rect id="矩形" fill="#FFFFFF" opacity="0" x="0" y="0" width="16" height="16"></rect>
                        <g transform="translate(0.000000, 1.499530)" fill="#333333" fill-rule="nonzero">
                            <path d="M8.80442137,0.406005503 C8.93145345,0.57802091 9,0.786227206 9,1.00006465 L9,12.0009382 C9,12.5532229 8.55228475,13.0009382 8,13.0009382 C7.78616137,13.0009382 7.57795398,12.9323909 7.40593806,12.8053575 L3.596,9.99146962 L1,9.99213516 C0.44771525,9.99213516 0,9.54441991 0,8.99213516 L0,4.00887624 C0,3.45659149 0.44771525,3.00887624 1,3.00887624 L3.596,3.00846962 L7.40594086,0.195643281 C7.85021051,-0.132446524 8.47633156,-0.0382641496 8.80442137,0.406005503 Z M7.6,1.79146962 L4.42753236,4.13477061 C4.22692105,4.28287915 3.99116222,4.37417632 3.74498094,4.4005217 L3.59621929,4.4084696 L1.4,4.40846962 L1.4,8.59146962 L3.59564108,8.59146966 C3.84523913,8.59140567 4.08937147,8.65805017 4.30324274,8.78324279 L4.42773582,8.86531886 L7.6,11.2084696 L7.6,1.79146962 Z" id="形状结合"></path>
                            <path d="M9.98176101,3.25235708 C10.2083256,2.93910393 10.6459343,2.86882894 10.9591874,3.0953935 C12.04378,3.8798397 12.7,5.13587304 12.7,6.50046962 C12.7,7.84499892 12.0630182,9.08477537 11.0049662,9.87196337 C10.6947954,10.1027297 10.2562791,10.0383596 10.0255128,9.72818874 C9.79474653,9.41801791 9.85911663,8.97950171 10.1692875,8.7487354 C10.8759686,8.22296643 11.3,7.39766163 11.3,6.50046962 C11.3,5.58992294 10.8631171,4.75371012 10.1387246,4.22978351 C9.82547143,4.00321895 9.75519645,3.56561023 9.98176101,3.25235708 Z" id="路径"></path>
                            <path d="M12.0734718,2.16256034 C12.2457183,1.81645313 12.6659269,1.67551114 13.0120341,1.84775758 C14.7593401,2.7173357 15.8877055,4.49568492 15.8877055,6.47502344 C15.8877055,8.45328209 14.7605732,10.230828 13.0147415,11.100941 C12.6687346,11.2733889 12.2484439,11.1326916 12.075996,10.7866847 C11.9035481,10.4406779 12.0442454,10.0203872 12.3902522,9.84793927 C13.6660919,9.21206773 14.4877055,7.91634077 14.4877055,6.47502344 C14.4877055,5.03292027 13.6651897,3.73660235 12.3882746,3.10112266 C12.0421674,2.92887621 11.9012254,2.50866754 12.0734718,2.16256034 Z" id="路径"></path>
                        </g>
                    </g>
                </g>
            </g>
        </g>
    </g>
</svg>