<?xml version="1.0" encoding="UTF-8"?>
<svg width="16px" height="16px" viewBox="0 0 16 16" version="1.1" xmlns="http://www.w3.org/2000/svg" xmlns:xlink="http://www.w3.org/1999/xlink">
    <title>16px/面性/通用/icon-play-filling</title>
    <g id="页面-1" stroke="none" stroke-width="1" fill="none" fill-rule="evenodd">
        <g id="Icons" transform="translate(-817.000000, -1783.000000)">
            <g id="编组-9" transform="translate(60.000000, 1742.999988)">
                <g id="State" transform="translate(695.000000, 0.000000)">
                    <g id="16px/面性/通用/icon-play-filling" transform="translate(62.000000, 40.000012)">
                        <rect id="矩形" fill="#FFFFFF" opacity="0" x="0" y="0" width="16" height="16"></rect>
                        <g id="16px/线性/通用/icon-start" fill="#333333">
                            <path d="M8,0 C12.418278,0 16,3.581722 16,8 C16,12.418278 12.418278,16 8,16 C3.581722,16 0,12.418278 0,8 C0,3.581722 3.581722,0 8,0 Z M6.3,5.22985711 C6.13431458,5.22985711 6,5.36417169 6,5.52985711 L6,5.52985711 L6,10.4701429 C6,10.5245161 6.01477735,10.577867 6.04275212,10.6244916 C6.12799657,10.7665657 6.31227465,10.8126352 6.45434873,10.7273908 L6.45434873,10.7273908 L10.5712535,8.25724788 C10.6134784,8.23191295 10.6488178,8.19657361 10.6741527,8.15434873 C10.7593971,8.01227465 10.7133276,7.82799657 10.5712535,7.74275212 L10.5712535,7.74275212 L6.45434873,5.27260924 C6.40772411,5.24463446 6.35437318,5.22985711 6.3,5.22985711 Z" id="形状结合"></path>
                        </g>
                    </g>
                </g>
            </g>
        </g>
    </g>
</svg>