<?xml version="1.0" encoding="UTF-8"?>
<svg width="16px" height="16px" viewBox="0 0 16 16" version="1.1" xmlns="http://www.w3.org/2000/svg" xmlns:xlink="http://www.w3.org/1999/xlink">
    <title>16px/线性/通用/icon-prompt</title>
    <g id="页面-1" stroke="none" stroke-width="1" fill="none" fill-rule="evenodd">
        <g id="Icons" transform="translate(-956.000000, -1227.000000)">
            <g id="编组-8" transform="translate(60.000000, 1186.999991)">
                <g id="State" transform="translate(834.000000, 0.000000)">
                    <g id="16px/线性/通用/icon-prompt" transform="translate(70.000000, 48.000009) scale(-1, 1) rotate(-90.000000) translate(-70.000000, -48.000009) translate(62.000000, 40.000009)">
                        <rect id="矩形" fill="#FFFFFF" opacity="0" x="0" y="-9.41321037e-14" width="16" height="16"></rect>
                        <g id="16px/线性/通用/icon-warning" transform="translate(0.000000, -0.000000)" fill="#333333">
                            <path d="M8,-9.41321037e-14 C12.4114286,-9.41321037e-14 16,3.57714286 16,8 C16,12.4228571 12.4228571,16 8,16 C3.57714286,16 0,12.4228571 0,8 C0,3.57714286 3.57714286,-9.41321037e-14 8,-9.41321037e-14 Z M8,1.4 C4.35034151,1.4 1.4,4.35034151 1.4,8 C1.4,11.6496585 4.35034151,14.6 8,14.6 C11.6496585,14.6 14.6,11.6496585 14.6,8 C14.6,4.35459567 11.6424876,1.4 8,1.4 Z" id="Path" fill-rule="nonzero"></path>
                            <path d="M5,7.1 C5.3221661,7.1 5.59349981,7.31763936 5.67499532,7.61391227 L5.685,7.667 L9,7.66738235 C9.35438271,7.66738235 9.64725823,7.93072598 9.69360983,8.2723965 L9.7,8.36738235 C9.7,8.72176507 9.43665638,9.01464058 9.09498585,9.06099218 L9,9.06738235 L5,9.06738235 C4.64561729,9.06738235 4.35274177,8.80403873 4.30639017,8.46236821 L4.3,8.36738235 L4.3,7.8 C4.3,7.41340068 4.61340068,7.1 5,7.1 Z" id="直线-6" fill-rule="nonzero" transform="translate(7.000000, 8.083691) rotate(-180.000000) translate(-7.000000, -8.083691) "></path>
                            <path d="M4.7,5.8 C5.08659932,5.8 5.4,6.11340068 5.4,6.5 L5.4,9.1 C5.4,9.48659932 5.08659932,9.8 4.7,9.8 C4.31340068,9.8 4,9.48659932 4,9.1 L4,6.5 C4,6.11340068 4.31340068,5.8 4.7,5.8 Z" id="矩形"></path>
                            <path d="M11.5,7.01252873 C10.95,7.01252873 10.5,7.46252873 10.5,8.01252873 C10.5,8.56252873 10.95,9.01252873 11.5,9.01252873 C12.05,9.01252873 12.5,8.56252873 12.5,8.01252873 C12.5,7.46252873 12.05,7.01252873 11.5,7.01252873 Z" id="Path" fill-rule="nonzero" transform="translate(11.500000, 8.012529) rotate(-180.000000) translate(-11.500000, -8.012529) "></path>
                        </g>
                    </g>
                </g>
            </g>
        </g>
    </g>
</svg>