<?xml version="1.0" encoding="UTF-8"?>
<svg width="16px" height="16px" viewBox="0 0 16 16" version="1.1" xmlns="http://www.w3.org/2000/svg" xmlns:xlink="http://www.w3.org/1999/xlink">
    <title>16px/面性/通用/icon-prompt-filling</title>
    <g id="页面-1" stroke="none" stroke-width="1" fill="none" fill-rule="evenodd">
        <g id="Icons" transform="translate(-678.000000, -1922.000000)">
            <g id="编组-10" transform="translate(60.000000, 1881.999991)">
                <g id="State" transform="translate(556.000000, 0.000000)">
                    <g id="16px/面性/通用/icon-prompt-filling" transform="translate(70.000000, 48.000009) scale(-1, 1) rotate(-90.000000) translate(-70.000000, -48.000009) translate(62.000000, 40.000009)">
                        <rect id="矩形" fill="#FFFFFF" opacity="0" x="0" y="-5.15756274e-14" width="16" height="16"></rect>
                        <g transform="translate(0.000000, -0.000000)">
                            <path d="M8,-1.03089976e-13 C12.4114286,-1.03089976e-13 16,3.57714286 16,8 C16,12.4228571 12.4228571,16 8,16 C3.57714286,16 0,12.4228571 0,8 C0,3.57714286 3.57714286,-1.03089976e-13 8,-1.03089976e-13 Z M4.7,5.8 C4.31340068,5.8 4,6.11340068 4,6.5 L4,6.5 L4,9.1 C4,9.48659932 4.31340068,9.8 4.7,9.8 C5.08659932,9.8 5.4,9.48659932 5.4,9.1 L5.4,9.1 L5.4,8.499 L8.315,8.50038235 L8.32500468,8.55347008 C8.40650019,8.849743 8.6778339,9.06738235 9,9.06738235 C9.38659932,9.06738235 9.7,8.75398168 9.7,8.36738235 L9.7,8.36738235 L9.7,7.8 L9.69360983,7.70501415 C9.64725823,7.36334362 9.35438271,7.1 9,7.1 L9,7.1 L5.4,7.099 L5.4,6.5 C5.4,6.11340068 5.08659932,5.8 4.7,5.8 Z M11.5,7.01252873 C10.95,7.01252873 10.5,7.46252873 10.5,8.01252873 C10.5,8.56252873 10.95,9.01252873 11.5,9.01252873 C12.05,9.01252873 12.5,8.56252873 12.5,8.01252873 C12.5,7.46252873 12.05,7.01252873 11.5,7.01252873 Z" id="形状结合" fill="#333333" fill-rule="nonzero"></path>
                            <g id="编组-12" transform="translate(4.000000, 5.800000)"></g>
                        </g>
                    </g>
                </g>
            </g>
        </g>
    </g>
</svg>