<?xml version="1.0" encoding="UTF-8"?>
<svg width="16px" height="16px" viewBox="0 0 16 16" version="1.1" xmlns="http://www.w3.org/2000/svg" xmlns:xlink="http://www.w3.org/1999/xlink">
    <title>16px/线性/通用/icon-refresh</title>
    <g id="页面-1" stroke="none" stroke-width="1" fill="none" fill-rule="evenodd">
        <g id="Icons" transform="translate(-817.000000, -810.000000)">
            <g id="编组-5" transform="translate(60.000000, 769.999991)">
                <g id="State" transform="translate(695.000000, 0.000003)">
                    <g id="16px/线性/通用/icon-refresh" transform="translate(62.000000, 40.000006)">
                        <rect id="矩形" fill="#FFFFFF" opacity="0" x="0" y="0" width="16" height="16"></rect>
                        <g transform="translate(1.000000, 0.800000)" fill="#333333">
                            <path d="M7.24368702,0 C11.3557674,0 14.7,3.21736307 14.7,7.2 C14.7,11.1826369 11.3557674,14.4 7.24368702,14.4 C5.24557051,14.4 3.3696147,13.636639 1.98093868,12.300645 C1.28720505,11.6332294 0.734179968,10.8397917 0.357168231,9.96508189 C0.204147162,9.61005571 0.367904661,9.19820204 0.722930844,9.04518097 C1.07795703,8.8921599 1.4898107,9.0559174 1.64283177,9.41094358 C1.94557802,10.1133491 2.39107879,10.7525192 2.95156592,11.2917432 C4.08064423,12.3779879 5.60923596,13 7.24368702,13 C10.5944239,13 13.3,10.3970648 13.3,7.2 C13.3,4.00293519 10.5944239,1.4 7.24368702,1.4 C5.60923596,1.4 4.08064423,2.02201212 2.95156592,3.1082568 C2.67262701,3.37661366 2.42155917,3.67033848 2.20227228,3.98498686 C2.09219502,4.14293351 1.99028324,4.30592607 1.89694313,4.47338385 C1.70871949,4.81106847 1.28238661,4.93223051 0.944701996,4.74400687 C0.607017386,4.55578322 0.485855337,4.12945034 0.674078985,3.79176573 C0.790226028,3.58339091 0.916937627,3.38073477 1.05369174,3.18451028 C1.32548883,2.79451654 1.63619726,2.43101807 1.98093868,2.09935504 C3.3696147,0.763360962 5.24557051,0 7.24368702,0 Z" id="路径" fill-rule="nonzero"></path>
                            <polygon id="矩形" points="0 1.45 4 5.45 0 5.45"></polygon>
                        </g>
                    </g>
                </g>
            </g>
        </g>
    </g>
</svg>