<?xml version="1.0" encoding="UTF-8"?>
<svg width="16px" height="16px" viewBox="0 0 16 16" version="1.1" xmlns="http://www.w3.org/2000/svg" xmlns:xlink="http://www.w3.org/1999/xlink">
    <title>16px/线性/通用/icon-rotate-left</title>
    <g id="页面-1" stroke="none" stroke-width="1" fill="none" fill-rule="evenodd">
        <g id="Icons" transform="translate(-817.000000, -1088.000000)">
            <g id="编组-7" transform="translate(60.000000, 1047.999988)">
                <g id="State" transform="translate(695.000000, 0.000003)">
                    <g id="16px/线性/通用/icon-rotate-left" transform="translate(62.000000, 40.000000)">
                        <rect id="矩形" fill="#FFFFFF" opacity="0" x="0" y="0" width="16" height="16"></rect>
                        <g transform="translate(0.000000, 0.000009)" fill="#333333">
                            <path d="M11.3088366,6.36141138 C11.633782,6.36141138 11.9019831,6.59971806 11.9480614,6.91119837 L11.9550558,7.00667254 L11.9550558,15.3547388 C11.9550558,15.6792025 11.7163953,15.9470059 11.4044525,15.9930159 L11.3088366,16 L0.646219233,16 C0.321273767,16 0.0530727573,15.7616933 0.00699443714,15.450213 L0,15.3547388 L0,7.00667254 C0,6.68220883 0.238660512,6.41440545 0.550603305,6.36839545 L0.646219233,6.36141138 L11.3088366,6.36141138 Z M10.555,7.761 L1.4,7.761 L1.4,14.599 L10.555,14.599 L10.555,7.761 Z" id="路径" fill-rule="nonzero"></path>
                            <path d="M7.82708521,1.42486259 C13.2771642,1.94277543 15.8856371,5.2370107 15.9803782,10.3604452 L15.9830584,10.6523981 L14.5830584,10.6523981 C14.5830584,6.13397041 12.5590599,3.38859244 7.98976109,2.84996326 L7.69464197,2.81858379 L7.82708521,1.42486259 Z" id="路径" fill-rule="nonzero"></path>
                            <polygon id="三角形" transform="translate(6.500000, 2.000000) rotate(-90.000000) translate(-6.500000, -2.000000) " points="6.5 0.5 8.5 3.5 4.5 3.5"></polygon>
                        </g>
                    </g>
                </g>
            </g>
        </g>
    </g>
</svg>