<?xml version="1.0" encoding="UTF-8"?>
<svg width="16px" height="16px" viewBox="0 0 16 16" version="1.1" xmlns="http://www.w3.org/2000/svg" xmlns:xlink="http://www.w3.org/1999/xlink">
    <title>16px/线性/通用/icon-rotate-right</title>
    <g id="页面-1" stroke="none" stroke-width="1" fill="none" fill-rule="evenodd">
        <g id="Icons" transform="translate(-956.000000, -1088.000000)">
            <g id="编组-7" transform="translate(60.000000, 1047.999988)">
                <g id="State" transform="translate(834.000000, 0.000006)">
                    <g id="16px/线性/通用/icon-rotate-right" transform="translate(62.000000, 40.000006)">
                        <rect id="矩形" fill="#FFFFFF" opacity="0" x="2.62267122e-07" y="0" width="16" height="16"></rect>
                        <g transform="translate(0.000000, 0.000009)" fill="#333333">
                            <path d="M15.3088369,6.36141138 C15.6337823,6.36141138 15.9019833,6.59971806 15.9480617,6.91119837 L15.9550561,7.00667254 L15.9550561,15.3547388 C15.9550561,15.6792025 15.7163956,15.9470059 15.4044528,15.9930159 L15.3088369,16 L4.64621952,16 C4.32127405,16 4.05307304,15.7616933 4.00699472,15.450213 L4.00000028,15.3547388 L4.00000028,7.00667254 C4.00000028,6.68220883 4.2386608,6.41440545 4.55060359,6.36839545 L4.64621952,6.36141138 L15.3088369,6.36141138 Z M14.555,7.761 L5.4,7.761 L5.4,14.599 L14.555,14.599 L14.555,7.761 Z" id="路径" fill-rule="nonzero"></path>
                            <path d="M0.132443239,1.42486259 C5.58252219,1.94277543 8.19099512,5.2370107 8.2857362,10.3604452 L8.28841645,10.6523981 L6.88841645,10.6523981 C6.88841645,6.13397041 4.86441793,3.38859244 0.295119115,2.84996326 L0,2.81858379 L0.132443239,1.42486259 Z" id="路径" fill-rule="nonzero" transform="translate(4.144208, 6.038630) scale(-1, 1) translate(-4.144208, -6.038630) "></path>
                            <polygon id="三角形" transform="translate(9.500000, 2.000000) scale(-1, 1) rotate(-90.000000) translate(-9.500000, -2.000000) " points="9.50000028 0.5 11.5000003 3.5 7.50000028 3.5"></polygon>
                        </g>
                    </g>
                </g>
            </g>
        </g>
    </g>
</svg>