<?xml version="1.0" encoding="UTF-8"?>
<svg width="16px" height="16px" viewBox="0 0 16 16" version="1.1" xmlns="http://www.w3.org/2000/svg" xmlns:xlink="http://www.w3.org/1999/xlink">
    <title>16px/线性/通用/icon-safety</title>
    <g id="页面-1" stroke="none" stroke-width="1" fill="none" fill-rule="evenodd">
        <g id="Icons" transform="translate(-1373.000000, -1505.000000)">
            <g id="编组-8" transform="translate(60.000000, 1464.999991)">
                <g id="State" transform="translate(1251.000000, 0.000003)">
                    <g id="16px/线性/通用/icon-safety" transform="translate(62.000000, 40.000000)">
                        <rect id="矩形" fill="#FFFFFF" opacity="0" x="0" y="0" width="16" height="16"></rect>
                        <g transform="translate(1.300000, 0.000006)" fill="#333333" fill-rule="nonzero">
                            <path d="M6.44944479,0.0463777179 L0.449444792,2.34637772 C0.178727458,2.4501527 0,2.71007394 0,3 L0,10 C0,12.2082033 2.18933887,14.1421193 6.42601539,15.9441525 C6.60165553,16.0188595 6.8001852,16.0186053 6.97563344,15.9434487 C11.211955,14.1287401 13.4,12.1959669 13.4,10 L13.4,3 C13.4,2.71007394 13.2212725,2.4501527 12.9505552,2.34637772 L6.95055521,0.0463777179 C6.78924141,-0.0154592393 6.61075859,-0.0154592393 6.44944479,0.0463777179 Z M6.7,1.449 L12,3.481 L12,10 L11.9950045,10.1316778 C11.8950556,11.4526947 10.2941229,12.8996738 7.08719626,14.3635773 L6.699,14.537 L6.63723958,14.5103371 C3.10258678,12.9583484 1.4,11.4116204 1.4,10 L1.4,3.481 L6.7,1.449 Z" id="路径-9"></path>
                            <path d="M9.19653447,5.51365817 C9.4651303,5.23560185 9.90827943,5.22793261 10.1863357,5.49652844 C10.4365864,5.73826468 10.4678236,6.1213891 10.2757622,6.39829968 L10.2034655,6.48632972 L6.33956011,10.4863297 C6.08938485,10.7453167 5.68933136,10.7688609 5.41190551,10.5569625 L5.33262909,10.4863297 L3.19653447,8.27499749 C2.92793864,7.99694117 2.93560788,7.55379204 3.21366421,7.28519621 C3.4639149,7.04345996 3.84789076,7.02549843 4.11798978,7.22702654 L4.20346549,7.30232595 L5.835,8.992 L9.19653447,5.51365817 Z" id="路径-4"></path>
                        </g>
                    </g>
                </g>
            </g>
        </g>
    </g>
</svg>