<?xml version="1.0" encoding="UTF-8"?>
<svg width="16px" height="16px" viewBox="0 0 16 16" version="1.1" xmlns="http://www.w3.org/2000/svg" xmlns:xlink="http://www.w3.org/1999/xlink">
    <title>16px/面性/通用/icon-setting-filling</title>
    <g id="页面-1" stroke="none" stroke-width="1" fill="none" fill-rule="evenodd">
        <g id="Icons" transform="translate(-261.000000, -1783.000000)">
            <g id="编组-9" transform="translate(60.000000, 1742.999988)">
                <g id="State" transform="translate(139.000000, 0.000000)">
                    <g id="16px/面性/通用/icon-setting-filling" transform="translate(62.000000, 40.000000)">
                        <rect id="矩形" fill="#FFFFFF" opacity="0" x="0" y="0" width="16" height="16"></rect>
                        <path d="M8.39927658,9.90823023 C7.63810251,10.0336753 6.86333604,9.79126118 6.31794122,9.25896726 C5.7725464,8.72667333 5.52618426,7.96722213 5.655312,7.22472297 C5.81502264,6.26184733 6.6101777,5.48374889 7.59562627,5.32439976 C8.3584994,5.19556428 9.13666396,5.4379784 9.68375783,5.97196752 C10.2308517,6.50765185 10.4772138,7.26879826 10.344688,8.01299263 C10.1798802,8.97756346 9.38472516,9.7522715 8.39927658,9.90823023 M13.9806534,8.40967027 L15.102026,7.72480802 C15.2804261,7.61631499 15.3670776,7.40950016 15.3212033,7.20946613 L14.7724104,4.85482837 C14.7265361,4.65479434 14.5549321,4.50561643 14.345949,4.48357878 L13.0291858,4.34118168 C12.8983591,4.32762005 12.7794256,4.26320232 12.6978712,4.16318531 L12.4769948,3.89195273 C12.3954405,3.79193572 12.3580614,3.66310025 12.3733528,3.53595998 L12.5245682,2.25269087 C12.5483549,2.04926645 12.4379167,1.85262283 12.2493222,1.76277704 L10.0235677,0.715141231 C9.83497321,0.626990645 9.60899966,0.664285124 9.45948332,0.808377428 L8.52500623,1.72378736 C8.43325756,1.81363315 8.30752792,1.86618446 8.17500208,1.86618446 L7.82329888,1.86618446 C7.69247208,1.86618446 7.56674244,1.81532835 7.47329473,1.72378736 L6.53881763,0.808377428 C6.39100034,0.66258992 6.16502679,0.625295441 5.97473327,0.715141231 L3.75067777,1.76277704 C3.5620833,1.85262283 3.4516451,2.04757124 3.47543179,2.25269087 L3.62664717,3.53765519 C3.64193862,3.66479545 3.60455953,3.79193572 3.52300517,3.89364794 L3.30382781,4.1614901 C3.22227345,4.26150711 3.10334,4.32592485 2.9725132,4.33948648 L1.65575002,4.48357878 C1.44676696,4.50561643 1.27686203,4.65479434 1.22928865,4.85482837 L0.678796687,7.20777093 C0.632922356,7.40780495 0.719573869,7.61461979 0.897974043,7.72311282 L2.01934656,8.40967027 C2.12978477,8.47747841 2.20964008,8.58597144 2.23852392,8.7114165 L2.31668019,9.04876201 C2.34556402,9.17420708 2.32347638,9.30473775 2.25381536,9.41323078 L1.54701086,10.5066371 C1.43487361,10.6795479 1.44846601,10.9033147 1.5792928,11.0643591 L3.12033049,12.9511206 C3.25115728,13.112165 3.47203369,13.1731923 3.66912341,13.1053842 L4.91792462,12.6764977 C5.04195522,12.6341176 5.17787916,12.6408984 5.29511356,12.6968401 L5.61283577,12.846018 C5.73176922,12.9019597 5.82181883,13.0002816 5.86429507,13.1223362 L6.29925168,14.3428828 C6.3689127,14.536136 6.55580812,14.6666667 6.76479118,14.6666667 L9.23350977,14.6666667 C9.44419188,14.6666667 9.6310873,14.536136 9.69904927,14.3428828 L10.1340059,13.1223362 C10.1764821,13.0019768 10.2682308,12.9019597 10.3854652,12.846018 L10.7031874,12.6968401 C10.8204218,12.6408984 10.9563457,12.6341176 11.0803763,12.6764977 L12.3291775,13.1053842 C12.5279663,13.1731923 12.7471437,13.112165 12.8779705,12.9511206 L14.4190081,11.0643591 C14.5498349,10.9033147 14.5617283,10.6795479 14.4512901,10.5066371 L13.7444856,9.41323078 C13.6748246,9.30473775 13.6510379,9.17420708 13.6799217,9.04876201 L13.758078,8.71311171 C13.7903599,8.58597144 13.8685162,8.47747841 13.9806534,8.40967027" id="16px/面性/通用/icon-setting-fill" fill="#333333" fill-rule="nonzero"></path>
                    </g>
                </g>
            </g>
        </g>
    </g>
</svg>