<?xml version="1.0" encoding="UTF-8"?>
<svg width="16px" height="16px" viewBox="0 0 16 16" version="1.1" xmlns="http://www.w3.org/2000/svg" xmlns:xlink="http://www.w3.org/1999/xlink">
    <title>16px/线性/通用/icon-setting</title>
    <g id="页面-1" stroke="none" stroke-width="1" fill="none" fill-rule="evenodd">
        <g id="Icons" transform="translate(-122.000000, -1227.000000)">
            <g id="编组-8" transform="translate(60.000000, 1186.999991)">
                <g id="State" transform="translate(0.000000, 0.000009)">
                    <g id="16px/线性/通用/icon-setting" transform="translate(62.000000, 40.000000)">
                        <rect id="矩形" fill="#FFFFFF" opacity="0" x="0" y="0" width="16" height="16"></rect>
                        <g transform="translate(0.700000, 1.000000)" fill="#333333" fill-rule="nonzero" id="路径">
                            <path d="M7.61700622,9.9894834 C6.70155174,10.0816757 5.78753235,9.76717773 5.12901975,9.12448321 C4.41933967,8.43185032 4.09677446,7.4404779 4.26474707,6.47474115 C4.47398679,5.21326078 5.50379341,4.20493058 6.77905955,3.99873464 C7.7610947,3.83288666 8.76462808,4.1444827 9.4734897,4.83636593 C10.1852619,5.53329427 10.5071098,6.52732113 10.3346887,7.49544808 C10.1292635,8.69774052 9.18496153,9.66543096 7.98979358,9.92985563 L7.80869789,9.96418625 L7.61700622,9.9894834 Z M7.665,9.064 L7.58985527,8.58139635 C8.28071336,8.47206 8.84075939,7.92644564 8.95553012,7.25482874 C9.04734745,6.73923164 8.87631958,6.21101223 8.49481902,5.83746656 C8.10750557,5.45943057 7.55424602,5.28764407 7.00736633,5.37998483 C6.31598235,5.49178309 5.75596465,6.04012173 5.64496063,6.70922057 C5.5553355,7.22457526 5.72684085,7.75168009 6.1068627,8.12257345 C6.45429965,8.46166465 6.93534189,8.6349085 7.42287258,8.60110202 L7.58544875,8.58210815 L7.665,9.064 Z"></path>
                            <path d="M4.98396099,-0.583991388 C5.39729439,-0.780035045 5.88288167,-0.723500275 6.23501366,-0.446803706 L6.33644389,-0.357222298 L7.206,0.499 L7.391,0.499 L8.26595526,-0.361214862 C8.59129646,-0.676185287 9.06484883,-0.778506088 9.48826862,-0.634856463 L9.61359223,-0.584349143 L11.8321859,0.464692921 C12.2502408,0.664762339 12.5115361,1.08639287 12.5071119,1.54247559 L12.4992353,1.66757539 L12.359,2.857 L12.465,2.987 L13.6908446,3.12080702 C14.1524291,3.16970422 14.5412616,3.48005534 14.6892515,3.90987752 L14.7235148,4.02995717 L15.2703677,6.38700449 C15.3737312,6.83977685 15.201806,7.30576267 14.8393259,7.58378435 L14.7358069,7.65479703 L13.692,8.294 L13.657,8.445 L14.3126805,9.46439569 C14.5594719,9.85255602 14.5562344,10.3440893 14.3130935,10.7276648 L14.2329642,10.8392874 L12.7000958,12.7246128 C12.4128617,13.0798049 11.951485,13.2346732 11.5121448,13.1372798 L11.3812,13.100442 L10.216,12.698 L10.054,12.774 L9.65201179,13.9075054 C9.49925579,14.343858 9.10636969,14.6461464 8.65293361,14.6934976 L8.52790291,14.7 L6.07040576,14.7 C5.6098377,14.7 5.19302052,14.4352774 4.99554863,14.0255081 L4.9472629,13.9102465 L4.544,12.774 L4.382,12.698 L3.21747004,13.1003173 C2.7865233,13.2492602 2.31003885,13.1399189 1.99037096,12.8262316 L1.89937744,12.726049 L0.364179888,10.8378512 C0.0735081454,10.4784081 0.0203134402,9.98761064 0.220134004,9.5805644 L0.287686169,9.46117818 L0.939,8.448 L0.903,8.292 L-0.134676385,7.65379393 C-0.532138808,7.41097575 -0.745799533,6.9624861 -0.691265683,6.50667211 L-0.669679957,6.38232663 L-0.121106358,4.0268976 C-0.0146968893,3.57742967 0.341679781,3.23533043 0.785122811,3.14067777 L0.908098099,3.12110369 L2.136,2.985 L2.24,2.859 L2.10061597,1.66629761 C2.04736605,1.20501114 2.26907242,0.763171648 2.65988505,0.523569559 L2.7705835,0.463375019 L4.98396099,-0.583991388 Z M9.141,0.741 L8.3135188,1.55613794 C8.12253053,1.7440191 7.87360969,1.86209735 7.60813303,1.89199968 L7.47420661,1.89951779 L7.12410206,1.89951779 C6.85504985,1.89951779 6.59509619,1.80912172 6.38525752,1.64448439 L6.28470432,1.55605375 L5.456,0.741 L3.509,1.662 L3.64156238,2.78777492 C3.67382004,3.05720499 3.61136536,3.32649915 3.46575887,3.55715099 L3.38607983,3.66907845 L3.16866696,3.93597585 C2.99850546,4.14561217 2.76259008,4.2900097 2.5032695,4.34732725 L2.37185484,4.36862824 L1.206,4.497 L0.73,6.542 L1.71400898,7.14721824 C1.94450064,7.28938442 2.11945019,7.50542203 2.20918104,7.75817573 L2.24680752,7.88744024 L2.32482049,8.22570765 C2.38537504,8.48990231 2.35351798,8.76475176 2.23502831,9.007094 L2.16859085,9.12535636 L1.553,10.081 L2.893,11.73 L4.0046738,11.3477488 C4.25889514,11.2604872 4.5344329,11.2607242 4.78376389,11.3468506 L4.90602547,11.3970637 L5.22273948,11.5464475 C5.46933137,11.6629644 5.6667728,11.8583733 5.78270085,12.0981899 L5.83372227,12.2216391 L6.216,13.3 L8.381,13.3 L8.76387467,12.2236552 C8.85321311,11.9693524 9.02807803,11.754463 9.25711658,11.6115496 L9.37600518,11.5462417 L9.68831822,11.3989491 C9.93099209,11.2826216 10.2048802,11.2533004 10.4656107,11.3116328 L10.5946741,11.3481065 L11.703,11.73 L13.045,10.081 L12.4285594,9.12355006 C12.282643,8.89525593 12.2196835,8.62561247 12.2494988,8.35766487 L12.2721832,8.22403167 L12.3532472,7.87491165 C12.4192107,7.61393241 12.5685501,7.38412115 12.779526,7.22073077 L12.8900497,7.14473386 L13.869,6.543 L13.395,4.496 L12.233824,4.37075022 C11.9644602,4.34270022 11.714373,4.2242436 11.5232231,4.03673455 L11.4327433,3.93732451 L11.2131519,3.66643848 C11.0413659,3.45480076 10.9491834,3.19095419 10.9500128,2.92226877 L10.9582406,2.78774213 L11.09,1.662 L9.141,0.741 Z"></path>
                        </g>
                    </g>
                </g>
            </g>
        </g>
    </g>
</svg>