<?xml version="1.0" encoding="UTF-8"?>
<svg width="16px" height="16px" viewBox="0 0 16 16" version="1.1" xmlns="http://www.w3.org/2000/svg" xmlns:xlink="http://www.w3.org/1999/xlink">
    <title>16px/线性/通用/icon-share</title>
    <g id="页面-1" stroke="none" stroke-width="1" fill="none" fill-rule="evenodd">
        <g id="Icons" transform="translate(-1234.000000, -1505.000000)">
            <g id="编组-8" transform="translate(60.000000, 1464.999991)">
                <g id="State" transform="translate(1112.000000, 0.000003)">
                    <g id="16px/线性/通用/icon-share" transform="translate(62.000000, 40.000006)">
                        <rect id="矩形" fill="#FFFFFF" opacity="0" x="0" y="0" width="16" height="16"></rect>
                        <g transform="translate(0.800000, 0.299946)" fill="#333333" fill-rule="nonzero" id="路径">
                            <path d="M7.2,0.500054371 C7.58659932,0.500054371 7.9,0.813455046 7.9,1.20005437 C7.9,1.55443709 7.63665638,1.8473126 7.29498585,1.8936642 L7.2,1.90005437 L1.4,1.90005437 L1.4,13.5000544 L13,13.5000544 L13,7.70005437 C13,7.34567166 13.2633436,7.05279614 13.6050141,7.00644455 L13.7,7.00005437 C14.0543827,7.00005437 14.3472582,7.26339799 14.3936098,7.60506852 L14.4,7.70005437 L14.4,14.2000544 C14.4,14.5544371 14.1366564,14.8473126 13.7949859,14.8936642 L13.7,14.9000544 L0.7,14.9000544 C0.345617286,14.9000544 0.0527417698,14.6367107 0.00639017493,14.2950402 L0,14.2000544 L0,1.20005437 C0,0.845671656 0.263343623,0.55279614 0.605014146,0.506444546 L0.7,0.500054371 L7.2,0.500054371 Z"></path>
                            <path d="M10.1303866,0.293187635 C10.334665,0.00719780717 10.7145458,-0.0790195961 11.018282,0.0764932287 L11.1068667,0.130440941 L14.6068667,2.63044094 C15.1318435,3.00542431 14.9081525,3.80939972 14.304129,3.89298998 L14.2,3.90005437 L10.2,3.90005437 C9.52690296,3.90005437 8.97328475,4.41160402 8.90671175,5.06713692 L8.9,5.20005437 L8.9,10.2000544 C8.9,10.5866537 8.58659932,10.9000544 8.2,10.9000544 C7.84561729,10.9000544 7.55274177,10.6367107 7.50639017,10.2950402 L7.5,10.2000544 L7.5,5.20005437 C7.5,3.76623819 8.61763237,2.59345904 10.0292477,2.50536629 L10.2,2.50005437 L12.016,2.50005437 L10.2931333,1.2696678 C10.0071434,1.06538935 9.92092603,0.685508616 10.0764389,0.381772413 L10.1303866,0.293187635 Z"></path>
                        </g>
                    </g>
                </g>
            </g>
        </g>
    </g>
</svg>