<?xml version="1.0" encoding="UTF-8"?>
<svg width="18px" height="18px" viewBox="0 0 18 18" version="1.1" xmlns="http://www.w3.org/2000/svg" xmlns:xlink="http://www.w3.org/1999/xlink">
    <title>16px/线性/通用/icon-shot</title>
    <g id="页面-1" stroke="none" stroke-width="1" fill="none" fill-rule="evenodd">
        <g id="Icons" transform="translate(-677.000000, -1643.000000)">
            <g id="编组-8" transform="translate(60.000000, 1603.999991)">
                <g id="State" transform="translate(556.000000, 0.000003)">
                    <g id="16px/线性/通用/icon-shot" transform="translate(62.000000, 40.000000)">
                        <rect id="矩形" fill="#FFFFFF" opacity="0" x="0" y="0" width="16" height="16"></rect>
                        <g transform="translate(0.600000, 0.600006)" fill="#333333" fill-rule="nonzero">
                            <path d="M7.39999998,0.699993946 C3.69969215,0.699993946 0.699999978,3.69968612 0.699999978,7.39999395 C0.699999978,11.1003018 3.69969215,14.0999939 7.39999998,14.0999939 C11.1003078,14.0999939 14.1,11.1003018 14.1,7.39999395 C14.1,3.69968612 11.1003078,0.699993946 7.39999998,0.699993946 Z M7.39999998,2.09999395 C10.3271092,2.09999395 12.7,4.47288477 12.7,7.39999395 C12.7,10.3271031 10.3271092,12.6999939 7.39999998,12.6999939 C4.4728908,12.6999939 2.09999998,10.3271031 2.09999998,7.39999395 C2.09999998,4.47288477 4.4728908,2.09999395 7.39999998,2.09999395 Z" id="椭圆形"></path>
                            <path d="M7.39999998,4.69999395 C5.90883115,4.69999395 4.69999998,5.90882512 4.69999998,7.39999395 C4.69999998,8.89116277 5.90883115,10.0999939 7.39999998,10.0999939 C8.8911688,10.0999939 10.1,8.89116277 10.1,7.39999395 C10.1,5.90882512 8.8911688,4.69999395 7.39999998,4.69999395 Z M7.39999998,6.09999395 C8.11797015,6.09999395 8.69999998,6.68202377 8.69999998,7.39999395 C8.69999998,8.11796412 8.11797015,8.69999395 7.39999998,8.69999395 C6.6820298,8.69999395 6.09999998,8.11796412 6.09999998,7.39999395 C6.09999998,6.68202377 6.6820298,6.09999395 7.39999998,6.09999395 Z" id="椭圆形"></path>
                            <path d="M3.4,6.7 C3.78659932,6.7 4.1,7.01340068 4.1,7.4 C4.1,7.75438271 3.83665638,8.04725823 3.49498585,8.09360983 L3.4,8.1 L0,8.1 C-0.386599325,8.1 -0.7,7.78659932 -0.7,7.4 C-0.7,7.04561729 -0.436656377,6.75274177 -0.0949858535,6.70639017 L0,6.7 L3.4,6.7 Z" id="直线-18"></path>
                            <path d="M14.8,6.7 C15.1865993,6.7 15.5,7.01340068 15.5,7.4 C15.5,7.75438271 15.2366564,8.04725823 14.8949859,8.09360983 L14.8,8.1 L11.4,8.1 C11.0134007,8.1 10.7,7.78659932 10.7,7.4 C10.7,7.04561729 10.9633436,6.75274177 11.3050141,6.70639017 L11.4,6.7 L14.8,6.7 Z" id="直线-18"></path>
                            <path d="M7.4,-0.7 C7.75438271,-0.7 8.04725823,-0.436656377 8.09360983,-0.0949858535 L8.1,0 L8.1,3.4 C8.1,3.78659932 7.78659932,4.1 7.4,4.1 C7.04561729,4.1 6.75274177,3.83665638 6.70639017,3.49498585 L6.7,3.4 L6.7,0 C6.7,-0.386599325 7.01340068,-0.7 7.4,-0.7 Z" id="直线-17"></path>
                            <path d="M7.4,10.7 C7.75438271,10.7 8.04725823,10.9633436 8.09360983,11.3050141 L8.1,11.4 L8.1,14.8 C8.1,15.1865993 7.78659932,15.5 7.4,15.5 C7.04561729,15.5 6.75274177,15.2366564 6.70639017,14.8949859 L6.7,14.8 L6.7,11.4 C6.7,11.0134007 7.01340068,10.7 7.4,10.7 Z" id="直线-17"></path>
                        </g>
                    </g>
                </g>
            </g>
        </g>
    </g>
</svg>