<?xml version="1.0" encoding="UTF-8"?>
<svg width="16px" height="16px" viewBox="0 0 16 16" version="1.1" xmlns="http://www.w3.org/2000/svg" xmlns:xlink="http://www.w3.org/1999/xlink">
    <title>16px/线性/通用/icon-sign-out</title>
    <g id="页面-1" stroke="none" stroke-width="1" fill="none" fill-rule="evenodd">
        <g id="Icons" transform="translate(-261.000000, -1088.000000)">
            <g id="编组-7" transform="translate(60.000000, 1047.999988)">
                <g id="State" transform="translate(139.000000, 0.000000)">
                    <g id="16px/线性/通用/icon-sign-out" transform="translate(62.000000, 40.000012)">
                        <rect id="Rectangle" fill="#000000" opacity="0" transform="translate(8.000000, 7.999999) scale(1, -1) translate(-8.000000, -7.999999) " x="0" y="0" width="16" height="15.9999984"></rect>
                        <g transform="translate(8.200006, 8.000000) scale(-1, 1) translate(-8.200006, -8.000000) translate(0.600000, 0.300000)" fill="#333333" fill-rule="nonzero">
                            <path d="M2.50001287,2.61780105 C2.50001287,3.00440037 2.18661219,3.31780105 1.80001287,3.31780105 C1.44563015,3.31780105 1.15275464,3.05445742 1.10640304,2.7127869 L1.10001287,2.61780105 L1.10001287,0.7 C1.10001287,0.345617286 1.36335649,0.0527417698 1.70502701,0.00639017493 L1.80001287,0 L13.5000129,0 C14.3834008,0 15.1187628,0.660558334 15.1937223,1.51481461 L15.2000129,1.65890411 L15.2000129,13.7410959 C15.2000129,14.6154332 14.5111449,15.3220093 13.6457857,15.3939638 L13.5000129,15.4 L1.80001287,15.4 C1.44563015,15.4 1.15275464,15.1366564 1.10640304,14.7949859 L1.10001287,14.7 L1.10001287,12.7821846 C1.10001287,12.3955853 1.41341354,12.0821846 1.80001287,12.0821846 C2.15439558,12.0821846 2.4472711,12.3455282 2.49362269,12.6871988 L2.50001287,12.7821846 L2.49901289,14 L13.5000129,14 C13.647531,14 13.7625691,13.9098975 13.7924265,13.798343 L13.8000129,13.7410959 L13.8000129,1.65890411 C13.8000129,1.54210589 13.7060488,1.43531793 13.5708213,1.40719072 L13.5000129,1.4 L2.49901289,1.4 L2.50001287,2.61780105 Z" id="路径"></path>
                            <g id="编组-13" transform="translate(0.000000, 4.499961)">
                                <path d="M4.20001289,-0.399968815 C4.5543956,-0.399968815 4.84727112,-0.136625192 4.89362271,0.205045331 L4.90001289,0.300031185 L4.90001289,6.30003118 C4.90001289,6.68663051 4.58661221,7.00003118 4.20001289,7.00003118 C3.84563017,7.00003118 3.55275466,6.73668756 3.50640306,6.39501704 L3.50001289,6.30003118 L3.50001289,0.300031185 C3.50001289,-0.0865681399 3.81341356,-0.399968815 4.20001289,-0.399968815 Z" id="Path" transform="translate(4.200013, 3.300031) rotate(90.000000) translate(-4.200013, -3.300031) "></path>
                                <path d="M3.76272635,1.6534305 C4.06460971,1.41192381 4.50511437,1.46086878 4.74662105,1.76275213 C4.96617259,2.03719154 4.94568143,2.42619402 4.71333186,2.6761012 L4.63729942,2.74664683 L2.13729942,4.74664683 C1.91005226,4.92844456 1.59777683,4.94864431 1.3516345,4.80724607 L1.26272635,4.74664683 L-1.23727365,2.74664683 C-1.539157,2.50514015 -1.58810196,2.06463549 -1.34659528,1.76275213 C-1.12704375,1.48831272 -0.743031079,1.4229133 -0.448215636,1.59473813 L-0.362700579,1.6534305 L1.70001289,3.30303866 L3.76272635,1.6534305 Z" id="Path" transform="translate(1.700013, 3.200026) rotate(-270.000000) translate(-1.700013, -3.200026) "></path>
                            </g>
                        </g>
                    </g>
                </g>
            </g>
        </g>
    </g>
</svg>