<?xml version="1.0" encoding="UTF-8"?>
<svg width="16px" height="16px" viewBox="0 0 16 16" version="1.1" xmlns="http://www.w3.org/2000/svg" xmlns:xlink="http://www.w3.org/1999/xlink">
    <title>16px/面性/通用/icon-smile-filling</title>
    <g id="页面-1" stroke="none" stroke-width="1" fill="none" fill-rule="evenodd">
        <g id="Icons" transform="translate(-1373.000000, -1922.000000)" fill="#333333">
            <g id="编组-10" transform="translate(60.000000, 1881.999991)">
                <g id="State" transform="translate(1251.000000, 0.000006)">
                    <g id="16px/面性/通用/icon-smile-filling" transform="translate(62.000000, 40.000000)">
                        <path d="M8,0 C12.4182769,0 16,3.58172308 16,8 C16,12.4182769 12.4182769,16 8,16 C3.58172308,16 0,12.4182769 0,8 C0,3.58172308 3.58172308,0 8,0 Z M4.88820544,8.68038146 C4.56946033,8.93741937 4.5376622,9.38339372 4.81717993,9.67649518 C5.61334773,10.5113562 6.76074598,11 7.99238757,11 C9.20250392,11 10.3318194,10.5283547 11.126844,9.71861512 C11.4109461,9.42925261 11.3861343,8.98290197 11.0715045,8.72165923 C10.7568099,8.4604165 10.2714071,8.48320857 9.98730504,8.7725651 C9.48040953,9.28885681 8.76350971,9.58825954 7.99238757,9.58825954 C7.20758645,9.58825954 6.47912509,9.27802819 5.97145664,8.74569364 C5.69194021,8.45258621 5.20695316,8.42334953 4.88820544,8.68038146 Z M10.9445225,5 C10.3615806,5 9.88902547,5.43454069 9.88902547,5.97057418 C9.88902547,6.50660588 10.3615806,6.94114836 10.9445225,6.94114836 C11.5274059,6.94114836 12,6.50660588 12,5.97057418 C12,5.43454069 11.5274059,5 10.9445225,5 Z M5.05547752,5 C4.4725532,5 4,5.43454069 4,5.97057418 C4,6.50660588 4.4725532,6.94114836 5.05547752,6.94114836 C5.6383999,6.94114836 6.11095504,6.50660588 6.11095504,5.97057418 C6.11095504,5.43454069 5.6383999,5 5.05547752,5 Z" id="形状结合"></path>
                    </g>
                </g>
            </g>
        </g>
    </g>
</svg>