<?xml version="1.0" encoding="UTF-8"?>
<svg width="16px" height="16px" viewBox="0 0 16 16" version="1.1" xmlns="http://www.w3.org/2000/svg" xmlns:xlink="http://www.w3.org/1999/xlink">
    <title>16px/线性/通用/icon-start</title>
    <g id="页面-1" stroke="none" stroke-width="1" fill="none" fill-rule="evenodd">
        <g id="Icons" transform="translate(-1095.000000, -810.000000)">
            <g id="编组-5" transform="translate(60.000000, 769.999991)">
                <g id="State" transform="translate(973.000000, 0.000006)">
                    <g id="16px/线性/通用/icon-start" transform="translate(62.000000, 40.000003)">
                        <rect id="矩形" fill="#FFFFFF" opacity="0" x="0" y="0" width="16" height="16"></rect>
                        <g fill="#333333" fill-rule="nonzero">
                            <path d="M8,0 C12.418278,0 16,3.581722 16,8 C16,12.418278 12.418278,16 8,16 C3.581722,16 0,12.418278 0,8 C0,3.581722 3.581722,0 8,0 Z M8,1.4 C4.35492065,1.4 1.4,4.35492065 1.4,8 C1.4,11.6450793 4.35492065,14.6 8,14.6 C11.6450793,14.6 14.6,11.6450793 14.6,8 C14.6,4.35492065 11.6450793,1.4 8,1.4 Z" id="椭圆形"></path>
                            <path d="M8.75724788,5.92874646 L11.2273908,10.0456513 C11.3126352,10.1877254 11.2665657,10.3720034 11.1244916,10.4572479 C11.077867,10.4852226 11.0245161,10.5 10.9701429,10.5 L6.02985711,10.5 C5.86417169,10.5 5.72985711,10.3656854 5.72985711,10.2 C5.72985711,10.1456268 5.74463446,10.0922759 5.77260924,10.0456513 L8.24275212,5.92874646 C8.32799657,5.78667238 8.51227465,5.74060286 8.65434873,5.82584731 C8.69657361,5.85118224 8.73191295,5.88652158 8.75724788,5.92874646 Z" id="三角形" transform="translate(8.500000, 8.000000) rotate(90.000000) translate(-8.500000, -8.000000) "></path>
                        </g>
                    </g>
                </g>
            </g>
        </g>
    </g>
</svg>