<?xml version="1.0" encoding="UTF-8"?>
<svg width="16px" height="16px" viewBox="0 0 16 16" version="1.1" xmlns="http://www.w3.org/2000/svg" xmlns:xlink="http://www.w3.org/1999/xlink">
    <title>16px/面性/通用/icon-succeed-filling</title>
    <g id="页面-1" stroke="none" stroke-width="1" fill="none" fill-rule="evenodd">
        <g id="Icons" transform="translate(-122.000000, -1922.000000)">
            <g id="编组-10" transform="translate(60.000000, 1881.999991)">
                <g id="State" transform="translate(0.000000, 0.000000)">
                    <g id="16px/面性/通用/icon-succeed-filling" transform="translate(62.000000, 40.000000)">
                        <rect id="矩形" fill="#FFFFFF" opacity="0" x="0" y="0" width="16" height="16"></rect>
                        <g fill="#333333" fill-rule="nonzero" id="形状结合">
                            <path d="M8,0 C12.4114286,0 16,3.57714286 16,8 C16,12.4228571 12.4228571,16 8,16 C3.57714286,16 0,12.4228571 0,8 C0,3.57714286 3.57714286,0 8,0 Z M12.4604627,5.10503435 C12.1870957,4.83166734 11.7438802,4.83166734 11.4705132,5.10503435 L11.4705132,5.10503435 L7.157,9.417 L4.99497477,7.25485941 L4.90820891,7.18105032 C4.63466315,6.98422608 4.25105558,7.00882911 4.00502528,7.25485941 C3.73165827,7.52822641 3.73165827,7.9714419 4.00502528,8.2448089 L4.00502528,8.2448089 L6.66285672,10.9026403 L6.74962258,10.9764494 C7.02316834,11.1732737 7.40677591,11.1486707 7.65280621,10.9026403 L7.65280621,10.9026403 L12.4604627,6.09498384 L12.5342718,6.00821798 C12.7310961,5.73467222 12.706493,5.35106465 12.4604627,5.10503435 Z"></path>
                        </g>
                    </g>
                </g>
            </g>
        </g>
    </g>
</svg>