<?xml version="1.0" encoding="UTF-8"?>
<svg width="16px" height="16px" viewBox="0 0 16 16" version="1.1" xmlns="http://www.w3.org/2000/svg" xmlns:xlink="http://www.w3.org/1999/xlink">
    <title>16px/线性/通用/icon-succeed</title>
    <g id="页面-1" stroke="none" stroke-width="1" fill="none" fill-rule="evenodd">
        <g id="Icons" transform="translate(-400.000000, -1227.000000)">
            <g id="编组-8" transform="translate(60.000000, 1186.999991)">
                <g id="State" transform="translate(278.000000, 0.000000)">
                    <g id="16px/线性/通用/icon-succeed" transform="translate(62.000000, 40.000000)">
                        <rect id="矩形" fill="#FFFFFF" opacity="0" x="0" y="0" width="16" height="16"></rect>
                        <g fill="#333333" fill-rule="nonzero">
                            <path d="M8,0 C12.4114286,0 16,3.57714286 16,8 C16,12.4228571 12.4228571,16 8,16 C3.57714286,16 0,12.4228571 0,8 C0,3.57714286 3.57714286,0 8,0 Z M8,1.4 C4.35034151,1.4 1.4,4.35034151 1.4,8 C1.4,11.6496585 4.35034151,14.6 8,14.6 C11.6496585,14.6 14.6,11.6496585 14.6,8 C14.6,4.35459567 11.6424876,1.4 8,1.4 Z" id="Path"></path>
                            <path d="M11.4705132,5.10503435 C11.7438802,4.83166734 12.1870957,4.83166734 12.4604627,5.10503435 C12.706493,5.35106465 12.7310961,5.73467222 12.5342718,6.00821798 L12.4604627,6.09498384 L7.65280621,10.9026403 C7.40677591,11.1486707 7.02316834,11.1732737 6.74962258,10.9764494 L6.66285672,10.9026403 L4.00502528,8.2448089 C3.73165827,7.9714419 3.73165827,7.52822641 4.00502528,7.25485941 C4.25105558,7.00882911 4.63466315,6.98422608 4.90820891,7.18105032 L4.99497477,7.25485941 L7.157,9.417 L11.4705132,5.10503435 Z" id="路径-4"></path>
                        </g>
                    </g>
                </g>
            </g>
        </g>
    </g>
</svg>