<?xml version="1.0" encoding="UTF-8"?>
<svg width="16px" height="16px" viewBox="0 0 16 16" version="1.1" xmlns="http://www.w3.org/2000/svg" xmlns:xlink="http://www.w3.org/1999/xlink">
    <title>16px/线性/通用/icon-telephone</title>
    <g id="页面-1" stroke="none" stroke-width="1" fill="none" fill-rule="evenodd">
        <g id="Icons" transform="translate(-261.000000, -1505.000000)" fill-rule="nonzero">
            <g id="编组-8" transform="translate(60.000000, 1464.999991)">
                <g id="State" transform="translate(139.000000, 0.000006)">
                    <g id="16px/线性/通用/icon-telephone" transform="translate(62.000000, 40.000003)">
                        <rect id="矩形" fill="#FFFFFF" opacity="0" x="0" y="0" width="16" height="16"></rect>
                        <g transform="translate(1.000000, 1.000000)" fill="#333333" id="路径-17">
                            <path d="M-0.479426594,0.33902959 C-1.34353961,3.40555238 0.383918102,7.23708148 3.1623355,10.1704951 L3.5388838,10.5561487 C6.3439257,13.3431047 10.0882747,15.20075 13.3317618,14.574392 C14.8513827,14.2809342 15.0039533,9.91338555 13.8784405,9.04247935 C13.522373,8.76695925 13.1394258,8.59616333 12.5660448,8.43382381 L12.3245296,8.36896957 L10.7046648,7.97035242 L10.3436796,7.87521225 C9.64003815,7.68792564 9.19386243,7.95234176 8.62556053,8.5961817 L8.211,9.078 L8.05992913,8.97251413 C7.15495788,8.31884042 5.73110389,7.00021488 5.04913756,6.07142872 L4.89925413,5.85543887 L4.87969657,5.81829354 C4.8718312,5.78982998 4.88839068,5.76296186 4.95445045,5.70295124 L5.23975483,5.46167176 C5.92538019,4.88655824 6.19204071,4.51873626 6.04553026,3.8248273 L5.82446357,2.69423179 L5.75664141,2.37000663 L5.69296099,2.09556802 L5.62757951,1.84768797 L5.55465416,1.60313848 C5.54154667,1.56136733 5.52788141,1.51876713 5.51353665,1.47485395 C5.36087378,1.00751182 5.17224336,0.578576493 4.93214566,0.172572665 C4.22325817,-1.02615202 -0.099225958,-1.01020818 -0.479426594,0.33902959 Z M2.17808013,0.700048167 L2.3375321,0.701584439 L2.64612419,0.715800837 L2.93331865,0.741257874 C2.97889136,0.746196245 3.02319008,0.751422084 3.0660236,0.756844945 L3.40680206,0.808528261 L3.57473466,0.841658808 L3.68455698,0.868664389 C3.71045957,0.876163044 3.72514742,0.881917304 3.72709083,0.885203602 C3.91252641,1.19877411 4.0603666,1.53495467 4.18274058,1.90957434 L4.25027858,2.1254886 L4.33808518,2.45055635 L4.39523,2.69897578 L4.67572966,4.11404406 C4.67457724,4.1085859 4.6716402,4.10715554 4.66459508,4.11089441 L4.62881201,4.13876009 L4.32129442,4.40477234 C3.44772627,5.13733347 3.14286391,5.73050561 3.74441969,6.64698006 C4.55357629,7.8797358 6.59956085,9.73845318 7.65979814,10.3897419 C8.15133619,10.6916867 8.64318166,10.5677742 9.05711711,10.2048138 L9.13717169,10.1334331 L9.20569698,10.0665367 L9.33727277,9.91971982 L9.6533968,9.54739861 L9.83692833,9.34790471 L9.91444497,9.27372868 L9.97773726,9.22652603 L10.4965536,9.36208315 L11.9902917,9.72831366 C12.5240738,9.86676135 12.803357,9.98077546 13.0216801,10.1497109 C13.0336344,10.1589609 13.0492061,10.1988872 13.0662368,10.2635273 L13.1016042,10.4239923 L13.137025,10.6397606 L13.1686621,10.900232 L13.1926783,11.1948063 C13.2052961,11.4002013 13.2102752,11.6212649 13.2024992,11.8438636 C13.1865774,12.2996463 13.126518,12.7158199 13.0352789,13.0066332 L13.0009663,13.1125714 C12.9791545,13.1824018 12.9783845,13.2081353 13.0293069,13.205007 L12.8643284,13.2346938 C7.32138851,14.0817578 -0.201094958,6.23986939 0.779073295,1.09709913 L0.827,0.877 L0.862358652,0.864419563 C0.908334387,0.848418107 0.964206027,0.832001496 1.02850311,0.816336669 C1.32570429,0.743928951 1.73988175,0.701664499 2.17808013,0.700048167 Z"></path>
                        </g>
                    </g>
                </g>
            </g>
        </g>
    </g>
</svg>