<?xml version="1.0" encoding="UTF-8"?>
<svg width="16px" height="16px" viewBox="0 0 16 16" version="1.1" xmlns="http://www.w3.org/2000/svg" xmlns:xlink="http://www.w3.org/1999/xlink">
    <title>16px/线性/通用/icon-time</title>
    <g id="页面-1" stroke="none" stroke-width="1" fill="none" fill-rule="evenodd">
        <g id="Icons" transform="translate(-261.000000, -949.000000)">
            <g id="编组-6" transform="translate(60.000000, 908.999994)">
                <g id="State" transform="translate(139.000000, 0.000003)">
                    <g id="16px/线性/通用/icon-time" transform="translate(62.000000, 40.000003)">
                        <rect id="矩形" fill="#FFFFFF" opacity="0" x="0" y="0" width="16" height="16"></rect>
                        <g fill="#333333" fill-rule="nonzero">
                            <path d="M8,0 C12.418278,0 16,3.581722 16,8 C16,12.418278 12.418278,16 8,16 C3.581722,16 0,12.418278 0,8 C0,3.581722 3.581722,0 8,0 Z M8,1.4 C4.35492065,1.4 1.4,4.35492065 1.4,8 C1.4,11.6450793 4.35492065,14.6 8,14.6 C11.6450793,14.6 14.6,11.6450793 14.6,8 C14.6,4.35492065 11.6450793,1.4 8,1.4 Z" id="椭圆形"></path>
                            <path d="M8,4.01176267 C8.35438271,4.01176267 8.64725823,4.27510629 8.69360983,4.61677682 L8.7,4.71176267 L8.7,7.921 L11.4727087,9.51497568 C11.7774125,9.69011981 11.9005936,10.0596725 11.7757248,10.3772378 L11.7307561,10.4707013 C11.555612,10.7754051 11.1860592,10.8985863 10.868494,10.7737174 L10.7750304,10.7287487 L7.65116085,8.9331445 C7.46495969,8.82611584 7.33996479,8.64077735 7.30805199,8.43221781 L7.3,8.32625798 L7.3,4.71176267 C7.3,4.32516334 7.61340068,4.01176267 8,4.01176267 Z" id="路径-6"></path>
                        </g>
                    </g>
                </g>
            </g>
        </g>
    </g>
</svg>