<?xml version="1.0" encoding="UTF-8"?>
<svg width="16px" height="16px" viewBox="0 0 16 16" version="1.1" xmlns="http://www.w3.org/2000/svg" xmlns:xlink="http://www.w3.org/1999/xlink">
    <title>16px/面性/通用/icon-time-filling</title>
    <g id="页面-1" stroke="none" stroke-width="1" fill="none" fill-rule="evenodd">
        <g id="Icons" transform="translate(-817.000000, -1922.000000)">
            <g id="编组-10" transform="translate(60.000000, 1881.999991)">
                <g id="State" transform="translate(695.000000, 0.000000)">
                    <g id="16px/面性/通用/icon-time-filling" transform="translate(62.000000, 40.000009)">
                        <rect id="矩形" fill="#FFFFFF" opacity="0" x="0" y="0" width="16" height="16"></rect>
                        <g fill="#333333" id="形状结合">
                            <path d="M8,0 C12.418278,0 16,3.581722 16,8 C16,12.418278 12.418278,16 8,16 C3.581722,16 0,12.418278 0,8 C0,3.581722 3.581722,0 8,0 Z M8,4.01176267 C7.61340068,4.01176267 7.3,4.32516334 7.3,4.71176267 L7.3,4.71176267 L7.3,8.32625798 L7.30805199,8.43221781 C7.33996479,8.64077735 7.46495969,8.82611584 7.65116085,8.9331445 L7.65116085,8.9331445 L10.7750304,10.7287487 L10.868494,10.7737174 C11.1860592,10.8985863 11.555612,10.7754051 11.7307561,10.4707013 L11.7307561,10.4707013 L11.7757248,10.3772378 C11.9005936,10.0596725 11.7774125,9.69011981 11.4727087,9.51497568 L11.4727087,9.51497568 L8.7,7.921 L8.7,4.71176267 L8.69360983,4.61677682 C8.64725823,4.27510629 8.35438271,4.01176267 8,4.01176267 Z"></path>
                        </g>
                    </g>
                </g>
            </g>
        </g>
    </g>
</svg>