<?xml version="1.0" encoding="UTF-8"?>
<svg width="16px" height="16px" viewBox="0 0 16 16" version="1.1" xmlns="http://www.w3.org/2000/svg" xmlns:xlink="http://www.w3.org/1999/xlink">
    <title>16px/线性/通用/icon-top</title>
    <g id="页面-1" stroke="none" stroke-width="1" fill="none" fill-rule="evenodd">
        <g id="Icons" transform="translate(-817.000000, -1505.000000)">
            <g id="编组-8" transform="translate(60.000000, 1464.999991)">
                <g id="State" transform="translate(695.000000, 0.000006)">
                    <g id="16px/线性/通用/icon-top" transform="translate(62.000000, 40.000003)">
                        <rect id="矩形" fill="#FFFFFF" opacity="0" x="0" y="0" width="16" height="16"></rect>
                        <g transform="translate(8.000000, 8.300125) rotate(-180.000000) translate(-8.000000, -8.300125) translate(1.300000, 0.800000)" fill="#333333" fill-rule="nonzero">
                            <path d="M6.70415,0 C7.05853271,0 7.35140823,0.263343623 7.39775983,0.605014146 L7.40415,0.7 L7.40415,11.65 C7.40415,12.0365993 7.09074932,12.35 6.70415,12.35 C6.34976729,12.35 6.05689177,12.0866564 6.01054017,11.7449859 L6.00415,11.65 L6.00415,0.7 C6.00415,0.313400675 6.31755068,0 6.70415,0 Z" id="Path"></path>
                            <path d="M12.2050253,5.20527525 C12.4783923,4.93190825 12.9216077,4.93190825 13.1949747,5.20527525 C13.4410051,5.45130556 13.4656081,5.83491313 13.2687838,6.10845889 L13.1949747,6.19522475 L7.19497475,12.1952247 C6.94894444,12.4412551 6.56533687,12.4658581 6.29179111,12.2690338 L6.20502525,12.1952247 L0.205025253,6.19522475 C-0.0683417511,5.92185774 -0.0683417511,5.47864226 0.205025253,5.20527525 C0.451055557,4.95924495 0.83466313,4.93464192 1.10820889,5.13146616 L1.19497475,5.20527525 L6.7,10.711 L12.2050253,5.20527525 Z" id="Path"></path>
                            <polygon id="直线-13" points="13.4 13.60025 13.4 15.00025 1.06540374e-12 15.00025 1.06540374e-12 13.60025"></polygon>
                        </g>
                    </g>
                </g>
            </g>
        </g>
    </g>
</svg>