<?xml version="1.0" encoding="UTF-8"?>
<svg width="16px" height="16px" viewBox="0 0 16 16" version="1.1" xmlns="http://www.w3.org/2000/svg" xmlns:xlink="http://www.w3.org/1999/xlink">
    <title>16px/线性/通用/icon-upload</title>
    <g id="页面-1" stroke="none" stroke-width="1" fill="none" fill-rule="evenodd">
        <g id="Icons" transform="translate(-1095.000000, -949.000000)">
            <g id="编组-6" transform="translate(60.000000, 908.999994)">
                <g id="State" transform="translate(973.000000, 0.000006)">
                    <g id="16px/线性/通用/icon-upload" transform="translate(62.000000, 40.000012)">
                        <polygon id="Path" fill="#FFFFFF" opacity="0" points="16 0 0 0 0 16 16 16"></polygon>
                        <g transform="translate(0.300000, 0.300000)" fill="#333333" fill-rule="nonzero" id="Path">
                            <path d="M14.7,7 C15.0543827,7 15.3472582,7.26334362 15.3936098,7.60501415 L15.4,7.7 L15.4,14.7 C15.4,15.0543827 15.1366564,15.3472582 14.7949859,15.3936098 L14.7,15.4 L0.7,15.4 C0.345617286,15.4 0.0527417698,15.1366564 0.00639017493,14.7949859 L0,14.7 L0,7.70322778 C0,7.31662845 0.313400675,7.00322778 0.7,7.00322778 C1.05438271,7.00322778 1.34725823,7.2665714 1.39360983,7.60824192 L1.4,7.70322778 L1.4,14 L14,14 L14,7.7 C14,7.34561729 14.2633436,7.05274177 14.6050141,7.00639017 L14.7,7 Z"></path>
                            <path d="M7.20502525,0.205025253 C7.45105556,-0.0410050506 7.83466313,-0.065608081 8.10820889,0.131216162 L8.19497475,0.205025253 L11.9449747,3.95502525 C12.2183418,4.22839226 12.2183418,4.67160774 11.9449747,4.94497475 C11.6989444,5.19100505 11.3153369,5.21560808 11.0417911,5.01878384 L10.9550253,4.94497475 L7.7,1.689 L4.44497475,4.94497475 C4.19894444,5.19100505 3.81533687,5.21560808 3.54179111,5.01878384 L3.45502525,4.94497475 C3.20899495,4.69894444 3.18439192,4.31533687 3.38121616,4.04179111 L3.45502525,3.95502525 L7.20502525,0.205025253 Z"></path>
                            <path d="M7.69654167,0.5 C8.05092438,0.5 8.3437999,0.763343623 8.39015149,1.10501415 L8.39654167,1.2 L8.39654167,10.0333333 C8.39654167,10.4199327 8.08314099,10.7333333 7.69654167,10.7333333 C7.34215895,10.7333333 7.04928344,10.4699897 7.00293184,10.1283192 L6.99654167,10.0333333 L6.99654167,1.2 C6.99654167,0.813400675 7.30994234,0.5 7.69654167,0.5 Z"></path>
                        </g>
                    </g>
                </g>
            </g>
        </g>
    </g>
</svg>