<?xml version="1.0" encoding="UTF-8"?>
<svg width="16px" height="16px" viewBox="0 0 16 16" version="1.1" xmlns="http://www.w3.org/2000/svg" xmlns:xlink="http://www.w3.org/1999/xlink">
    <title>16px/线性/通用/icon-voice</title>
    <g id="页面-1" stroke="none" stroke-width="1" fill="none" fill-rule="evenodd">
        <g id="Icons" transform="translate(-956.000000, -1366.000000)">
            <g id="编组-8" transform="translate(60.000000, 1325.999991)">
                <g id="State" transform="translate(834.000000, 0.000000)">
                    <g id="16px/线性/通用/icon-voice" transform="translate(62.000000, 40.000000)">
                        <rect id="矩形" fill="#FFFFFF" opacity="0" x="0" y="0" width="16" height="16"></rect>
                        <g transform="translate(2.300000, 0.000000)" fill="#333333" fill-rule="nonzero">
                            <path d="M9.2,14.3000091 C9.58659932,14.3000091 9.9,14.6134098 9.9,15.0000091 C9.9,15.3543918 9.63665638,15.6472673 9.29498585,15.6936189 L9.2,15.7000091 L2.2,15.7000091 C1.81340068,15.7000091 1.5,15.3866084 1.5,15.0000091 C1.5,14.6456264 1.76334362,14.3527509 2.10501415,14.3063993 L2.2,14.3000091 L9.2,14.3000091 Z" id="直线-12"></path>
                            <path d="M5.70000002,11.8 C6.05438274,11.8 6.34725825,12.0633436 6.39360985,12.4050141 L6.40000002,12.5 L6.40000002,14.5 C6.40000002,14.8865993 6.08659935,15.2 5.70000002,15.2 C5.34561731,15.2 5.05274179,14.9366564 5.0063902,14.5949859 L5.00000002,14.5 L5.00000002,12.5 C5.00000002,12.1134007 5.3134007,11.8 5.70000002,11.8 Z" id="直线-11"></path>
                            <path d="M5.7,0 C7.35685425,0 8.7,1.34314575 8.7,3 L8.7,7 C8.7,8.65685425 7.35685425,10 5.7,10 C4.04314575,10 2.7,8.65685425 2.7,7 L2.7,3 C2.7,1.34314575 4.04314575,0 5.7,0 Z M5.7,1.4 C4.86543638,1.4 4.18011021,2.03896152 4.10653868,2.85436739 L4.1,3 L4.1,7 C4.1,7.8836556 4.8163444,8.6 5.7,8.6 C6.53456362,8.6 7.21988979,7.96103848 7.29346132,7.14563261 L7.3,7 L7.3,3 C7.3,2.1163444 6.5836556,1.4 5.7,1.4 Z" id="矩形"></path>
                            <path d="M10.7,6.30000909 C11.0865993,6.30000909 11.4,6.61340977 11.4,7.00000909 C11.4,10.1480322 8.84802307,12.7000091 5.7,12.7000091 C2.55197693,12.7000091 0,10.1480322 0,7.00000909 C0,6.61340977 0.313400675,6.30000909 0.7,6.30000909 C1.08659932,6.30000909 1.4,6.61340977 1.4,7.00000909 C1.4,9.37483352 3.32517558,11.3000091 5.7,11.3000091 C8.07482442,11.3000091 10,9.37483352 10,7.00000909 C10,6.61340977 10.3134007,6.30000909 10.7,6.30000909 Z" id="路径"></path>
                        </g>
                    </g>
                </g>
            </g>
        </g>
    </g>
</svg>