<?xml version="1.0" encoding="UTF-8"?>
<svg width="16px" height="16px" viewBox="0 0 16 16" version="1.1" xmlns="http://www.w3.org/2000/svg" xmlns:xlink="http://www.w3.org/1999/xlink">
    <title>16px/线性/通用/icon-warning</title>
    <g id="页面-1" stroke="none" stroke-width="1" fill="none" fill-rule="evenodd">
        <g id="Icons" transform="translate(-539.000000, -1227.000000)">
            <g id="编组-8" transform="translate(60.000000, 1186.999991)">
                <g id="State" transform="translate(417.000000, 0.000000)">
                    <g id="16px/线性/通用/icon-warning" transform="translate(70.000000, 48.000009) scale(-1, 1) rotate(-90.000000) translate(-70.000000, -48.000009) translate(62.000000, 40.000009)">
                        <rect id="矩形" fill="#FFFFFF" opacity="0" x="0" y="1.9554734e-14" width="16" height="16"></rect>
                        <g transform="translate(0.000000, 0.000000)" fill="#333333" fill-rule="nonzero">
                            <path d="M8,1.9554734e-14 C12.4114286,1.9554734e-14 16,3.57714286 16,8 C16,12.4228571 12.4228571,16 8,16 C3.57714286,16 0,12.4228571 0,8 C0,3.57714286 3.57714286,1.9554734e-14 8,1.9554734e-14 Z M8,1.4 C4.35034151,1.4 1.4,4.35034151 1.4,8 C1.4,11.6496585 4.35034151,14.6 8,14.6 C11.6496585,14.6 14.6,11.6496585 14.6,8 C14.6,4.35459567 11.6424876,1.4 8,1.4 Z" id="Path"></path>
                            <path d="M12,7.29999998 C12.3865993,7.29999998 12.7,7.61340065 12.7,7.99999998 C12.7,8.35438269 12.4366564,8.64725821 12.0949859,8.6936098 L12,8.69999998 L7,8.69999998 C6.61340068,8.69999998 6.3,8.3865993 6.3,7.99999998 C6.3,7.64561726 6.56334362,7.35274175 6.90501415,7.30639015 L7,7.29999998 L12,7.29999998 Z" id="直线-6"></path>
                            <path d="M4.5,7 C3.95,7 3.5,7.45 3.5,8 C3.5,8.55 3.95,9 4.5,9 C5.05,9 5.5,8.55 5.5,8 C5.5,7.45 5.05,7 4.5,7 Z" id="Path"></path>
                        </g>
                    </g>
                </g>
            </g>
        </g>
    </g>
</svg>