<?xml version="1.0" encoding="UTF-8"?>
<svg width="16px" height="16px" viewBox="0 0 16 16" version="1.1" xmlns="http://www.w3.org/2000/svg" xmlns:xlink="http://www.w3.org/1999/xlink">
    <title>16px/线性/通用/icon-warning-triangle</title>
    <g id="页面-1" stroke="none" stroke-width="1" fill="none" fill-rule="evenodd">
        <g id="Icons" transform="translate(-261.000000, -1644.000000)">
            <g id="编组-8" transform="translate(60.000000, 1603.999991)">
                <g id="State" transform="translate(139.000000, 0.000006)">
                    <g id="16px/线性/通用/icon-warning-triangle" transform="translate(70.000000, 48.000003) scale(-1, 1) rotate(-90.000000) translate(-70.000000, -48.000003) translate(62.000000, 40.000003)">
                        <rect id="矩形" fill="#FFFFFF" opacity="0" x="0" y="-6.85982179e-14" width="16" height="16"></rect>
                        <g transform="translate(0.811755, 0.156909)" fill="#333333" fill-rule="nonzero">
                            <path d="M10.0882452,7.14309056 C10.4748445,7.14309056 10.7882452,7.45649124 10.7882452,7.84309056 C10.7882452,8.19747328 10.5249016,8.49034879 10.183231,8.53670039 L10.0882452,8.54309056 L6.08824519,8.54309056 C5.70164586,8.54309056 5.38824519,8.22968989 5.38824519,7.84309056 C5.38824519,7.48870785 5.65158881,7.19583233 5.99325933,7.14948074 L6.08824519,7.14309056 L10.0882452,7.14309056 Z" id="直线-6"></path>
                            <path d="M3.58824519,6.84309058 C3.03824519,6.84309058 2.58824519,7.29309058 2.58824519,7.84309058 C2.58824519,8.39309058 3.03824519,8.84309058 3.58824519,8.84309058 C4.13824519,8.84309058 4.58824519,8.39309058 4.58824519,7.84309058 C4.58824519,7.29309058 4.13824519,6.84309058 3.58824519,6.84309058 Z" id="Path"></path>
                            <path d="M5.89657637,1.32286179 L-0.224803561,12.7107762 C-0.357808213,12.9582116 -0.427422699,13.2347507 -0.427422699,13.5156679 C-0.427422699,14.454552 0.333693227,15.2156679 1.2725773,15.2156679 L13.5153372,15.2156679 C13.7962544,15.2156679 14.0727935,15.1460534 14.3202288,15.0130487 C15.1472094,14.5685194 15.4572474,13.5377569 15.012718,12.7107762 L8.89133809,1.32286179 C8.73343266,1.02910229 8.49260837,0.788277994 8.19884887,0.630372568 C7.37186825,0.185843189 6.34110574,0.495881174 5.89657637,1.32286179 Z M7.53599693,1.86350975 C7.58783684,1.89137541 7.63033525,1.93387382 7.65820091,1.98571373 L13.7795808,13.3736282 C13.8580272,13.5195659 13.8033146,13.7014652 13.6573769,13.7799116 C13.6137118,13.803383 13.5649108,13.8156679 13.5153372,13.8156679 L1.2725773,13.8156679 C1.10689188,13.8156679 0.972577301,13.6813533 0.972577301,13.5156679 C0.972577301,13.4660943 0.984862211,13.4172932 1.00833362,13.3736282 L7.12971355,1.98571373 C7.19695328,1.86062422 7.34019924,1.80255729 7.47165691,1.83792021 L7.53599693,1.86350975 Z" id="多边形" transform="translate(7.394123, 7.821545) rotate(-270.000000) translate(-7.394123, -7.821545) "></path>
                        </g>
                    </g>
                </g>
            </g>
        </g>
    </g>
</svg>