<?xml version="1.0" encoding="UTF-8"?>
<svg width="16px" height="16px" viewBox="0 0 16 16" version="1.1" xmlns="http://www.w3.org/2000/svg" xmlns:xlink="http://www.w3.org/1999/xlink">
    <title>16px/线性/通用/icon-zoom-out</title>
    <g id="页面-1" stroke="none" stroke-width="1" fill="none" fill-rule="evenodd">
        <g id="Icons" transform="translate(-539.000000, -1088.000000)">
            <g id="编组-7" transform="translate(60.000000, 1047.999988)">
                <g id="State" transform="translate(417.000000, 0.000000)">
                    <g id="16px/线性/通用/icon-zoom-out" transform="translate(62.000000, 40.000012)">
                        <rect id="矩形" fill="#D8D8D8" opacity="0" x="0" y="0" width="16" height="16"></rect>
                        <g transform="translate(1.000000, 1.000000)" fill="#333333">
                            <path d="M6,0 C9.3137085,0 12,2.6862915 12,6 C12,9.3137085 9.3137085,12 6,12 C2.6862915,12 0,9.3137085 0,6 C0,2.6862915 2.6862915,0 6,0 Z M6,1.4 C3.45949015,1.4 1.4,3.45949015 1.4,6 C1.4,8.54050985 3.45949015,10.6 6,10.6 C8.54050985,10.6 10.6,8.54050985 10.6,6 C10.6,3.45949015 8.54050985,1.4 6,1.4 Z" id="椭圆形" fill-rule="nonzero"></path>
                            <path d="M9.50502525,9.50502525 C9.75105556,9.25899495 10.1346631,9.23439192 10.4082089,9.43121616 L10.4949747,9.50502525 L13.4648232,12.4748737 C13.7381902,12.7482407 13.7381902,13.1914562 13.4648232,13.4648232 C13.2187929,13.7108535 12.8351854,13.7354566 12.5616396,13.5386323 L12.4748737,13.4648232 L9.50502525,10.4949747 C9.23165825,10.2216077 9.23165825,9.77839226 9.50502525,9.50502525 Z" id="直线" fill-rule="nonzero"></path>
                            <rect id="矩形" x="3" y="5.3" width="6" height="1.4" rx="0.7"></rect>
                            <rect id="矩形" transform="translate(6.000000, 6.000000) rotate(-270.000000) translate(-6.000000, -6.000000) " x="3" y="5.3" width="6" height="1.4" rx="0.7"></rect>
                        </g>
                    </g>
                </g>
            </g>
        </g>
    </g>
</svg>