<?xml version="1.0" encoding="UTF-8"?>
<svg width="18px" height="18px" viewBox="0 0 18 18" version="1.1" xmlns="http://www.w3.org/2000/svg" xmlns:xlink="http://www.w3.org/1999/xlink">
    <title>icon-小屏</title>
    <g id="页面-1" stroke="none" stroke-width="1" fill="none" fill-rule="evenodd">
        <g id="监测预警-加油站详情页（三级页面）-异常信息(今日)" transform="translate(-333.000000, -192.000000)">
            <g id="编组-14" transform="translate(0.000000, 148.000000)">
                <g id="位图" transform="translate(12.000000, 32.000000)">
                    <g id="icon-小屏" transform="translate(321.000000, 12.000000)">
                        <rect id="矩形" fill-opacity="0.5" fill="#000000" x="0" y="0" width="18" height="18" rx="1.125"></rect>
                        <g id="编组" transform="translate(3.937500, 3.937500)" fill="#FFFFFF" fill-rule="nonzero">
                            <path d="M4.134375,4.303125 C4.190625,4.303125 4.21875,4.27499999 4.246875,4.246875 C4.275,4.21874999 4.303125,4.190625 4.303125,4.134375 L4.303125,0.534374996 C4.303125,0.50625 4.303125,0.478124995 4.275,0.478124995 L4.21875,0.478124995 L3.009375,1.68749999 L1.378125,0.0562499912 C1.35000001,0.0281249956 1.29375001,0 1.265625,0 C1.209375,0 1.18125,0.0281249956 1.153125,0.0562499912 L0.0562500011,1.153125 C0.0281250055,1.18124999 0,1.23749999 0,1.265625 C0,1.321875 0.0281249956,1.35 0.0562500011,1.37812499 L1.63125,3.065625 L0.449999999,4.246875 C0.421875003,4.27499999 0.421875003,4.27499999 0.449999999,4.303125 C0.449999999,4.33125 0.478124995,4.33125 0.478125004,4.33125 L4.134375,4.303125 Z M4.134375,5.79375 C4.190625,5.79375 4.21874999,5.821875 4.246875,5.85000001 C4.27499999,5.878125 4.303125,5.934375 4.303125,5.96250001 L4.303125,9.590625 C4.303125,9.61875 4.303125,9.64687501 4.275,9.64687501 L4.21875,9.64687501 L3.009375,8.43750001 L1.378125,10.06875 C1.35000001,10.096875 1.29375001,10.125 1.265625,10.125 C1.209375,10.125 1.18125,10.096875 1.153125,10.06875 L0.0562500011,8.971875 C0.0281250055,8.94375001 0,8.88750001 0,8.859375 C0,8.83124999 0.0281249956,8.775 0.0562500011,8.74687501 L1.6875,7.11562501 L0.50625,5.934375 C0.478125004,5.90625001 0.478125004,5.90625001 0.50625,5.878125 C0.50625,5.85000001 0.534374996,5.85000001 0.562500001,5.85000001 L4.134375,5.79375 Z M5.878125,4.246875 C5.85000001,4.21875 5.821875,4.190625 5.821875,4.134375 L5.821875,0.534374996 C5.821875,0.50625 5.821875,0.478124995 5.85,0.478124995 L5.90625,0.478124995 L7.115625,1.68749999 L8.746875,0.0562499912 C8.77499999,0.0281249956 8.83124999,0 8.859375,0 C8.915625,0 8.94375,0.0281249956 8.971875,0.0562499912 L10.06875,1.153125 C10.096875,1.18124999 10.125,1.23749999 10.125,1.265625 C10.125,1.321875 10.096875,1.35 10.06875,1.37812499 L8.4375,3.00937499 L9.61875,4.190625 C9.646875,4.21874999 9.646875,4.21874999 9.61875,4.246875 C9.675,4.33125 9.646875,4.33125 9.646875,4.33125 L5.990625,4.303125 C5.934375,4.303125 5.90625001,4.275 5.878125,4.246875 Z M5.878125,5.85000001 C5.85000001,5.878125 5.821875,5.934375 5.821875,5.96250001 L5.821875,9.590625 C5.821875,9.61875 5.821875,9.64687501 5.85,9.64687501 L5.90625,9.64687501 L7.115625,8.43750001 L8.746875,10.06875 C8.77499999,10.096875 8.83124999,10.125 8.859375,10.125 C8.915625,10.125 8.94375,10.096875 8.971875,10.06875 L10.06875,8.971875 C10.096875,8.94375001 10.125,8.88750001 10.125,8.859375 C10.125,8.83124999 10.096875,8.775 10.06875,8.74687501 L8.4375,7.11562501 L9.61875,5.934375 C9.646875,5.90625001 9.646875,5.90625001 9.61875,5.878125 C9.61875,5.85000001 9.590625,5.85000001 9.5625,5.85000001 L5.990625,5.79375 C5.934375,5.79375 5.90625001,5.821875 5.878125,5.85000001 Z" id="形状"></path>
                        </g>
                    </g>
                </g>
            </g>
        </g>
    </g>
</svg>